{
.appVersion = "1306";
DisplayStrings = (
"\012\012\012/ee-limbu/cha-limbu/wa-limbu.subjoined \012/ee-limbu/ya-limbu.subjoined \012/ee-limbu 0/i-limbu \012/ee-limbu/dha_u-limbu/la-limbu.small \012/ba-limbu"
);
classes = (
{
automatic = 1;
code = "iMatra-deva iMatra-deva.001 iMatra-deva.002 iMatra-deva.003 iMatra-deva.004 iMatra-deva.005";
name = DevaIMatras;
},
{
automatic = 1;
code = "ka-deva kha-deva ga-deva gha-deva nga-deva ca-deva cha-deva ja-deva jha-deva nya-deva tta-deva ttha-deva dda-deva ddha-deva nna-deva ta-deva tha-deva da-deva dha-deva na-deva pa-deva pha-deva ba-deva bha-deva ma-deva ya-deva ra-deva rra-deva la-deva lla-deva va-deva sha-deva ssa-deva sa-deva ha-deva gga-deva jja-deva ddda-deva bba-deva jha-deva.loclNEP ka_ra-deva k_ka-deva kh_na-deva kh_ya-deva ng_ga-deva ng_ga_ra-deva cha_ra-deva j_nya-deva j_ya-deva tta_ra-deva ttha_ra-deva dda_ra-deva ddha_ra-deva ta_ra-deva t_ta-deva t_ya-deva dh_ya-deva n_da-deva pa_ra-deva p_la-deva ph_ra-deva ph_ra_ya-deva b_da-deva b_ba-deva m_ma-deva m_ya-deva l_dda-deva sha_ra-deva sh_ca-deva s_tha-deva";
name = DevaFullforms;
},
{

glyphs = (
{
glyphname = A;
lastChange = "2020-06-08 20:00:51 +0000";
layers = (
{
anchors = (
{
name = bottom;
position = "{460, 0}";
},
{
name = ogonek;
position = "{900, 10}";
},
{
name = top;
position = "{638, 1155}";
}
);
layerId = "6B6AD122-EF8D-49FE-8C69-4BDE8C56BDD8";
paths = (
{
closed = 1;
nodes = (
"775 1155 LINE",
"660 1155 LINE",
"539 1008 LINE",
"689 212 LINE SMOOTH",
"702 143 OFFCURVE",
"684 128 OFFCURVE",
"626 73 CURVE",
"632 0 LINE",
"989 0 LINE",
"1011 59 LINE",
"972 109 OFFCURVE",
"946 177 OFFCURVE",
"934 248 CURVE SMOOTH"
);
},
{
closed = 1;
nodes = (
"584 1155 LINE",
"65 239 LINE SMOOTH",
"30 178 OFFCURVE",
"-6 128 OFFCURVE",
"-69 68 CURVE",
"-65 0 LINE",
"155 0 LINE",
"171 53 LINE",
"140 100 OFFCURVE",
"146 125 OFFCURVE",
"184 194 CURVE SMOOTH",
"721 1155 LINE"
);
},
{
closed = 1;
nodes = (
"851 383 LINE",
"877 503 LINE",
"236 503 LINE",
"210 383 LINE"
);
}
);
width = 1095;
},
{
anchors = (
{
name = bottom;
position = "{459, 0}";
},
{
name = ogonek;
position = "{892, 10}";
},
{
name = top;
position = "{692, 1155}";
}
);
layerId = "34301EF7-A2BE-469F-9697-D6100B11FDFE";
paths = (
{
closed = 1;
nodes = (
"751 519 LINE",
"344 519 LINE",
"308 462 LINE",
"761 462 LINE"
);
},
{
closed = 1;
nodes = (
"804 142 LINE SMOOTH",
"813 81 OFFCURVE",
"760 42 OFFCURVE",
"648 31 CURVE",
"643 0 LINE",
"993 0 LINE",
"998 31 LINE",
"960 43 OFFCURVE",
"912 80 OFFCURVE",
"904 132 CURVE SMOOTH",
"751 1185 LINE",
"737 1191 LINE",
"639 1153 LINE",
"81 141 LINE SMOOTH",
"49 83 OFFCURVE",
"-14 43 OFFCURVE",
"-68 31 CURVE",
"-72 0 LINE",
"248 0 LINE",
"254 34 LINE",
"151 45 OFFCURVE",
"114 73 OFFCURVE",
"148 134 CURVE SMOOTH",
"672 1090 LINE",
"668 1090 LINE"
);
}
);
width = 1078;
},
{
anchors = (
{
name = bottom;
position = "{460, 0}";
},
{
name = ogonek;
position = "{900, 10}";
},
{
name = top;
position = "{700, 1185}";
}
);
layerId = "CFF67ECA-3B2D-433B-B605-F38590C8F106";
paths = (
{
closed = 1;
nodes = (
"721 517 LINE",
"373 517 LINE",
"314 413 LINE",
"739 413 LINE"
);
},
{
closed = 1;
nodes = (
"758 1185 LINE",
"639 1185 LINE",
"634 992 LINE",
"754 194 LINE SMOOTH",
"765 119 OFFCURVE",
"723 82 OFFCURVE",
"631 50 CURVE",
"630 0 LINE",
"999 0 LINE",
"1009 45 LINE",
"957 78 OFFCURVE",
"918 126 OFFCURVE",
"910 180 CURVE SMOOTH",
"757 1185 LINE"
);
},
{
closed = 1;
nodes = (
"643 1185 LINE",
"79 192 LINE SMOOTH",
"48 137 OFFCURVE",
"2 90 OFFCURVE",
"-72 44 CURVE",
"-72 0 LINE",
"254 0 LINE",
"259 46 LINE",
"176 77 OFFCURVE",
"171 129 OFFCURVE",
"227 228 CURVE SMOOTH",
"658 992 LINE"
);
}
);
width = 1077;
}
);
leftKerningGroup = PointUp;
rightKerningGroup = PointUp;
unicode = 0041;
},
{
glyphname = Aogonek;
lastChange = "2020-06-08 16:08:45 +0000";
layers = (
{
components = (
{
name = A;
}
);
layerId = "6B6AD122-EF8D-49FE-8C69-4BDE8C56BDD8";
paths = (
{
closed = 1;
nodes = (
"582 -299 LINE",
"542 -337 OFFCURVE",
"493 -369 OFFCURVE",
"448 -369 CURVE SMOOTH",
"416 -369 OFFCURVE",
"390 -354 OFFCURVE",
"390 -309 CURVE SMOOTH",
"390 -184 OFFCURVE",
"600 0 OFFCURVE",
"751 0 CURVE",
"626 73 LINE",
"435 -90 OFFCURVE",
"245 -209 OFFCURVE",
"245 -366 CURVE SMOOTH",
"245 -449 OFFCURVE",
"300 -501 OFFCURVE",
"384 -501 CURVE SMOOTH",
"485 -501 OFFCURVE",
"574 -428 OFFCURVE",
"633 -334 CURVE",
"597 -299 LINE"
);
}
);
width = 1095;
},
{
components = (
{
name = A;
}
);
layerId = "CFF67ECA-3B2D-433B-B605-F38590C8F106";
paths = (
{
closed = 1;
nodes = (
"425 -175 OFFCURVE",
"676 2 OFFCURVE",
"806 2 CURVE",
"631 50 LINE",
"476 -84 OFFCURVE",
"307 -226 OFFCURVE",
"307 -358 CURVE SMOOTH",
"307 -429 OFFCURVE",
"357 -479 OFFCURVE",
"443 -479 CURVE SMOOTH",
"542 -479 OFFCURVE",
"621 -406 OFFCURVE",
"679 -320 CURVE",
"654 -277 LINE",
"639 -277 LINE",
"599 -315 OFFCURVE",
"538 -369 OFFCURVE",
"481 -369 CURVE SMOOTH",
"451 -369 OFFCURVE",
"425 -354 OFFCURVE",
"425 -310 CURVE SMOOTH"
);
}
);
width = 1094;
},
{
components = (
{
name = A;
}
);
layerId = "34301EF7-A2BE-469F-9697-D6100B11FDFE";
paths = (
{
closed = 1;
nodes = (
"624 -320 LINE",
"584 -360 OFFCURVE",
"520 -416 OFFCURVE",
"451 -416 CURVE SMOOTH",
"402 -416 OFFCURVE",
"375 -387 OFFCURVE",
"375 -345 CURVE SMOOTH",
"375 -214 OFFCURVE",
"616 0 OFFCURVE",
"784 0 CURVE",
"648 31 LINE",
"432 -123 OFFCURVE",
"285 -252 OFFCURVE",
"285 -372 CURVE SMOOTH",
"285 -444 OFFCURVE",
"337 -497 OFFCURVE",
"415 -497 CURVE SMOOTH",
"501 -497 OFFCURVE",
"596 -428 OFFCURVE",
"654 -342 CURVE",
"635 -320 LINE"
);
}
);
width = 1078;
}
);
unicode = 0104;
},
{
glyphname = AE;
lastChange = "2020-06-08 16:15:56 +0000";
layers = (
{
anchors = (
{
name = bottom;
position = "{786, 0}";
},
{
name = top;
position = "{894, 1155}";
}
);
layerId = "6B6AD122-EF8D-49FE-8C69-4BDE8C56BDD8";
paths = (
{
closed = 1;
nodes = (
"157 0 LINE",
"175 60 LINE",
"164 79 LINE SMOOTH",
"147 108 OFFCURVE",
"175 171 OFFCURVE",
"235 248 CURVE SMOOTH",
"339 383 LINE",
"681 383 LINE",
"664 255 LINE SMOOTH",
"653 174 OFFCURVE",
"642 135 OFFCURVE",
"614 102 CURVE SMOOTH",
"583 65 LINE",
"585 0 LINE",
"1360 0 LINE",
"1448 237 LINE",
"1386 274 LINE",
"1374 274 LINE",
"1301 215 LINE SMOOTH",
"1221 150 OFFCURVE",
"1128 122 OFFCURVE",
"985 122 CURVE SMOOTH",
"881 122 LINE",
"1005 1034 LINE",
"1166 1034 LINE SMOOTH",
"1261 1034 OFFCURVE",
"1329 1019 OFFCURVE",
"1362 948 CURVE SMOOTH",
"1391 886 LINE",
"1400 886 LINE",
"1470 909 LINE",
"1522 1155 LINE",
"782 1155 LINE",
"87 239 LINE SMOOTH",
"53 194 OFFCURVE",
"13 141 OFFCURVE",
"-31 99 CURVE SMOOTH",
"-71 60 LINE",
"-68 0 LINE"
);
},
{
closed = 1;
nodes = (
"762 948 LINE",
"698 503 LINE",
"428 503 LINE"
);
},
{
closed = 1;
nodes = (
"917 520 LINE",
"1025 520 LINE SMOOTH",
"1109 520 OFFCURVE",
"1168 514 OFFCURVE",
"1237 439 CURVE",
"1298 442 LINE",
"1350 689 LINE",
"1285 713 LINE",
"1222 672 OFFCURVE",
"1167 634 OFFCURVE",
"1074 634 CURVE SMOOTH",
"943 634 LINE"
);
}
);
width = 1536;
},
{
anchors = (
{
name = bottom;
position = "{674, 0}";
},
{
name = top;
position = "{936, 1155}";
}
);
background = {
hints = (
{
origin = "{3, 1}";
type = Corner;
name = _corner.CapRightSerif;
},
{
origin = "{3, 2}";
type = Corner;
name = _corner.CapLeftSerif;
},
{
origin = "{3, 12}";
type = Corner;
name = _corner.CapLeftSerif;
},
{
origin = "{3, 13}";
type = Corner;
name = _corner.CapRightSerif;
}
);
paths = (
{
closed = 1;
nodes = (
"585 523 LINE",
"237 523 LINE",
"202 413 LINE",
"627 413 LINE"
);
},
{
closed = 1;
nodes = (
"490 1185 LINE",
"364 1185 LINE",
"392 992 LINE",
"716 188 LINE SMOOTH",
"746 113 OFFCURVE",
"719 80 OFFCURVE",
"636 50 CURVE",
"631 41 LINE",
"638 0 LINE",
"1018 0 LINE",
"1021 43 LINE",
"1017 52 LINE",
"973 76 OFFCURVE",
"922 122 OFFCURVE",
"896 186 CURVE SMOOTH",
"491 1185 LINE"
);
},
{
closed = 1;
nodes = (
"364 1185 LINE",
"11 186 LINE SMOOTH",
"-15 113 OFFCURVE",
"-58 76 OFFCURVE",
"-102 50 CURVE",
"-106 41 LINE",
"-102 0 LINE",
"218 0 LINE",
"222 41 LINE",
"219 48 LINE",
"134 79 OFFCURVE",
"110 112 OFFCURVE",
"136 188 CURVE SMOOTH",
"413 992 LINE"
);
},
{
closed = 1;
nodes = (
"1900 1155 LINE",
"1240 1155 LINE",
"1240 0 LINE",
"1930 0 LINE",
"1980 362 LINE",
"1930 373 LINE",
"1922 369 LINE",
"1847 163 OFFCURVE",
"1758 107 OFFCURVE",
"1652 107 CURVE SMOOTH",
"1400 106 LINE",
"1400 526 LINE",
"1781 526 LINE",
"1781 628 LINE",
"1400 628 LINE",
"1400 1049 LINE",
"1714 1049 LINE SMOOTH",
"1779 1049 OFFCURVE",
"1830 1002 OFFCURVE",
"1852 840 CURVE",
"1859 836 LINE",
"1911 843 LINE",
"1911 1145 LINE"
);
}
);
};
layerId = "CFF67ECA-3B2D-433B-B605-F38590C8F106";
paths = (
{
closed = 1;
nodes = (
"244 0 LINE",
"248 46 LINE",
"171 77 OFFCURVE",
"153 113 OFFCURVE",
"210 183 CURVE SMOOTH",
"397 413 LINE",
"754 413 LINE",
"718 170 LINE SMOOTH",
"709 111 OFFCURVE",
"671 78 OFFCURVE",
"593 52 CURVE",
"589 0 LINE",
"1347 0 LINE",
"1462 348 LINE",
"1412 359 LINE",
"1402 355 LINE",
"1347 268 LINE SMOOTH",
"1265 139 OFFCURVE",
"1175 107 OFFCURVE",
"1086 107 CURVE SMOOTH",
"857 107 LINE",
"999 1049 LINE",
"1295 1049 LINE SMOOTH",
"1371 1049 OFFCURVE",
"1416 1032 OFFCURVE",
"1415 950 CURVE SMOOTH",
"1414 840 LINE",
"1420 836 LINE",
"1472 843 LINE",
"1534 1145 LINE",
"1525 1155 LINE",
"865 1155 LINE",
"86 191 LINE SMOOTH",
"32 124 OFFCURVE",
"-20 79 OFFCURVE",
"-70 52 CURVE",
"-76 0 LINE"
);
},
{
closed = 1;
nodes = (
"840 964 LINE",
"771 523 LINE",
"485 523 LINE"
);
},
{
closed = 1;
nodes = (
"1207 530 OFFCURVE",
"1229 500 OFFCURVE",
"1226 387 CURVE",
"1280 387 LINE",
"1364 764 LINE",
"1310 764 LINE",
"1268 663 OFFCURVE",
"1230 624 OFFCURVE",
"1180 624 CURVE SMOOTH",
"923 624 LINE",
"902 530 LINE",
"1159 530 LINE SMOOTH"
);
}
);
width = 1522;
},
{
anchors = (
{
name = bottom;
position = "{807, 0}";
},
{
name = top;
position = "{993, 1155}";
}
);
background = {
hints = (
{
origin = "{2, 1}";
type = Corner;
name = _corner.CapLeftSerif;
},
{
origin = "{2, 2}";
type = Corner;
name = _corner.CapRightSerif;
}
);
paths = (
{
closed = 1;
nodes = (
"952 523 LINE",
"604 523 LINE",
"569 413 LINE",
"994 413 LINE"
);
},
{
closed = 1;
nodes = (
"911 1155 LINE",
"339 186 LINE SMOOTH",
"299 118 OFFCURVE",
"257 76 OFFCURVE",
"213 50 CURVE",
"209 41 LINE",
"213 0 LINE",
"533 0 LINE",
"537 41 LINE",
"534 48 LINE",
"449 79 OFFCURVE",
"423 118 OFFCURVE",
"464 188 CURVE SMOOTH",
"952 1014 LINE"
);
},
{
closed = 1;
nodes = (
"1083 526 LINE",
"1462 526 LINE",
"1462 628 LINE",
"1083 628 LINE"
);
},
{
closed = 1;
nodes = (
"1686 362 LINE",
"1636 373 LINE",
"1628 369 LINE",
"1583 262 LINE SMOOTH",
"1528 132 OFFCURVE",
"1447 107 OFFCURVE",
"1358 107 CURVE SMOOTH",
"1124 106 LINE",
"1066 1049 LINE",
"1357 1049 LINE SMOOTH",
"1433 1049 OFFCURVE",
"1485 1026 OFFCURVE",
"1502 944 CURVE SMOOTH",
"1523 840 LINE",
"1530 836 LINE",
"1582 843 LINE",
"1582 1145 LINE",
"1571 1155 LINE",
"911 1155 LINE",
"971 164 LINE SMOOTH",
"975 105 OFFCURVE",
"949 76 OFFCURVE",
"876 50 CURVE",
"871 41 LINE",
"878 0 LINE",
"1636 0 LINE"
);
}
);
};
layerId = "34301EF7-A2BE-469F-9697-D6100B11FDFE";
paths = (
{
closed = 1;
nodes = (
"260 0 LINE",
"268 38 LINE",
"218 46 LINE SMOOTH",
"163 55 OFFCURVE",
"174 120 OFFCURVE",
"248 215 CURVE SMOOTH",
"436 456 LINE",
"810 456 LINE",
"766 159 LINE SMOOTH",
"755 83 OFFCURVE",
"718 53 OFFCURVE",
"662 46 CURVE SMOOTH",
"593 37 LINE",
"586 0 LINE",
"1368 0 LINE",
"1469 236 LINE",
"1438 247 LINE",
"1429 244 LINE",
"1395 194 LINE SMOOTH",
"1331 100 OFFCURVE",
"1277 64 OFFCURVE",
"1148 64 CURVE SMOOTH",
"876 64 LINE",
"1020 1091 LINE",
"1328 1091 LINE SMOOTH",
"1453 1091 OFFCURVE",
"1486 1062 OFFCURVE",
"1483 966 CURVE SMOOTH",
"1481 899 LINE",
"1486 893 LINE",
"1520 898 LINE",
"1565 1155 LINE",
"913 1155 LINE",
"154 194 LINE SMOOTH",
"86 108 OFFCURVE",
"20 64 OFFCURVE",
"-20 52 CURVE SMOOTH",
"-67 38 LINE",
"-71 0 LINE"
);
},
{
closed = 1;
nodes = (
"897 1039 LINE",
"820 520 LINE",
"487 520 LINE"
);
},
{
closed = 1;
nodes = (
"922 530 LINE",
"1216 530 LINE SMOOTH",
"1284 530 OFFCURVE",
"1304 475 OFFCURVE",
"1294 367 CURVE",
"1323 367 LINE",
"1407 761 LINE",
"1379 761 LINE",
"1340 653 OFFCURVE",
"1299 594 OFFCURVE",
"1217 594 CURVE SMOOTH",
"935 594 LINE"
);
}
);
width = 1523;
}
);
leftMetricsKey = A;
rightMetricsKey = E;
unicode = 00C6;
},
{
glyphname = B;
lastChange = "2020-06-08 15:46:55 +0000";
layers = (
{
background = {
hints = (
{
origin = "{0, 0}";
type = Corner;
name = _corner.CapRightSerif;
},
{
origin = "{0, 1}";
type = Corner;
name = _corner.CapLeftSerif;
},
{
origin = "{0, 2}";
type = Corner;
name = _corner.CapRightSerif;
},
{
origin = "{0, 3}";
type = Corner;
name = _corner.CapLeftSerif;
}
);
paths = (
{
closed = 1;
nodes = (
"263 0 LINE",
"509 1155 LINE",
"283 1155 LINE",
"37 0 LINE"
);
}
);
};
hints = (
{
origin = "{0, 14}";
scale = "{0.96, 0.96}";
type = Corner;
name = _corner.CapRightSerif;
},
{
origin = "{0, 15}";
scale = "{0.96, 0.96}";
type = Corner;
name = _corner.CapLeftSerif;
}
);
layerId = "6B6AD122-EF8D-49FE-8C69-4BDE8C56BDD8";
paths = (
{
closed = 1;
nodes = (
"410 0 LINE SMOOTH",
"691 0 OFFCURVE",
"871 87 OFFCURVE",
"913 285 CURVE SMOOTH",
"939 407 OFFCURVE",
"926 548 OFFCURVE",
"716 585 CURVE",
"732 595 LINE",
"876 644 OFFCURVE",
"947 738 OFFCURVE",
"970 845 CURVE SMOOTH",
"1000 986 OFFCURVE",
"930 1153 OFFCURVE",
"655 1155 CURVE SMOOTH",
"285 1155 LINE",
"39 0 LINE"
);
},
{
closed = 1;
nodes = (
"303 114 OFFCURVE",
"295 129 OFFCURVE",
"304 175 CURVE SMOOTH",
"375 520 LINE",
"445 526 OFFCURVE",
"485 526 OFFCURVE",
"493 526 CURVE SMOOTH",
"644 526 OFFCURVE",
"714 449 OFFCURVE",
"689 331 CURVE SMOOTH",
"668 232 OFFCURVE",
"588 114 OFFCURVE",
"423 114 CURVE SMOOTH",
"354 114 LINE SMOOTH"
);
},
{
closed = 1;
nodes = (
"481 639 OFFCURVE",
"441 639 OFFCURVE",
"398 644 CURVE",
"488 1040 LINE",
"584 1040 LINE SMOOTH",
"738 1040 OFFCURVE",
"759 937 OFFCURVE",
"741 850 CURVE SMOOTH",
"723 765 OFFCURVE",
"655 639 OFFCURVE",
"490 639 CURVE SMOOTH"
);
}
);
width = 991;
},
{
background = {
hints = (
{
origin = "{0, 0}";
scale = "{0.74227, 0.74227}";
type = Corner;
name = _corner.CapRightSerif;
},
{
origin = "{0, 1}";
scale = "{0.74227, 0.74227}";
type = Corner;
name = _corner.CapLeftSerif;
},
{
origin = "{0, 2}";
scale = "{0.74227, 0.74227}";
type = Corner;
name = _corner.CapRightSerif;
},
{
origin = "{0, 3}";
scale = "{0.74227, 0.74227}";
type = Corner;
name = _corner.CapLeftSerif;
}
);
paths = (
{
closed = 1;
nodes = (
"218 0 LINE",
"464 1155 LINE",
"364 1155 LINE",
"118 0 LINE"
);
}
);
};
hints = (
{
origin = "{0, 14}";
scale = "{0.742, 0.742}";
type = Corner;
name = _corner.CapRightSerif;
},
{
origin = "{0, 15}";
scale = "{0.742, 0.742}";
type = Corner;
name = _corner.CapLeftSerif;
}
);
layerId = "34301EF7-A2BE-469F-9697-D6100B11FDFE";
paths = (
{
closed = 1;
nodes = (
"427 0 LINE SMOOTH",
"706 0 OFFCURVE",
"887 126 OFFCURVE",
"887 336 CURVE SMOOTH",
"887 460 OFFCURVE",
"825 550 OFFCURVE",
"669 587 CURVE",
"669 591 LINE",
"831 655 OFFCURVE",
"935 783 OFFCURVE",
"935 926 CURVE SMOOTH",
"935 1052 OFFCURVE",
"854 1155 OFFCURVE",
"670 1155 CURVE SMOOTH",
"364 1155 LINE",
"118 0 LINE"
);
},
{
closed = 1;
nodes = (
"252 56 OFFCURVE",
"239 102 OFFCURVE",
"253 165 CURVE SMOOTH",
"336 552 LINE",
"388 555 OFFCURVE",
"439 555 OFFCURVE",
"481 555 CURVE SMOOTH",
"725 555 OFFCURVE",
"787 459 OFFCURVE",
"787 351 CURVE SMOOTH",
"787 189 OFFCURVE",
"659 56 OFFCURVE",
"444 56 CURVE SMOOTH",
"315 56 LINE SMOOTH"
);
},
{
closed = 1;
nodes = (
"462 605 OFFCURVE",
"402 605 OFFCURVE",
"348 611 CURVE",
"453 1099 LINE",
"638 1099 LINE SMOOTH",
"784 1099 OFFCURVE",
"828 1022 OFFCURVE",
"828 930 CURVE SMOOTH",
"828 757 OFFCURVE",
"679 605 OFFCURVE",
"488 605 CURVE SMOOTH"
);
}
);
width = 955;
},
{
background = {
hints = (
{
origin = "{0, 0}";
type = Corner;
name = _corner.CapRightSerif;
options = 1;
},
{
origin = "{0, 1}";
scale = "{0.85, 1}";
type = Corner;
name = _corner.CapLeftSerif;
},
{
origin = "{0, 2}";
type = Corner;
name = _corner.CapRightSerif;
options = 1;
},
{
origin = "{0, 3}";
scale = "{0.85, 1}";
type = Corner;
name = _corner.CapLeftSerif;
}
);
paths = (
{
closed = 1;
nodes = (
"248 0 LINE",
"494 1155 LINE",
"344 1155 LINE",
"98 0 LINE"
);
}
);
};
hints = (
{
origin = "{0, 15}";
scale = "{0.75, 1}";
type = Corner;
name = _corner.CapLeftSerif;
},
{
origin = "{0, 14}";
type = Corner;
name = _corner.CapRightSerif;
options = 1;
}
);
layerId = "CFF67ECA-3B2D-433B-B605-F38590C8F106";
paths = (
{
closed = 1;
nodes = (
"483 0 LINE SMOOTH",
"707 0 OFFCURVE",
"910 159 OFFCURVE",
"910 364 CURVE SMOOTH",
"910 475 OFFCURVE",
"849 568 OFFCURVE",
"677 588 CURVE",
"689 593 LINE",
"848 651 OFFCURVE",
"959 780 OFFCURVE",
"959 936 CURVE SMOOTH",
"959 1055 OFFCURVE",
"886 1153 OFFCURVE",
"684 1154 CURVE SMOOTH",
"344 1155 LINE",
"98 0 LINE"
);
},
{
closed = 1;
nodes = (
"308 92 OFFCURVE",
"285 103 OFFCURVE",
"285 147 CURVE SMOOTH",
"285 160 OFFCURVE",
"287 175 OFFCURVE",
"291 194 CURVE SMOOTH",
"362 538 LINE",
"409 539 OFFCURVE",
"438 538 OFFCURVE",
"453 538 CURVE SMOOTH",
"695 538 OFFCURVE",
"750 467 OFFCURVE",
"750 369 CURVE SMOOTH",
"750 197 OFFCURVE",
"608 92 OFFCURVE",
"407 92 CURVE SMOOTH",
"334 92 LINE SMOOTH"
);
},
{
closed = 1;
nodes = (
"502 641 OFFCURVE",
"491 640 OFFCURVE",
"479 640 CURVE SMOOTH",
"456 640 OFFCURVE",
"426 642 OFFCURVE",
"385 649 CURVE",
"486 1117 LINE",
"405 1062 LINE",
"603 1062 LINE SMOOTH",
"734 1062 OFFCURVE",
"803 1005 OFFCURVE",
"803 902 CURVE SMOOTH",
"803 758 OFFCURVE",
"680 646 OFFCURVE",
"511 641 CURVE SMOOTH"
);
}
);
width = 986;
}
);
leftMetricsKey = H;
unicode = 0042;
},
{
glyphname = C;
lastChange = "2020-06-08 16:09:26 +0000";
layers = (
{
anchors = (
{
name = bottom;
position = "{508, 0}";
},
{
name = top;
position = "{789, 1155}";
}
);
background = {
paths = (
{
closed = 1;
nodes = (
"761 -30 OFFCURVE",
"899 -6 OFFCURVE",
"1027 39 CURVE",
"1049 357 LINE",
"991 361 LINE",
"951 225 OFFCURVE",
"873 74 OFFCURVE",
"679 74 CURVE SMOOTH",
"427 74 OFFCURVE",
"279 317 OFFCURVE",
"279 613 CURVE SMOOTH",
"279 882 OFFCURVE",
"414 1076 OFFCURVE",
"639 1076 CURVE SMOOTH",
"825 1076 OFFCURVE",
"901 947 OFFCURVE",
"931 811 CURVE",
"987 815 LINE",
"987 1132 LINE",
"880 1167 OFFCURVE",
"768 1185 OFFCURVE",
"684 1185 CURVE SMOOTH",
"373 1185 OFFCURVE",
"107 948 OFFCURVE",
"107 572 CURVE SMOOTH",
"107 245 OFFCURVE",
"306 -30 OFFCURVE",
"656 -30 CURVE SMOOTH"
);
}
);
};
layerId = "6B6AD122-EF8D-49FE-8C69-4BDE8C56BDD8";
paths = (
{
closed = 1;
nodes = (
"726 -30 OFFCURVE",
"882 56 OFFCURVE",
"987 140 CURVE",
"986 168 LINE",
"955 220 LINE",
"934 227 LINE",
"847 162 OFFCURVE",
"705 110 OFFCURVE",
"595 110 CURVE SMOOTH",
"381 110 OFFCURVE",
"316 301 OFFCURVE",
"377 589 CURVE SMOOTH",
"434 857 OFFCURVE",
"577 1056 OFFCURVE",
"770 1056 CURVE SMOOTH",
"920 1056 OFFCURVE",
"971 938 OFFCURVE",
"984 832 CURVE",
"1073 827 LINE",
"1132 1133 LINE",
"1032 1166 OFFCURVE",
"934 1185 OFFCURVE",
"845 1185 CURVE SMOOTH",
"525 1185 OFFCURVE",
"214 956 OFFCURVE",
"133 573 CURVE SMOOTH",
"57 217 OFFCURVE",
"214 -30 OFFCURVE",
"531 -30 CURVE SMOOTH"
);
}
);
width = 1131;
},
{
anchors = (
{
name = bottom;
position = "{552, 0}";
},
{
name = top;
position = "{776, 1155}";
}
);
background = {
paths = (
{
closed = 1;
nodes = (
"958 -30 OFFCURVE",
"1209 202 OFFCURVE",
"1209 578 CURVE SMOOTH",
"1209 943 OFFCURVE",
"958 1185 OFFCURVE",
"653 1185 CURVE SMOOTH",
"348 1185 OFFCURVE",
"95 943 OFFCURVE",
"95 578 CURVE SMOOTH",
"95 202 OFFCURVE",
"348 -30 OFFCURVE",
"653 -30 CURVE SMOOTH"
);
},
{
closed = 1;
nodes = (
"423 35 OFFCURVE",
"233 239 OFFCURVE",
"233 578 CURVE SMOOTH",
"233 926 OFFCURVE",
"423 1120 OFFCURVE",
"653 1120 CURVE SMOOTH",
"882 1120 OFFCURVE",
"1071 926 OFFCURVE",
"1071 578 CURVE SMOOTH",
"1071 239 OFFCURVE",
"882 35 OFFCURVE",
"653 35 CURVE SMOOTH"
);
}
);
};
layerId = "34301EF7-A2BE-469F-9697-D6100B11FDFE";
paths = (
{
closed = 1;
nodes = (
"1004 210 LINE",
"981 225 LINE",
"967 229 LINE",
"886 144 OFFCURVE",
"777 40 OFFCURVE",
"604 40 CURVE SMOOTH",
"389 40 OFFCURVE",
"229 196 OFFCURVE",
"229 456 CURVE SMOOTH",
"229 762 OFFCURVE",
"444 1130 OFFCURVE",
"771 1130 CURVE SMOOTH",
"968 1130 OFFCURVE",
"1043 1001 OFFCURVE",
"1023 746 CURVE",
"1064 741 LINE",
"1130 1063 LINE",
"1059 1128 OFFCURVE",
"926 1185 OFFCURVE",
"786 1185 CURVE SMOOTH",
"408 1185 OFFCURVE",
"123 788 OFFCURVE",
"123 419 CURVE SMOOTH",
"123 153 OFFCURVE",
"274 -30 OFFCURVE",
"556 -30 CURVE SMOOTH",
"776 -30 OFFCURVE",
"917 93 OFFCURVE",
"1002 192 CURVE"
);
}
);
width = 1104;
},
{
anchors = (
{
name = bottom;
position = "{515, 0}";
},
{
name = top;
position = "{766, 1185}";
}
);
layerId = "CFF67ECA-3B2D-433B-B605-F38590C8F106";
paths = (
{
closed = 1;
nodes = (
"722 -30 OFFCURVE",
"894 78 OFFCURVE",
"981 172 CURVE",
"981 193 LINE",
"950 220 LINE",
"934 225 LINE",
"843 140 OFFCURVE",
"705 87 OFFCURVE",
"586 87 CURVE SMOOTH",
"339 87 OFFCURVE",
"211 311 OFFCURVE",
"273 600 CURVE SMOOTH",
"331 876 OFFCURVE",
"514 1076 OFFCURVE",
"743 1076 CURVE SMOOTH",
"925 1076 OFFCURVE",
"971 953 OFFCURVE",
"972 817 CURVE",
"1026 815 LINE",
"1089 1130 LINE",
"989 1165 OFFCURVE",
"881 1185 OFFCURVE",
"792 1185 CURVE SMOOTH",
"486 1185 OFFCURVE",
"186 954 OFFCURVE",
"107 585 CURVE SMOOTH",
"36 251 OFFCURVE",
"177 -30 OFFCURVE",
"521 -30 CURVE SMOOTH"
);
}
);
width = 1084;
},
{
associatedMasterId = "6B6AD122-EF8D-49FE-8C69-4BDE8C56BDD8";
background = {
paths = (
{
closed = 1;
nodes = (
"752 -30 OFFCURVE",
"890 -6 OFFCURVE",
"1018 39 CURVE",
"1040 357 LINE",
"982 361 LINE",
"942 225 OFFCURVE",
"864 74 OFFCURVE",
"670 74 CURVE SMOOTH",
"418 74 OFFCURVE",
"270 317 OFFCURVE",
"270 613 CURVE SMOOTH",
"270 882 OFFCURVE",
"405 1076 OFFCURVE",
"630 1076 CURVE SMOOTH",
"816 1076 OFFCURVE",
"892 947 OFFCURVE",
"922 811 CURVE",
"978 815 LINE",
"978 1132 LINE",
"871 1167 OFFCURVE",
"759 1185 OFFCURVE",
"675 1185 CURVE SMOOTH",
"364 1185 OFFCURVE",
"98 948 OFFCURVE",
"98 572 CURVE SMOOTH",
"98 245 OFFCURVE",
"297 -30 OFFCURVE",
"647 -30 CURVE SMOOTH"
);
}
);
};
layerId = "237218DF-9A81-44D9-9AAA-8EF1C2253B49";
name = "Bold [100]";
paths = (
{
closed = 1;
nodes = (
"640 -30 OFFCURVE",
"779 -17 OFFCURVE",
"929 24 CURVE",
"1004 316 LINE",
"902 329 LINE",
"829 223 OFFCURVE",
"716 82 OFFCURVE",
"569 82 CURVE SMOOTH",
"385 82 OFFCURVE",
"310 301 OFFCURVE",
"374 605 CURVE SMOOTH",
"428 857 OFFCURVE",
"554 1059 OFFCURVE",
"747 1059 CURVE SMOOTH",
"897 1059 OFFCURVE",
"958 938 OFFCURVE",
"971 832 CURVE",
"1060 827 LINE",
"1119 1133 LINE",
"1019 1166 OFFCURVE",
"921 1185 OFFCURVE",
"832 1185 CURVE SMOOTH",
"512 1185 OFFCURVE",
"215 956 OFFCURVE",
"133 569 CURVE SMOOTH",
"58 217 OFFCURVE",
"200 -30 OFFCURVE",
"557 -30 CURVE SMOOTH"
);
}
);
width = 1077;
},
{
associatedMasterId = "CFF67ECA-3B2D-433B-B605-F38590C8F106";
layerId = "614C584E-0323-4BC8-9D45-01042F1CCA73";
name = "Regular [100]";
paths = (
{
closed = 1;
nodes = (
"622 -35 OFFCURVE",
"774 -8 OFFCURVE",
"911 37 CURVE",
"997 357 LINE",
"940 367 LINE",
"871 231 OFFCURVE",
"736 71 OFFCURVE",
"537 71 CURVE SMOOTH",
"290 71 OFFCURVE",
"208 311 OFFCURVE",
"267 588 CURVE SMOOTH",
"328 876 OFFCURVE",
"511 1077 OFFCURVE",
"740 1077 CURVE SMOOTH",
"922 1077 OFFCURVE",
"977 953 OFFCURVE",
"978 817 CURVE",
"1032 815 LINE",
"1094 1117 LINE",
"995 1165 OFFCURVE",
"887 1185 OFFCURVE",
"798 1185 CURVE SMOOTH",
"492 1185 OFFCURVE",
"186 954 OFFCURVE",
"106 578 CURVE SMOOTH",
"36 251 OFFCURVE",
"167 -35 OFFCURVE",
"519 -35 CURVE SMOOTH"
);
}
);
width = 1064;
},
{
associatedMasterId = "34301EF7-A2BE-469F-9697-D6100B11FDFE";
background = {
paths = (
{
closed = 1;
nodes = (
"872 -30 OFFCURVE",
"1123 202 OFFCURVE",
"1123 578 CURVE SMOOTH",
"1123 943 OFFCURVE",
"872 1185 OFFCURVE",
"567 1185 CURVE SMOOTH",
"262 1185 OFFCURVE",
"9 943 OFFCURVE",
"9 578 CURVE SMOOTH",
"9 202 OFFCURVE",
"262 -30 OFFCURVE",
"567 -30 CURVE SMOOTH"
);
},
{
closed = 1;
nodes = (
"337 35 OFFCURVE",
"147 239 OFFCURVE",
"147 578 CURVE SMOOTH",
"147 926 OFFCURVE",
"337 1120 OFFCURVE",
"567 1120 CURVE SMOOTH",
"796 1120 OFFCURVE",
"985 926 OFFCURVE",
"985 578 CURVE SMOOTH",
"985 239 OFFCURVE",
"796 35 OFFCURVE",
"567 35 CURVE SMOOTH"
);
}
);
};
layerId = "353A245F-4D43-4177-A84B-F26CD46731DB";
name = "Light [100]";
paths = (
{
closed = 1;
nodes = (
"315 28 OFFCURVE",
"200 276 OFFCURVE",
"263 574 CURVE SMOOTH",
"330 887 OFFCURVE",
"573 1125 OFFCURVE",
"831 1125 CURVE SMOOTH",
"1001 1125 OFFCURVE",
"1093 1029 OFFCURVE",
"1062 766 CURVE",
"1103 761 LINE",
"1169 1083 LINE",
"1098 1148 OFFCURVE",
"985 1185 OFFCURVE",
"867 1185 CURVE SMOOTH",
"538 1185 OFFCURVE",
"215 927 OFFCURVE",
"137 561 CURVE SMOOTH",
"70 246 OFFCURVE",
"203 -30 OFFCURVE",
"570 -30 CURVE SMOOTH",
"711 -30 OFFCURVE",
"884 7 OFFCURVE",
"982 72 CURVE",
"1066 400 LINE",
"1025 405 LINE",
"931 142 OFFCURVE",
"785 28 OFFCURVE",
"599 28 CURVE SMOOTH"
);
}
);
width = 1104;
}
);
leftMetricsKey = O;
unicode = 0043;
},
{
glyphname = D;
lastChange = "2020-06-08 16:09:33 +0000";
layers = (
{
anchors = (
{
name = bottom;
position = "{487, 0}";
},
{
name = center;
position = "{618, 618}";
},
{
name = top;
position = "{642, 1155}";
}
);
background = {
hints = (
{
origin = "{0, 0}";
type = Corner;
name = _corner.CapRightSerif;
},
{
origin = "{0, 1}";
type = Corner;
name = _corner.CapLeftSerif;
},
{
origin = "{0, 2}";
type = Corner;
name = _corner.CapRightSerif;
},
{
origin = "{0, 3}";
type = Corner;
name = _corner.CapLeftSerif;
}
);
paths = (
{
closed = 1;
nodes = (
"266 0 LINE",
"512 1155 LINE",
"286 1155 LINE",
"40 0 LINE"
);
},
{
closed = 1;
nodes = (
"916 1042 LINE",
"943 1155 LINE",
"302 1155 LINE",
"275 1042 LINE"
);
}
);
};
hints = (
{
origin = "{0, 7}";
scale = "{0.96, 0.96}";
type = Corner;
name = _corner.CapRightSerif;
},
{
origin = "{0, 8}";
scale = "{0.96, 0.96}";
type = Corner;
name = _corner.CapLeftSerif;
}
);
layerId = "6B6AD122-EF8D-49FE-8C69-4BDE8C56BDD8";
paths = (
{
closed = 1;
nodes = (
"376 0 LINE SMOOTH",
"745 0 OFFCURVE",
"1009 223 OFFCURVE",
"1083 571 CURVE SMOOTH",
"1142 846 OFFCURVE",
"1070 1155 OFFCURVE",
"642 1155 CURVE SMOOTH",
"285 1155 LINE",
"39 0 LINE"
);
},
{
closed = 1;
nodes = (
"311 119 OFFCURVE",
"293 127 OFFCURVE",
"305 183 CURVE SMOOTH",
"488 1041 LINE",
"568 1041 LINE SMOOTH",
"844 1041 OFFCURVE",
"891 805 OFFCURVE",
"841 570 CURVE SMOOTH",
"778 275 OFFCURVE",
"601 119 OFFCURVE",
"432 119 CURVE SMOOTH",
"362 119 LINE SMOOTH"
);
}
);
width = 1149;
},
{
anchors = (
{
name = bottom;
position = "{513, 0}";
},
{
name = center;
position = "{645, 618}";
},
{
name = top;
position = "{675, 1155}";
}
);
background = {
hints = (
{
origin = "{0, 14}";
scale = "{0.67479, 0.67479}";
type = Corner;
name = _corner.CapRightSerif;
},
{
origin = "{0, 15}";
scale = "{0.67479, 0.67479}";
type = Corner;
name = _corner.CapLeftSerif;
}
);
paths = (
{
closed = 1;
nodes = (
"428 0 LINE SMOOTH",
"707 0 OFFCURVE",
"888 126 OFFCURVE",
"888 336 CURVE SMOOTH",
"888 460 OFFCURVE",
"826 550 OFFCURVE",
"670 587 CURVE",
"670 591 LINE",
"832 655 OFFCURVE",
"936 783 OFFCURVE",
"936 926 CURVE SMOOTH",
"936 1052 OFFCURVE",
"855 1155 OFFCURVE",
"671 1155 CURVE SMOOTH",
"365 1155 LINE",
"119 0 LINE"
);
},
{
closed = 1;
nodes = (
"253 56 OFFCURVE",
"240 102 OFFCURVE",
"254 165 CURVE SMOOTH",
"337 552 LINE",
"389 555 OFFCURVE",
"440 555 OFFCURVE",
"482 555 CURVE SMOOTH",
"726 555 OFFCURVE",
"788 459 OFFCURVE",
"788 351 CURVE SMOOTH",
"788 189 OFFCURVE",
"660 56 OFFCURVE",
"445 56 CURVE SMOOTH",
"316 56 LINE SMOOTH"
);
},
{
closed = 1;
nodes = (
"463 605 OFFCURVE",
"403 605 OFFCURVE",
"349 611 CURVE",
"454 1099 LINE",
"639 1099 LINE SMOOTH",
"785 1099 OFFCURVE",
"829 1022 OFFCURVE",
"829 930 CURVE SMOOTH",
"829 757 OFFCURVE",
"680 605 OFFCURVE",
"489 605 CURVE SMOOTH"
);
}
);
};
hints = (
{
origin = "{0, 7}";
scale = "{0.74227, 0.74227}";
type = Corner;
name = _corner.CapRightSerif;
},
{
origin = "{0, 8}";
scale = "{0.74227, 0.74227}";
type = Corner;
name = _corner.CapLeftSerif;
}
);
layerId = "34301EF7-A2BE-469F-9697-D6100B11FDFE";
paths = (
{
closed = 1;
nodes = (
"455 0 LINE SMOOTH",
"817 0 OFFCURVE",
"1063 252 OFFCURVE",
"1131 575 CURVE SMOOTH",
"1205 920 OFFCURVE",
"1057 1155 OFFCURVE",
"675 1155 CURVE SMOOTH",
"364 1155 LINE",
"118 0 LINE"
);
},
{
closed = 1;
nodes = (
"298 55 OFFCURVE",
"233 64 OFFCURVE",
"250 146 CURVE SMOOTH",
"453 1099 LINE",
"669 1099 LINE SMOOTH",
"1000 1099 OFFCURVE",
"1074 845 OFFCURVE",
"1020 593 CURVE SMOOTH",
"957 299 OFFCURVE",
"762 55 OFFCURVE",
"461 55 CURVE SMOOTH",
"340 55 LINE SMOOTH"
);
}
);
width = 1185;
},
{
anchors = (
{
name = bottom;
position = "{480, 0}";
},
{
name = center;
position = "{611, 618}";
},
{
name = top;
position = "{666, 1155}";
}
);
background = {
hints = (
{
origin = "{0, 14}";
type = Corner;
name = _corner.CapRightSerif;
options = 1;
},
{
origin = "{0, 15}";
scale = "{0.75, 1}";
type = Corner;
name = _corner.CapLeftSerif;
}
);
paths = (
{
closed = 1;
nodes = (
"479 0 LINE SMOOTH",
"703 0 OFFCURVE",
"906 159 OFFCURVE",
"906 364 CURVE SMOOTH",
"906 475 OFFCURVE",
"845 568 OFFCURVE",
"673 588 CURVE",
"685 593 LINE",
"844 651 OFFCURVE",
"955 780 OFFCURVE",
"955 936 CURVE SMOOTH",
"955 1055 OFFCURVE",
"882 1153 OFFCURVE",
"680 1154 CURVE SMOOTH",
"340 1155 LINE",
"94 0 LINE"
);
},
{
closed = 1;
nodes = (
"304 92 OFFCURVE",
"281 103 OFFCURVE",
"281 147 CURVE SMOOTH",
"281 160 OFFCURVE",
"283 175 OFFCURVE",
"287 194 CURVE SMOOTH",
"358 538 LINE",
"405 539 OFFCURVE",
"434 538 OFFCURVE",
"449 538 CURVE SMOOTH",
"691 538 OFFCURVE",
"746 467 OFFCURVE",
"746 369 CURVE SMOOTH",
"746 197 OFFCURVE",
"604 92 OFFCURVE",
"403 92 CURVE SMOOTH",
"330 92 LINE SMOOTH"
);
},
{
closed = 1;
nodes = (
"498 641 OFFCURVE",
"487 640 OFFCURVE",
"475 640 CURVE SMOOTH",
"452 640 OFFCURVE",
"422 642 OFFCURVE",
"381 649 CURVE",
"482 1117 LINE",
"401 1062 LINE",
"599 1062 LINE SMOOTH",
"730 1062 OFFCURVE",
"799 1005 OFFCURVE",
"799 902 CURVE SMOOTH",
"799 758 OFFCURVE",
"676 646 OFFCURVE",
"507 641 CURVE SMOOTH"
);
}
);
};
hints = (
{
origin = "{0, 8}";
scale = "{0.85, 1}";
type = Corner;
name = _corner.CapLeftSerif;
},
{
origin = "{0, 7}";
type = Corner;
name = _corner.CapRightSerif;
options = 1;
}
);
layerId = "CFF67ECA-3B2D-433B-B605-F38590C8F106";
paths = (
{
closed = 1;
nodes = (
"431 0 LINE SMOOTH",
"757 0 OFFCURVE",
"1024 226 OFFCURVE",
"1095 560 CURVE SMOOTH",
"1160 864 OFFCURVE",
"1046 1155 OFFCURVE",
"666 1155 CURVE SMOOTH",
"344 1155 LINE",
"98 0 LINE"
);
},
{
closed = 1;
nodes = (
"302 95 OFFCURVE",
"275 113 OFFCURVE",
"292 196 CURVE SMOOTH",
"485 1118 LINE",
"405 1063 LINE",
"608 1063 LINE SMOOTH",
"923 1063 OFFCURVE",
"987 805 OFFCURVE",
"936 563 CURVE SMOOTH",
"874 274 OFFCURVE",
"674 95 OFFCURVE",
"453 95 CURVE SMOOTH",
"336 95 LINE SMOOTH"
);
}
);
width = 1133;
}
);
leftMetricsKey = H;
rightMetricsKey = O;
unicode = 0044;
},
{
glyphname = Eth;
lastChange = "2020-06-08 11:53:20 +0000";
layers = (
{
components = (
{
name = D;
transform = "{1, 0, 0, 1, 23, 0}";
}
);
layerId = "6B6AD122-EF8D-49FE-8C69-4BDE8C56BDD8";
paths = (
{
closed = 1;
nodes = (
"627 526 LINE",
"638 535 LINE",
"662 671 LINE",
"655 680 LINE",
"75 680 LINE",
"64 671 LINE",
"40 535 LINE",
"47 526 LINE"
);
}
);
width = 1172;
},
{
components = (
{
name = D;
}
);
layerId = "CFF67ECA-3B2D-433B-B605-F38590C8F106";
paths = (
{
closed = 1;
nodes = (
"622 541 LINE",
"633 550 LINE",
"648 641 LINE",
"641 650 LINE",
"96 650 LINE",
"85 641 LINE",
"70 550 LINE",
"77 541 LINE"
);
}
);
width = 1133;
},
{
components = (
{
name = D;
}
);
layerId = "34301EF7-A2BE-469F-9697-D6100B11FDFE";
paths = (
{
closed = 1;
nodes = (
"625 556 LINE",
"636 565 LINE",
"646 621 LINE",
"639 630 LINE",
"99 630 LINE",
"88 621 LINE",
"78 565 LINE",
"85 556 LINE"
);
}
);
width = 1185;
}
);
rightMetricsKey = O;
unicode = 00D0;
},
{
glyphname = E;
lastChange = "2020-06-08 11:52:46 +0000";
layers = (
{
anchors = (
{
name = bottom;
position = "{361, 0}";
},
{
name = ogonek;
position = "{563, 10}";
},
{
name = top;
position = "{642, 1155}";
},
{
name = topleft;
position = "{288, 1155}";
}
);
background = {
hints = (
{
origin = "{0, 7}";
scale = "{0.96, 0.96}";
type = Corner;
name = _corner.CapRightSerif;
},
{
origin = "{0, 8}";
scale = "{0.96, 0.96}";
type = Corner;
name = _corner.CapLeftSerif;
}
);
paths = (
{
closed = 1;
nodes = (
"376 0 LINE SMOOTH",
"745 0 OFFCURVE",
"1009 223 OFFCURVE",
"1083 571 CURVE SMOOTH",
"1142 846 OFFCURVE",
"1070 1155 OFFCURVE",
"642 1155 CURVE SMOOTH",
"285 1155 LINE",
"39 0 LINE"
);
},
{
closed = 1;
nodes = (
"311 119 OFFCURVE",
"293 127 OFFCURVE",
"305 183 CURVE SMOOTH",
"488 1041 LINE",
"568 1041 LINE SMOOTH",
"844 1041 OFFCURVE",
"891 805 OFFCURVE",
"841 570 CURVE SMOOTH",
"778 275 OFFCURVE",
"601 119 OFFCURVE",
"432 119 CURVE SMOOTH",
"362 119 LINE SMOOTH"
);
}
);
};
hints = (
{
origin = "{0, 17}";
type = Corner;
name = _corner.CapRightSerif;
},
{
origin = "{0, 18}";
type = Corner;
name = _corner.CapLeftSerif;
}
);
layerId = "6B6AD122-EF8D-49FE-8C69-4BDE8C56BDD8";
paths = (
{
closed = 1;
nodes = (
"769 0 LINE",
"857 237 LINE",
"795 274 LINE",
"782 274 LINE",
"664 177 OFFCURVE",
"581 119 OFFCURVE",
"392 119 CURVE SMOOTH",
"288 119 LINE",
"486 1039 LINE",
"647 1039 LINE SMOOTH",
"775 1039 OFFCURVE",
"826 988 OFFCURVE",
"872 886 CURVE",
"887 886 LINE",
"950 909 LINE",
"999 1143 LINE",
"991 1155 LINE",
"288 1155 LINE",
"42 0 LINE"
);
},
{
closed = 1;
nodes = (
"740 442 LINE",
"792 689 LINE",
"727 713 LINE",
"664 672 OFFCURVE",
"608 634 OFFCURVE",
"515 634 CURVE SMOOTH",
"385 634 LINE",
"359 520 LINE",
"467 520 LINE SMOOTH",
"551 520 OFFCURVE",
"610 514 OFFCURVE",
"679 439 CURVE"
);
}
);
width = 945;
},
{
anchors = (
{
name = bottom;
position = "{381, 0}";
},
{
name = ogonek;
position = "{583, 10}";
},
{
name = top;
position = "{667, 1155}";
},
{
name = topleft;
position = "{195, 1154}";
}
);
background = {
hints = (
{
origin = "{0, 7}";
type = Corner;
name = _corner.CapRightSerif;
options = 1;
},
{
origin = "{0, 8}";
scale = "{0.85, 1}";
type = Corner;
name = _corner.CapLeftSerif;
}
);
paths = (
{
closed = 1;
nodes = (
"432 0 LINE SMOOTH",
"758 0 OFFCURVE",
"1025 226 OFFCURVE",
"1096 560 CURVE SMOOTH",
"1161 864 OFFCURVE",
"1047 1155 OFFCURVE",
"667 1155 CURVE SMOOTH",
"345 1155 LINE",
"99 0 LINE"
);
},
{
closed = 1;
nodes = (
"303 95 OFFCURVE",
"276 113 OFFCURVE",
"293 196 CURVE SMOOTH",
"486 1118 LINE",
"406 1063 LINE",
"609 1063 LINE SMOOTH",
"924 1063 OFFCURVE",
"988 805 OFFCURVE",
"937 563 CURVE SMOOTH",
"875 274 OFFCURVE",
"675 95 OFFCURVE",
"454 95 CURVE SMOOTH",
"337 95 LINE SMOOTH"
);
}
);
};
hints = (
{
origin = "{0, 17}";
type = Corner;
name = _corner.CapRightSerif;
options = 1;
},
{
origin = "{0, 18}";
scale = "{0.85, 1}";
type = Corner;
name = _corner.CapLeftSerif;
}
);
layerId = "CFF67ECA-3B2D-433B-B605-F38590C8F106";
paths = (
{
closed = 1;
nodes = (
"753 0 LINE",
"879 362 LINE",
"830 373 LINE",
"821 368 LINE",
"703 119 OFFCURVE",
"596 95 OFFCURVE",
"490 95 CURVE SMOOTH",
"272 95 LINE",
"475 1062 LINE",
"744 1062 LINE SMOOTH",
"829 1062 OFFCURVE",
"867 1008 OFFCURVE",
"855 846 CURVE",
"861 836 LINE",
"912 843 LINE",
"975 1145 LINE",
"966 1155 LINE",
"344 1155 LINE",
"98 0 LINE"
);
},
{
closed = 1;
nodes = (
"690 387 LINE",
"774 764 LINE",
"720 764 LINE",
"678 663 OFFCURVE",
"640 624 OFFCURVE",
"590 624 CURVE SMOOTH",
"333 624 LINE",
"312 530 LINE",
"569 530 LINE SMOOTH",
"617 530 OFFCURVE",
"639 500 OFFCURVE",
"636 387 CURVE"
);
}
);
width = 936;
},
{
anchors = (
{
name = bottom;
position = "{463, 46}";
},
{
name = ogonek;
position = "{613, 10}";
},
{
name = top;
position = "{635, 1155}";
},
{
name = topleft;
position = "{364, 1155}";
}
);
background = {
hints = (
{
origin = "{0, 7}";
scale = "{0.74227, 0.74227}";
type = Corner;
name = _corner.CapRightSerif;
},
{
origin = "{0, 8}";
scale = "{0.74227, 0.74227}";
type = Corner;
name = _corner.CapLeftSerif;
}
);
paths = (
{
closed = 1;
nodes = (
"455 0 LINE SMOOTH",
"817 0 OFFCURVE",
"1063 252 OFFCURVE",
"1131 575 CURVE SMOOTH",
"1205 920 OFFCURVE",
"1057 1155 OFFCURVE",
"675 1155 CURVE SMOOTH",
"364 1155 LINE",
"118 0 LINE"
);
},
{
closed = 1;
nodes = (
"298 55 OFFCURVE",
"233 64 OFFCURVE",
"250 146 CURVE SMOOTH",
"453 1099 LINE",
"669 1099 LINE SMOOTH",
"1000 1099 OFFCURVE",
"1074 845 OFFCURVE",
"1020 593 CURVE SMOOTH",
"957 299 OFFCURVE",
"762 55 OFFCURVE",
"461 55 CURVE SMOOTH",
"340 55 LINE SMOOTH"
);
}
);
};
hints = (
{
origin = "{0, 17}";
scale = "{0.74227, 0.74227}";
type = Corner;
name = _corner.CapRightSerif;
},
{
origin = "{0, 18}";
scale = "{0.74227, 0.74227}";
type = Corner;
name = _corner.CapLeftSerif;
}
);
layerId = "34301EF7-A2BE-469F-9697-D6100B11FDFE";
paths = (
{
closed = 1;
nodes = (
"724 0 LINE",
"820 236 LINE",
"789 247 LINE",
"780 242 LINE",
"708 110 OFFCURVE",
"646 55 OFFCURVE",
"503 55 CURVE SMOOTH",
"231 55 LINE",
"453 1098 LINE",
"701 1098 LINE SMOOTH",
"843 1098 OFFCURVE",
"867 1053 OFFCURVE",
"864 932 CURVE",
"872 924 LINE",
"903 926 LINE",
"952 1143 LINE",
"943 1155 LINE",
"364 1155 LINE",
"118 0 LINE"
);
},
{
closed = 1;
nodes = (
"716 367 LINE",
"800 761 LINE",
"772 761 LINE",
"733 653 OFFCURVE",
"692 594 OFFCURVE",
"610 594 CURVE SMOOTH",
"328 594 LINE",
"315 530 LINE",
"609 530 LINE SMOOTH",
"677 530 OFFCURVE",
"697 475 OFFCURVE",
"687 367 CURVE"
);
}
);
width = 874;
}
);
leftMetricsKey = H;
unicode = 0045;
},
{
glyphname = Eogonek;
lastChange = "2020-06-08 16:10:30 +0000";
layers = (
{
components = (
{
name = E;
}
);
layerId = "6B6AD122-EF8D-49FE-8C69-4BDE8C56BDD8";
paths = (
{
closed = 1;
nodes = (
"541 -299 LINE",
"501 -337 OFFCURVE",
"452 -369 OFFCURVE",
"407 -369 CURVE SMOOTH",
"375 -369 OFFCURVE",
"349 -354 OFFCURVE",
"349 -309 CURVE SMOOTH",
"349 -184 OFFCURVE",
"559 0 OFFCURVE",
"710 0 CURVE",
"585 73 LINE",
"394 -90 OFFCURVE",
"204 -209 OFFCURVE",
"204 -366 CURVE SMOOTH",
"204 -449 OFFCURVE",
"259 -501 OFFCURVE",
"343 -501 CURVE SMOOTH",
"444 -501 OFFCURVE",
"533 -428 OFFCURVE",
"592 -334 CURVE",
"556 -299 LINE"
);
}
);
width = 945;
},
{
components = (
{
name = E;
}
);
layerId = "CFF67ECA-3B2D-433B-B605-F38590C8F106";
paths = (
{
closed = 1;
nodes = (
"306 -175 OFFCURVE",
"557 2 OFFCURVE",
"687 2 CURVE",
"515 52 LINE",
"357 -84 OFFCURVE",
"188 -226 OFFCURVE",
"188 -358 CURVE SMOOTH",
"188 -429 OFFCURVE",
"238 -479 OFFCURVE",
"324 -479 CURVE SMOOTH",
"423 -479 OFFCURVE",
"502 -406 OFFCURVE",
"560 -320 CURVE",
"535 -277 LINE",
"520 -277 LINE",
"480 -315 OFFCURVE",
"419 -369 OFFCURVE",
"362 -369 CURVE SMOOTH",
"332 -369 OFFCURVE",
"306 -354 OFFCURVE",
"306 -310 CURVE SMOOTH"
);
}
);
width = 936;
},
{
components = (
{
name = E;
}
);
layerId = "34301EF7-A2BE-469F-9697-D6100B11FDFE";
paths = (
{
closed = 1;
nodes = (
"544 -320 LINE",
"504 -360 OFFCURVE",
"440 -416 OFFCURVE",
"371 -416 CURVE SMOOTH",
"322 -416 OFFCURVE",
"295 -387 OFFCURVE",
"295 -345 CURVE SMOOTH",
"295 -214 OFFCURVE",
"536 0 OFFCURVE",
"704 0 CURVE",
"568 31 LINE",
"352 -123 OFFCURVE",
"205 -252 OFFCURVE",
"205 -372 CURVE SMOOTH",
"205 -444 OFFCURVE",
"257 -497 OFFCURVE",
"335 -497 CURVE SMOOTH",
"421 -497 OFFCURVE",
"516 -428 OFFCURVE",
"574 -342 CURVE",
"555 -320 LINE"
);
}
);
width = 874;
}
);
unicode = 0118;
},
{
glyphname = F;
lastChange = "2020-04-29 08:27:52 +0000";
layers = (
{
background = {
hints = (
{
origin = "{0, 0}";
type = Corner;
name = _corner.CapRightSerif;
},
{
origin = "{0, 1}";
type = Corner;
name = _corner.CapLeftSerif;
},
{
origin = "{0, 2}";
type = Corner;
name = _corner.CapRightSerif;
},
{
origin = "{0, 3}";
type = Corner;
name = _corner.CapLeftSerif;
}
);
paths = (
{
closed = 1;
nodes = (
"267 0 LINE",
"513 1155 LINE",
"287 1155 LINE",
"41 0 LINE"
);
}
);
};
hints = (
{
origin = "{0, 2}";
type = Corner;
name = _corner.CapRightSerif;
},
{
origin = "{0, 0}";
type = Corner;
name = _corner.CapRightSerif;
},
{
origin = "{0, 1}";
type = Corner;
name = _corner.CapLeftSerif;
}
);
layerId = "6B6AD122-EF8D-49FE-8C69-4BDE8C56BDD8";
paths = (
{
closed = 1;
nodes = (
"288 1155 LINE",
"42 0 LINE",
"266 0 LINE",
"487 1039 LINE",
"668 1039 LINE SMOOTH",
"796 1039 OFFCURVE",
"847 991 OFFCURVE",
"893 889 CURVE",
"908 886 LINE",
"971 909 LINE",
"1020 1143 LINE",
"1012 1155 LINE"
);
},
{
closed = 1;
nodes = (
"360 520 LINE",
"448 519 LINE SMOOTH",
"532 518 OFFCURVE",
"591 514 OFFCURVE",
"660 439 CURVE",
"721 442 LINE",
"773 689 LINE",
"708 713 LINE",
"645 672 OFFCURVE",
"590 632 OFFCURVE",
"497 633 CURVE SMOOTH",
"386 634 LINE"
);
}
);
width = 862;
},
{
background = {
hints = (
{
origin = "{0, 1}";
type = Corner;
name = _corner.CapRightSerif;
options = 1;
},
{
origin = "{0, 2}";
scale = "{0.85, 1}";
type = Corner;
name = _corner.CapLeftSerif;
}
);
paths = (
{
closed = 1;
nodes = (
"967 1155 LINE",
"345 1155 LINE",
"99 0 LINE",
"754 0 LINE",
"880 362 LINE",
"831 373 LINE",
"822 375 LINE",
"704 119 OFFCURVE",
"597 95 OFFCURVE",
"491 95 CURVE SMOOTH",
"273 94 LINE",
"378 592 LINE",
"297 530 LINE",
"564 530 LINE SMOOTH",
"614 530 OFFCURVE",
"635 509 OFFCURVE",
"631 399 CURVE",
"638 395 LINE",
"685 391 LINE",
"767 763 LINE",
"723 780 LINE",
"715 778 LINE",
"673 677 OFFCURVE",
"635 624 OFFCURVE",
"585 624 CURVE SMOOTH",
"318 624 LINE",
"371 562 LINE",
"488 1115 LINE",
"407 1062 LINE",
"745 1062 LINE SMOOTH",
"830 1062 OFFCURVE",
"868 1008 OFFCURVE",
"856 846 CURVE",
"862 836 LINE",
"913 843 LINE",
"976 1145 LINE"
);
}
);
};
hints = (
{
origin = "{0, 9}";
type = Corner;
name = _corner.CapRightSerif;
options = 1;
},
{
origin = "{0, 10}";
scale = "{0.85, 1}";
type = Corner;
name = _corner.CapLeftSerif;
},
{
origin = "{0, 11}";
scale = "{1.2, 1}";
type = Corner;
name = _corner.CapRightSerif;
options = 1;
}
);
layerId = "CFF67ECA-3B2D-433B-B605-F38590C8F106";
paths = (
{
closed = 1;
nodes = (
"478 1062 LINE",
"780 1062 LINE SMOOTH",
"855 1062 OFFCURVE",
"899 1008 OFFCURVE",
"887 846 CURVE",
"893 836 LINE",
"945 844 LINE",
"1007 1145 LINE",
"998 1155 LINE",
"344 1155 LINE",
"98 0 LINE",
"252 0 LINE"
);
},
{
closed = 1;
nodes = (
"633 387 LINE",
"680 387 LINE",
"760 756 LINE",
"754 764 LINE",
"710 764 LINE",
"668 663 OFFCURVE",
"630 624 OFFCURVE",
"580 624 CURVE SMOOTH",
"323 624 LINE",
"302 530 LINE",
"559 530 LINE SMOOTH",
"608 530 OFFCURVE",
"629 502 OFFCURVE",
"626 395 CURVE"
);
}
);
width = 890;
},
{
hints = (
{
origin = "{0, 0}";
scale = "{0.81649, 0.742}";
type = Corner;
name = _corner.CapRightSerif;
options = 1;
},
{
origin = "{0, 12}";
scale = "{0.74227, 0.74227}";
type = Corner;
name = _corner.CapRightSerif;
},
{
origin = "{0, 13}";
scale = "{0.742, 0.742}";
type = Corner;
name = _corner.CapLeftSerif;
}
);
layerId = "34301EF7-A2BE-469F-9697-D6100B11FDFE";
paths = (
{
closed = 1;
nodes = (
"217 0 LINE",
"334 546 LINE",
"341 578 LINE",
"453 1098 LINE",
"701 1098 LINE SMOOTH",
"843 1098 OFFCURVE",
"867 1053 OFFCURVE",
"864 932 CURVE",
"872 924 LINE",
"903 926 LINE",
"952 1143 LINE",
"943 1155 LINE",
"364 1155 LINE",
"118 0 LINE"
);
},
{
closed = 1;
nodes = (
"712 358 LINE",
"796 752 LINE",
"768 752 LINE",
"729 644 OFFCURVE",
"688 585 OFFCURVE",
"606 585 CURVE SMOOTH",
"324 585 LINE",
"311 521 LINE",
"605 521 LINE SMOOTH",
"673 521 OFFCURVE",
"693 466 OFFCURVE",
"683 358 CURVE"
);
}
);
width = 828;
}
);
leftMetricsKey = H;
unicode = 0046;
},
{
glyphname = G;
lastChange = "2020-06-08 16:11:19 +0000";
layers = (
{
anchors = (
{
name = bottom;
position = "{485, 0}";
},
{
name = top;
position = "{788, 1155}";
}
);
background = {
paths = (
{
closed = 1;
nodes = (
"640 -30 OFFCURVE",
"779 -17 OFFCURVE",
"929 24 CURVE",
"1004 316 LINE",
"902 329 LINE",
"829 223 OFFCURVE",
"716 82 OFFCURVE",
"569 82 CURVE SMOOTH",
"385 82 OFFCURVE",
"310 301 OFFCURVE",
"374 605 CURVE SMOOTH",
"428 857 OFFCURVE",
"554 1059 OFFCURVE",
"747 1059 CURVE SMOOTH",
"897 1059 OFFCURVE",
"958 938 OFFCURVE",
"971 832 CURVE",
"1060 827 LINE",
"1119 1133 LINE",
"1019 1166 OFFCURVE",
"921 1185 OFFCURVE",
"832 1185 CURVE SMOOTH",
"512 1185 OFFCURVE",
"215 956 OFFCURVE",
"133 569 CURVE SMOOTH",
"58 217 OFFCURVE",
"200 -30 OFFCURVE",
"557 -30 CURVE SMOOTH"
);
}
);
};
hints = (
{
origin = "{0, 3}";
type = Corner;
name = _corner.CapLeftSerif;
},
{
origin = "{0, 4}";
scale = "{1.4, 1}";
type = Corner;
name = _corner.CapRightSerif;
options = 1;
}
);
layerId = "6B6AD122-EF8D-49FE-8C69-4BDE8C56BDD8";
paths = (
{
closed = 1;
nodes = (
"685 -30 OFFCURVE",
"805 -3 OFFCURVE",
"942 46 CURVE",
"1045 559 LINE",
"829 559 LINE",
"729 115 LINE",
"681 99 OFFCURVE",
"633 81 OFFCURVE",
"575 81 CURVE SMOOTH",
"370 81 OFFCURVE",
"309 301 OFFCURVE",
"370 589 CURVE SMOOTH",
"427 857 OFFCURVE",
"555 1054 OFFCURVE",
"748 1054 CURVE SMOOTH",
"898 1054 OFFCURVE",
"964 938 OFFCURVE",
"977 832 CURVE",
"1066 827 LINE",
"1125 1133 LINE",
"1025 1166 OFFCURVE",
"927 1185 OFFCURVE",
"835 1185 CURVE SMOOTH",
"518 1185 OFFCURVE",
"214 956 OFFCURVE",
"132 568 CURVE SMOOTH",
"57 217 OFFCURVE",
"206 -30 OFFCURVE",
"563 -30 CURVE SMOOTH"
);
}
);
width = 1146;
},
{
anchors = (
{
name = bottom;
position = "{510, 0}";
},
{
name = top;
position = "{816, 1155}";
}
);
background = {
paths = (
{
closed = 1;
nodes = (
"984 210 LINE",
"961 225 LINE",
"947 229 LINE",
"866 144 OFFCURVE",
"757 40 OFFCURVE",
"584 40 CURVE SMOOTH",
"369 40 OFFCURVE",
"209 196 OFFCURVE",
"209 456 CURVE SMOOTH",
"209 762 OFFCURVE",
"424 1130 OFFCURVE",
"751 1130 CURVE SMOOTH",
"948 1130 OFFCURVE",
"1023 1001 OFFCURVE",
"1003 746 CURVE",
"1044 741 LINE",
"1110 1063 LINE",
"1039 1128 OFFCURVE",
"906 1185 OFFCURVE",
"766 1185 CURVE SMOOTH",
"388 1185 OFFCURVE",
"103 788 OFFCURVE",
"103 419 CURVE SMOOTH",
"103 153 OFFCURVE",
"254 -30 OFFCURVE",
"536 -30 CURVE SMOOTH",
"756 -30 OFFCURVE",
"897 93 OFFCURVE",
"982 192 CURVE"
);
}
);
};
hints = (
{
origin = "{0, 17}";
scale = "{0.51959, 0.74227}";
type = Corner;
name = _corner.CapLeftSerif;
},
{
origin = "{0, 18}";
scale = "{0.74227, 0.74227}";
type = Corner;
name = _corner.CapRightSerif;
}
);
layerId = "34301EF7-A2BE-469F-9697-D6100B11FDFE";
paths = (
{
closed = 1;
nodes = (
"976 1125 OFFCURVE",
"1079 1029 OFFCURVE",
"1048 766 CURVE",
"1089 761 LINE",
"1155 1083 LINE",
"1084 1148 OFFCURVE",
"967 1185 OFFCURVE",
"833 1185 CURVE SMOOTH",
"514 1185 OFFCURVE",
"219 945 OFFCURVE",
"137 562 CURVE SMOOTH",
"70 245 OFFCURVE",
"189 -30 OFFCURVE",
"592 -30 CURVE SMOOTH",
"719 -30 OFFCURVE",
"819 -1 OFFCURVE",
"959 65 CURVE",
"1053 518 LINE",
"950 518 LINE",
"872 152 LINE SMOOTH",
"853 65 OFFCURVE",
"718 31 OFFCURVE",
"613 31 CURVE SMOOTH",
"305 31 OFFCURVE",
"183 280 OFFCURVE",
"246 578 CURVE SMOOTH",
"317 911 OFFCURVE",
"534 1125 OFFCURVE",
"796 1125 CURVE SMOOTH"
);
}
);
width = 1179;
},
{
anchors = (
{
name = bottom;
position = "{495, 0}";
},
{
name = top;
position = "{757, 1155}";
}
);
background = {
paths = (
{
closed = 1;
nodes = (
"623 -35 OFFCURVE",
"775 -8 OFFCURVE",
"912 37 CURVE",
"998 357 LINE",
"941 367 LINE",
"872 231 OFFCURVE",
"737 71 OFFCURVE",
"538 71 CURVE SMOOTH",
"291 71 OFFCURVE",
"209 311 OFFCURVE",
"268 588 CURVE SMOOTH",
"329 876 OFFCURVE",
"512 1077 OFFCURVE",
"741 1077 CURVE SMOOTH",
"923 1077 OFFCURVE",
"978 953 OFFCURVE",
"979 817 CURVE",
"1033 815 LINE",
"1095 1117 LINE",
"996 1165 OFFCURVE",
"888 1185 OFFCURVE",
"799 1185 CURVE SMOOTH",
"493 1185 OFFCURVE",
"187 954 OFFCURVE",
"107 578 CURVE SMOOTH",
"37 251 OFFCURVE",
"168 -35 OFFCURVE",
"520 -35 CURVE SMOOTH"
);
}
);
};
hints = (
{
origin = "{0, 5}";
type = Corner;
name = _corner.CapRightSerif;
options = 1;
},
{
origin = "{0, 4}";
scale = "{0.7, 1}";
type = Corner;
name = _corner.CapLeftSerif;
}
);
layerId = "CFF67ECA-3B2D-433B-B605-F38590C8F106";
paths = (
{
closed = 1;
nodes = (
"651 -30 OFFCURVE",
"809 11 OFFCURVE",
"980 108 CURVE",
"907 29 LINE",
"1018 557 LINE",
"880 557 LINE",
"785 126 LINE",
"725 91 OFFCURVE",
"634 61 OFFCURVE",
"550 61 CURVE SMOOTH",
"300 61 OFFCURVE",
"205 308 OFFCURVE",
"266 592 CURVE SMOOTH",
"325 869 OFFCURVE",
"509 1079 OFFCURVE",
"739 1079 CURVE SMOOTH",
"920 1079 OFFCURVE",
"974 953 OFFCURVE",
"975 817 CURVE",
"1033 815 LINE",
"1096 1130 LINE",
"992 1165 OFFCURVE",
"890 1185 OFFCURVE",
"798 1185 CURVE SMOOTH",
"485 1185 OFFCURVE",
"185 953 OFFCURVE",
"106 580 CURVE SMOOTH",
"38 261 OFFCURVE",
"156 -30 OFFCURVE",
"512 -30 CURVE SMOOTH"
);
}
);
width = 1163;
}
);
leftMetricsKey = O;
unicode = 0047;
},
{
glyphname = H;
lastChange = "2020-06-08 15:54:25 +0000";
layers = (
{
hints = (
{
origin = "{0, 0}";
type = Corner;
name = _corner.CapRightSerif;
},
{
origin = "{0, 1}";
type = Corner;
name = _corner.CapLeftSerif;
},
{
origin = "{0, 2}";
type = Corner;
name = _corner.CapRightSerif;
},
{
origin = "{0, 3}";
type = Corner;
name = _corner.CapLeftSerif;
},
{
origin = "{1, 0}";
type = Corner;
name = _corner.CapRightSerif;
},
{
origin = "{1, 1}";
type = Corner;
name = _corner.CapLeftSerif;
},
{
origin = "{1, 2}";
type = Corner;
name = _corner.CapRightSerif;
},
{
origin = "{1, 3}";
type = Corner;
name = _corner.CapLeftSerif;
}
);
layerId = "6B6AD122-EF8D-49FE-8C69-4BDE8C56BDD8";
paths = (
{
closed = 1;
nodes = (
"966 0 LINE",
"1212 1155 LINE",
"986 1155 LINE",
"740 0 LINE"
);
},
{
closed = 1;
nodes = (
"268 0 LINE",
"514 1155 LINE",
"288 1155 LINE",
"42 0 LINE"
);
},
{
closed = 1;
nodes = (
"918 529 LINE",
"945 642 LINE",
"304 642 LINE",
"277 529 LINE"
);
}
);
width = 1185;
},
{
hints = (
{
origin = "{0, 0}";
scale = "{0.74227, 0.74227}";
type = Corner;
name = _corner.CapRightSerif;
},
{
origin = "{0, 1}";
scale = "{0.74227, 0.74227}";
type = Corner;
name = _corner.CapLeftSerif;
},
{
origin = "{0, 2}";
scale = "{0.74227, 0.74227}";
type = Corner;
name = _corner.CapRightSerif;
},
{
origin = "{0, 3}";
scale = "{0.74227, 0.74227}";
type = Corner;
name = _corner.CapLeftSerif;
},
{
origin = "{1, 0}";
scale = "{0.74227, 0.74227}";
type = Corner;
name = _corner.CapRightSerif;
},
{
origin = "{1, 1}";
scale = "{0.74227, 0.74227}";
type = Corner;
name = _corner.CapLeftSerif;
},
{
origin = "{1, 2}";
scale = "{0.74227, 0.74227}";
type = Corner;
name = _corner.CapRightSerif;
},
{
origin = "{1, 3}";
scale = "{0.742, 0.74227}";
type = Corner;
name = _corner.CapLeftSerif;
}
);
layerId = "34301EF7-A2BE-469F-9697-D6100B11FDFE";
paths = (
{
closed = 1;
nodes = (
"1001 0 LINE",
"1247 1155 LINE",
"1147 1155 LINE",
"901 0 LINE"
);
},
{
closed = 1;
nodes = (
"218 0 LINE",
"464 1155 LINE",
"364 1155 LINE",
"118 0 LINE"
);
},
{
closed = 1;
nodes = (
"1038 579 LINE",
"1051 637 LINE",
"334 637 LINE",
"321 579 LINE"
);
}
);
width = 1279;
},
{
hints = (
{
origin = "{1, 0}";
type = Corner;
name = _corner.CapRightSerif;
options = 1;
},
{
origin = "{1, 1}";
scale = "{0.85, 1}";
type = Corner;
name = _corner.CapLeftSerif;
},
{
origin = "{1, 2}";
type = Corner;
name = _corner.CapRightSerif;
options = 1;
},
{
origin = "{1, 3}";
scale = "{0.85, 1}";
type = Corner;
name = _corner.CapLeftSerif;
},
{
origin = "{0, 0}";
type = Corner;
name = _corner.CapRightSerif;
options = 1;
},
{
origin = "{0, 1}";
scale = "{0.85, 1}";
type = Corner;
name = _corner.CapLeftSerif;
},
{
origin = "{0, 2}";
type = Corner;
name = _corner.CapRightSerif;
options = 1;
},
{
origin = "{0, 3}";
scale = "{0.85, 1}";
type = Corner;
name = _corner.CapLeftSerif;
}
);
layerId = "CFF67ECA-3B2D-433B-B605-F38590C8F106";
paths = (
{
closed = 1;
nodes = (
"983 0 LINE",
"1229 1155 LINE",
"1079 1155 LINE",
"833 0 LINE"
);
},
{
closed = 1;
nodes = (
"248 0 LINE",
"494 1155 LINE",
"344 1155 LINE",
"98 0 LINE"
);
},
{
closed = 1;
nodes = (
"969 528 LINE",
"994 633 LINE",
"349 633 LINE",
"324 528 LINE"
);
}
);
width = 1256;
}
);
note = "-10 hoz -10 vert";
unicode = 0048;
},
{
glyphname = Hbar;
lastChange = "2020-06-08 16:11:37 +0000";
layers = (
{
components = (
{
name = H;
transform = "{1, 0, 0, 1, 21, 0}";
}
);
layerId = "6B6AD122-EF8D-49FE-8C69-4BDE8C56BDD8";
paths = (
{
closed = 1;
nodes = (
"1225 793 LINE",
"1236 802 LINE",
"1250 888 LINE",
"1243 897 LINE",
"187 897 LINE",
"176 888 LINE",
"158 802 LINE",
"165 793 LINE"
);
}
);
width = 1230;
},
{
components = (
{
name = H;
transform = "{1, 0, 0, 1, 5, 0}";
}
);
layerId = "CFF67ECA-3B2D-433B-B605-F38590C8F106";
paths = (
{
closed = 1;
nodes = (
"1303 822 LINE",
"1314 831 LINE",
"1324 897 LINE",
"1317 906 LINE",
"157 906 LINE",
"147 897 LINE",
"136 831 LINE",
"143 822 LINE"
);
}
);
width = 1269;
},
{
components = (
{
name = H;
}
);
layerId = "34301EF7-A2BE-469F-9697-D6100B11FDFE";
paths = (
{
closed = 1;
nodes = (
"1285 847 LINE",
"1296 856 LINE",
"1304 902 LINE",
"1297 911 LINE",
"207 911 LINE",
"196 902 LINE",
"188 856 LINE",
"195 847 LINE"
);
}
);
width = 1279;
}
);
leftMetricsKey = H;
rightMetricsKey = H;
unicode = 0126;
},
{
glyphname = I;
lastChange = "2020-06-08 15:34:12 +0000";
layers = (
{
anchors = (
{
name = bottom;
position = "{156, 0}";
},
{
name = ogonek;
position = "{268, 0}";
},
{
name = top;
position = "{388, 1155}";
},
{
name = topleft;
position = "{164, 1155}";
}
);
hints = (
{
origin = "{0, 0}";
type = Corner;
name = _corner.CapRightSerif;
},
{
origin = "{0, 1}";
type = Corner;
name = _corner.CapLeftSerif;
},
{
origin = "{0, 2}";
type = Corner;
name = _corner.CapRightSerif;
},
{
origin = "{0, 3}";
type = Corner;
name = _corner.CapLeftSerif;
}
);
layerId = "6B6AD122-EF8D-49FE-8C69-4BDE8C56BDD8";
paths = (
{
closed = 1;
nodes = (
"268 0 LINE",
"514 1155 LINE",
"288 1155 LINE",
"42 0 LINE"
);
}
);
width = 487;
},
{
anchors = (
{
name = bottom;
position = "{168, 0}";
},
{
name = ogonek;
position = "{310, 10}";
},
{
name = top;
position = "{410, 1155}";
},
{
name = topleft;
position = "{218, 1155}";
}
);
hints = (
{
origin = "{0, 0}";
scale = "{0.74227, 0.74227}";
type = Corner;
name = _corner.CapRightSerif;
},
{
origin = "{0, 1}";
scale = "{0.74227, 0.74227}";
type = Corner;
name = _corner.CapLeftSerif;
},
{
origin = "{0, 2}";
scale = "{0.74227, 0.74227}";
type = Corner;
name = _corner.CapRightSerif;
},
{
origin = "{0, 3}";
scale = "{0.74227, 0.74227}";
type = Corner;
name = _corner.CapLeftSerif;
}
);
layerId = "34301EF7-A2BE-469F-9697-D6100B11FDFE";
paths = (
{
closed = 1;
nodes = (
"218 0 LINE",
"464 1155 LINE",
"364 1155 LINE",
"118 0 LINE"
);
}
);
width = 496;
},
{
anchors = (
{
name = bottom;
position = "{174, 0}";
},
{
name = ogonek;
position = "{350, 1}";
},
{
name = top;
position = "{413, 1155}";
},
{
name = topleft;
position = "{227, 1155}";
}
);
hints = (
{
origin = "{0, 0}";
type = Corner;
name = _corner.CapRightSerif;
options = 1;
},
{
origin = "{0, 1}";
scale = "{0.85, 1}";
type = Corner;
name = _corner.CapLeftSerif;
},
{
origin = "{0, 2}";
type = Corner;
name = _corner.CapRightSerif;
options = 1;
},
{
origin = "{0, 3}";
scale = "{0.85, 1}";
type = Corner;
name = _corner.CapLeftSerif;
}
);
layerId = "CFF67ECA-3B2D-433B-B605-F38590C8F106";
paths = (
{
closed = 1;
nodes = (
"248 0 LINE",
"494 1155 LINE",
"344 1155 LINE",
"98 0 LINE"
);
}
);
width = 521;
}
);
leftMetricsKey = H;
rightMetricsKey = H;
unicode = 0049;
},
{
glyphname = Iogonek;
lastChange = "2020-06-08 16:10:40 +0000";
layers = (
{
components = (
{
name = I;
}
);
layerId = "6B6AD122-EF8D-49FE-8C69-4BDE8C56BDD8";
paths = (
{
closed = 1;
nodes = (
"141 -299 LINE",
"101 -337 OFFCURVE",
"52 -369 OFFCURVE",
"7 -369 CURVE SMOOTH",
"-25 -369 OFFCURVE",
"-51 -354 OFFCURVE",
"-51 -309 CURVE SMOOTH",
"-51 -184 OFFCURVE",
"159 0 OFFCURVE",
"310 0 CURVE",
"185 73 LINE",
"-6 -90 OFFCURVE",
"-196 -209 OFFCURVE",
"-196 -366 CURVE SMOOTH",
"-196 -449 OFFCURVE",
"-141 -501 OFFCURVE",
"-57 -501 CURVE SMOOTH",
"44 -501 OFFCURVE",
"133 -428 OFFCURVE",
"192 -334 CURVE",
"156 -299 LINE"
);
}
);
width = 487;
},
{
components = (
{
name = I;
}
);
layerId = "CFF67ECA-3B2D-433B-B605-F38590C8F106";
paths = (
{
closed = 1;
nodes = (
"6 -175 OFFCURVE",
"257 2 OFFCURVE",
"387 2 CURVE",
"215 52 LINE",
"57 -84 OFFCURVE",
"-112 -226 OFFCURVE",
"-112 -358 CURVE SMOOTH",
"-112 -429 OFFCURVE",
"-62 -479 OFFCURVE",
"24 -479 CURVE SMOOTH",
"123 -479 OFFCURVE",
"202 -406 OFFCURVE",
"260 -320 CURVE",
"235 -277 LINE",
"220 -277 LINE",
"180 -315 OFFCURVE",
"119 -369 OFFCURVE",
"62 -369 CURVE SMOOTH",
"32 -369 OFFCURVE",
"6 -354 OFFCURVE",
"6 -310 CURVE SMOOTH"
);
}
);
width = 521;
},
{
components = (
{
name = I;
}
);
layerId = "34301EF7-A2BE-469F-9697-D6100B11FDFE";
paths = (
{
closed = 1;
nodes = (
"194 -320 LINE",
"154 -360 OFFCURVE",
"90 -416 OFFCURVE",
"21 -416 CURVE SMOOTH",
"-28 -416 OFFCURVE",
"-55 -387 OFFCURVE",
"-55 -345 CURVE SMOOTH",
"-55 -214 OFFCURVE",
"186 0 OFFCURVE",
"354 0 CURVE",
"218 31 LINE",
"2 -123 OFFCURVE",
"-145 -252 OFFCURVE",
"-145 -372 CURVE SMOOTH",
"-145 -444 OFFCURVE",
"-93 -497 OFFCURVE",
"-15 -497 CURVE SMOOTH",
"71 -497 OFFCURVE",
"166 -428 OFFCURVE",
"224 -342 CURVE",
"205 -320 LINE"
);
}
);
width = 496;
}
);
rightMetricsKey = I;
unicode = 012E;
},
{
glyphname = J;
lastChange = "2020-04-29 08:31:48 +0000";
layers = (
{
hints = (
{
origin = "{0, 3}";
type = Corner;
name = _corner.CapLeftSerif;
},
{
origin = "{0, 4}";
type = Corner;
name = _corner.CapRightSerif;
}
);
layerId = "6B6AD122-EF8D-49FE-8C69-4BDE8C56BDD8";
paths = (
{
closed = 1;
nodes = (
"519 -30 OFFCURVE",
"687 52 OFFCURVE",
"743 314 CURVE SMOOTH",
"928 1186 LINE",
"705 1186 LINE",
"508 258 LINE SMOOTH",
"482 134 OFFCURVE",
"445 77 OFFCURVE",
"393 77 CURVE SMOOTH",
"334 77 OFFCURVE",
"320 148 OFFCURVE",
"331 195 CURVE SMOOTH",
"338 232 OFFCURVE",
"351 256 OFFCURVE",
"369 286 CURVE",
"363 303 LINE",
"333 332 OFFCURVE",
"294 349 OFFCURVE",
"252 349 CURVE SMOOTH",
"164 349 OFFCURVE",
"113 286 OFFCURVE",
"96 207 CURVE SMOOTH",
"67 72 OFFCURVE",
"164 -30 OFFCURVE",
"343 -30 CURVE SMOOTH"
);
}
);
width = 898;
},
{
background = {
hints = (
{
origin = "{0, 0}";
scale = "{0.74227, 0.74227}";
type = Corner;
name = _corner.CapRightSerif;
},
{
origin = "{0, 1}";
scale = "{0.74227, 0.74227}";
type = Corner;
name = _corner.CapLeftSerif;
},
{
origin = "{0, 2}";
scale = "{0.74227, 0.74227}";
type = Corner;
name = _corner.CapRightSerif;
},
{
origin = "{0, 3}";
scale = "{0.74227, 0.74227}";
type = Corner;
name = _corner.CapLeftSerif;
}
);
paths = (
{
closed = 1;
nodes = (
"583 0 LINE",
"829 1155 LINE",
"729 1155 LINE",
"483 0 LINE"
);
}
);
};
hints = (
{
origin = "{0, 3}";
scale = "{0.74227, 0.74227}";
type = Corner;
name = _corner.CapLeftSerif;
},
{
origin = "{0, 4}";
scale = "{0.74227, 0.74227}";
type = Corner;
name = _corner.CapRightSerif;
}
);
layerId = "34301EF7-A2BE-469F-9697-D6100B11FDFE";
paths = (
{
closed = 1;
nodes = (
"459 -30 OFFCURVE",
"599 69 OFFCURVE",
"642 269 CURVE SMOOTH",
"831 1155 LINE",
"729 1155 LINE",
"535 243 LINE SMOOTH",
"514 143 OFFCURVE",
"451 21 OFFCURVE",
"337 21 CURVE SMOOTH",
"269 21 OFFCURVE",
"210 62 OFFCURVE",
"225 129 CURVE SMOOTH",
"233 167 OFFCURVE",
"262 195 OFFCURVE",
"290 211 CURVE",
"294 223 LINE",
"281 245 OFFCURVE",
"260 256 OFFCURVE",
"234 256 CURVE SMOOTH",
"179 256 OFFCURVE",
"124 206 OFFCURVE",
"110 141 CURVE SMOOTH",
"91 53 OFFCURVE",
"154 -30 OFFCURVE",
"301 -30 CURVE SMOOTH"
);
}
);
width = 859;
},
{
hints = (
{
origin = "{0, 4}";
type = Corner;
name = _corner.CapRightSerif;
options = 1;
},
{
origin = "{0, 3}";
scale = "{0.85, 1}";
type = Corner;
name = _corner.CapLeftSerif;
}
);
layerId = "CFF67ECA-3B2D-433B-B605-F38590C8F106";
paths = (
{
closed = 1;
nodes = (
"405 -30 OFFCURVE",
"570 36 OFFCURVE",
"624 288 CURVE SMOOTH",
"809 1155 LINE",
"665 1155 LINE",
"485 312 LINE SMOOTH",
"454 167 OFFCURVE",
"387 49 OFFCURVE",
"298 49 CURVE SMOOTH",
"254 49 OFFCURVE",
"209 79 OFFCURVE",
"209 131 CURVE SMOOTH",
"209 171 OFFCURVE",
"236 199 OFFCURVE",
"265 227 CURVE",
"261 242 LINE",
"243 265 OFFCURVE",
"219 277 OFFCURVE",
"186 277 CURVE SMOOTH",
"119 277 OFFCURVE",
"48 225 OFFCURVE",
"48 130 CURVE SMOOTH",
"48 43 OFFCURVE",
"107 -30 OFFCURVE",
"264 -30 CURVE SMOOTH"
);
}
);
width = 822;
}
);
unicode = 004A;
},
{
glyphname = K;
lastChange = "2020-06-08 15:50:30 +0000";
layers = (
{
anchors = (
{
name = bottom;
position = "{470, 0}";
},
{
name = top;
position = "{732, 1236}";
}
);
background = {
hints = (
{
origin = "{0, 0}";
type = Corner;
name = _corner.CapRightSerif;
},
{
origin = "{0, 1}";
type = Corner;
name = _corner.CapLeftSerif;
},
{
origin = "{0, 2}";
type = Corner;
name = _corner.CapRightSerif;
},
{
origin = "{0, 3}";
type = Corner;
name = _corner.CapLeftSerif;
}
);
paths = (
{
closed = 1;
nodes = (
"265 0 LINE",
"511 1155 LINE",
"285 1155 LINE",
"39 0 LINE"
);
}
);
};
hints = (
{
origin = "{1, 0}";
scale = "{0.96, 0.96}";
type = Corner;
name = _corner.CapRightSerif;
},
{
origin = "{1, 1}";
scale = "{0.96, 0.96}";
type = Corner;
name = _corner.CapLeftSerif;
},
{
origin = "{1, 2}";
scale = "{0.96, 0.96}";
type = Corner;
name = _corner.CapRightSerif;
},
{
origin = "{1, 3}";
scale = "{0.96, 0.96}";
type = Corner;
name = _corner.CapLeftSerif;
}
);
layerId = "6B6AD122-EF8D-49FE-8C69-4BDE8C56BDD8";
paths = (
{
closed = 1;
nodes = (
"993 981 LINE SMOOTH",
"1077 1046 OFFCURVE",
"1115 1061 OFFCURVE",
"1191 1094 CURVE",
"1174 1155 LINE",
"833 1155 LINE",
"814 1096 LINE",
"900 1050 OFFCURVE",
"838 978 OFFCURVE",
"728 892 CURVE SMOOTH",
"403 639 LINE",
"325 461 LINE"
);
},
{
closed = 1;
nodes = (
"266 0 LINE",
"512 1155 LINE",
"285 1155 LINE",
"39 0 LINE"
);
},
{
closed = 1;
nodes = (
"1000 0 LINE",
"1016 62 LINE",
"988 77 OFFCURVE",
"951 114 OFFCURVE",
"918 180 CURVE SMOOTH",
"636 746 LINE",
"463 576 LINE",
"647 205 LINE SMOOTH",
"682 134 OFFCURVE",
"662 91 OFFCURVE",
"594 56 CURVE",
"601 0 LINE"
);
}
);
width = 1115;
},
{
anchors = (
{
name = bottom;
position = "{493, 0}";
},
{
name = top;
position = "{756, 1236}";
}
);
hints = (
{
origin = "{2, 0}";
scale = "{0.74227, 0.74227}";
type = Corner;
name = _corner.CapRightSerif;
},
{
origin = "{2, 1}";
scale = "{0.74227, 0.74227}";
type = Corner;
name = _corner.CapLeftSerif;
},
{
origin = "{2, 2}";
scale = "{0.74227, 0.74227}";
type = Corner;
name = _corner.CapRightSerif;
},
{
origin = "{2, 3}";
scale = "{0.74227, 0.74227}";
type = Corner;
name = _corner.CapLeftSerif;
}
);
layerId = "34301EF7-A2BE-469F-9697-D6100B11FDFE";
paths = (
{
closed = 1;
nodes = (
"983 977 LINE SMOOTH",
"1083 1049 OFFCURVE",
"1192 1105 OFFCURVE",
"1259 1122 CURVE",
"1260 1155 LINE",
"876 1155 LINE",
"867 1122 LINE",
"993 1101 OFFCURVE",
"1001 1062 OFFCURVE",
"896 986 CURVE SMOOTH",
"277 536 LINE",
"248 446 LINE"
);
},
{
closed = 1;
nodes = (
"1040 0 LINE",
"1041 32 LINE",
"983 43 OFFCURVE",
"934 83 OFFCURVE",
"885 182 CURVE SMOOTH",
"613 731 LINE",
"530 659 LINE",
"785 150 LINE SMOOTH",
"823 75 OFFCURVE",
"788 44 OFFCURVE",
"667 31 CURVE",
"662 0 LINE"
);
},
{
closed = 1;
nodes = (
"218 0 LINE",
"464 1155 LINE",
"364 1155 LINE",
"118 0 LINE"
);
}
);
width = 1145;
},
{
anchors = (
{
name = bottom;
position = "{479, 0}";
},
{
name = top;
position = "{741, 1236}";
}
);
background = {
hints = (
{
origin = "{0, 0}";
type = Corner;
name = _corner.CapRightSerif;
options = 1;
},
{
origin = "{0, 1}";
scale = "{0.85, 1}";
type = Corner;
name = _corner.CapLeftSerif;
},
{
origin = "{0, 2}";
type = Corner;
name = _corner.CapRightSerif;
options = 1;
},
{
origin = "{0, 3}";
scale = "{0.85, 1}";
type = Corner;
name = _corner.CapLeftSerif;
}
);
paths = (
{
closed = 1;
nodes = (
"248 0 LINE",
"494 1155 LINE",
"344 1155 LINE",
"98 0 LINE"
);
}
);
};
hints = (
{
origin = "{1, 0}";
type = Corner;
name = _corner.CapRightSerif;
options = 1;
},
{
origin = "{1, 1}";
type = Corner;
name = _corner.CapLeftSerif;
},
{
origin = "{1, 2}";
type = Corner;
name = _corner.CapRightSerif;
options = 1;
},
{
origin = "{1, 3}";
scale = "{0.85, 1}";
type = Corner;
name = _corner.CapLeftSerif;
}
);
layerId = "CFF67ECA-3B2D-433B-B605-F38590C8F106";
paths = (
{
closed = 1;
nodes = (
"979 975 LINE SMOOTH",
"1067 1047 OFFCURVE",
"1151 1076 OFFCURVE",
"1239 1101 CURVE",
"1234 1155 LINE",
"828 1155 LINE",
"822 1106 LINE",
"954 1081 OFFCURVE",
"867 988 OFFCURVE",
"817 947 CURVE SMOOTH",
"366 577 LINE",
"328 442 LINE"
);
},
{
closed = 1;
nodes = (
"248 0 LINE",
"494 1155 LINE",
"344 1155 LINE",
"98 0 LINE"
);
},
{
closed = 1;
nodes = (
"596 0 LINE",
"1000 0 LINE",
"1009 54 LINE",
"949 69 OFFCURVE",
"878 109 OFFCURVE",
"841 191 CURVE SMOOTH",
"610 703 LINE",
"499 590 LINE",
"690 161 LINE SMOOTH",
"718 97 OFFCURVE",
"699 74 OFFCURVE",
"592 53 CURVE"
);
}
);
width = 1132;
}
);
leftMetricsKey = H;
unicode = 004B;
},
{
glyphname = L;
lastChange = "2020-06-08 16:12:39 +0000";
layers = (
{
anchors = (
{
name = bottom;
position = "{363, 0}";
},
{
name = top;
position = "{410, 1155}";
}
);
background = {
hints = (
{
origin = "{0, 1}";
type = Corner;
name = _corner.CapRightSerif;
},
{
origin = "{0, 2}";
type = Corner;
name = _corner.CapLeftSerif;
}
);
paths = (
{
closed = 1;
nodes = (
"991 1155 LINE",
"288 1155 LINE",
"42 0 LINE",
"769 0 LINE",
"857 237 LINE",
"795 274 LINE",
"782 274 LINE",
"664 177 OFFCURVE",
"581 119 OFFCURVE",
"392 119 CURVE SMOOTH",
"288 119 LINE",
"486 1039 LINE",
"647 1039 LINE SMOOTH",
"775 1039 OFFCURVE",
"826 988 OFFCURVE",
"872 886 CURVE",
"887 886 LINE",
"950 909 LINE",
"999 1143 LINE"
);
},
{
closed = 1;
nodes = (
"359 520 LINE",
"467 519 LINE SMOOTH",
"551 518 OFFCURVE",
"610 514 OFFCURVE",
"679 439 CURVE",
"740 442 LINE",
"792 689 LINE",
"727 713 LINE",
"664 672 OFFCURVE",
"609 632 OFFCURVE",
"516 633 CURVE SMOOTH",
"385 634 LINE"
);
}
);
};
hints = (
{
origin = "{0, 8}";
scale = "{0.96, 0.96}";
type = Corner;
name = _corner.CapLeftSerif;
},
{
origin = "{0, 9}";
scale = "{0.96, 0.96}";
type = Corner;
name = _corner.CapRightSerif;
},
{
origin = "{0, 10}";
scale = "{0.96, 0.96}";
type = Corner;
name = _corner.CapLeftSerif;
}
);
layerId = "6B6AD122-EF8D-49FE-8C69-4BDE8C56BDD8";
paths = (
{
closed = 1;
nodes = (
"751 -2 LINE",
"864 284 LINE",
"800 336 LINE",
"786 336 LINE",
"665 213 OFFCURVE",
"521 120 OFFCURVE",
"357 120 CURVE SMOOTH",
"285 120 LINE",
"507 1155 LINE",
"285 1155 LINE",
"39 -2 LINE"
);
}
);
width = 889;
},
{
anchors = (
{
name = bottom;
position = "{413, 0}";
},
{
name = top;
position = "{410, 1155}";
}
);
background = {
hints = (
{
origin = "{0, 10}";
scale = "{0.74227, 0.74227}";
type = Corner;
name = _corner.CapRightSerif;
},
{
origin = "{0, 11}";
scale = "{0.74227, 0.74227}";
type = Corner;
name = _corner.CapLeftSerif;
}
);
paths = (
{
closed = 1;
nodes = (
"340 578 LINE",
"452 1098 LINE",
"700 1098 LINE SMOOTH",
"842 1098 OFFCURVE",
"866 1053 OFFCURVE",
"863 932 CURVE",
"871 924 LINE",
"902 926 LINE",
"951 1143 LINE",
"942 1155 LINE",
"363 1155 LINE",
"117 0 LINE",
"723 0 LINE",
"819 236 LINE",
"788 247 LINE",
"779 242 LINE",
"707 110 OFFCURVE",
"645 55 OFFCURVE",
"502 55 CURVE SMOOTH",
"230 55 LINE",
"333 546 LINE"
);
},
{
closed = 1;
nodes = (
"314 530 LINE",
"608 530 LINE SMOOTH",
"676 530 OFFCURVE",
"696 475 OFFCURVE",
"686 367 CURVE",
"715 367 LINE",
"799 761 LINE",
"771 761 LINE",
"732 653 OFFCURVE",
"691 594 OFFCURVE",
"609 594 CURVE SMOOTH",
"327 594 LINE"
);
}
);
};
hints = (
{
origin = "{0, 8}";
scale = "{0.74227, 0.74227}";
type = Corner;
name = _corner.CapLeftSerif;
},
{
origin = "{0, 9}";
scale = "{0.74227, 0.74227}";
type = Corner;
name = _corner.CapRightSerif;
},
{
origin = "{0, 10}";
scale = "{0.74227, 0.74227}";
type = Corner;
name = _corner.CapLeftSerif;
}
);
layerId = "34301EF7-A2BE-469F-9697-D6100B11FDFE";
paths = (
{
closed = 1;
nodes = (
"739 0 LINE",
"892 396 LINE",
"861 407 LINE",
"851 403 LINE",
"715 162 OFFCURVE",
"639 54 OFFCURVE",
"476 54 CURVE SMOOTH",
"227 54 LINE",
"462 1155 LINE",
"364 1155 LINE",
"118 0 LINE"
);
}
);
width = 915;
},
{
anchors = (
{
name = bottom;
position = "{383, 0}";
},
{
name = top;
position = "{430, 1155}";
}
);
background = {
components = (
{
name = E;
}
);
};
hints = (
{
origin = "{0, 10}";
scale = "{0.85, 1}";
type = Corner;
name = _corner.CapLeftSerif;
},
{
origin = "{0, 8}";
scale = "{0.85, 1}";
type = Corner;
name = _corner.CapLeftSerif;
},
{
origin = "{0, 9}";
type = Corner;
name = _corner.CapRightSerif;
options = 1;
}
);
layerId = "CFF67ECA-3B2D-433B-B605-F38590C8F106";
paths = (
{
closed = 1;
nodes = (
"781 0 LINE",
"893 361 LINE",
"844 372 LINE",
"834 367 LINE",
"730 168 OFFCURVE",
"625 95 OFFCURVE",
"519 95 CURVE SMOOTH",
"272 95 LINE",
"496 1155 LINE",
"344 1155 LINE",
"98 0 LINE"
);
}
);
width = 940;
}
);
leftKerningGroup = FlatLeft;
leftMetricsKey = H;
rightKerningGroup = "L-Out";
unicode = 004C;
},
{
glyphname = Lslash;
lastChange = "2020-06-08 16:12:51 +0000";
layers = (
{
components = (
{
name = L;
transform = "{1, 0, 0, 1, 73, 0}";
}
);
layerId = "6B6AD122-EF8D-49FE-8C69-4BDE8C56BDD8";
paths = (
{
closed = 1;
nodes = (
"322 502 LINE",
"711 754 LINE",
"711 767 LINE",
"669 844 LINE",
"658 844 LINE",
"338 637 LINE"
);
},
{
closed = 1;
nodes = (
"346 677 LINE",
"97 513 LINE",
"97 500 LINE",
"130 434 LINE",
"142 434 LINE",
"323 552 LINE"
);
}
);
width = 962;
},
{
components = (
{
name = L;
transform = "{1, 0, 0, 1, 32, 0}";
}
);
layerId = "CFF67ECA-3B2D-433B-B605-F38590C8F106";
paths = (
{
closed = 1;
nodes = (
"281 502 LINE",
"683 764 LINE",
"682 777 LINE",
"649 844 LINE",
"637 844 LINE",
"305 627 LINE"
);
},
{
closed = 1;
nodes = (
"309 647 LINE",
"59 483 LINE",
"59 470 LINE",
"92 404 LINE",
"105 404 LINE",
"286 522 LINE"
);
}
);
width = 972;
},
{
components = (
{
name = L;
}
);
layerId = "34301EF7-A2BE-469F-9697-D6100B11FDFE";
paths = (
{
closed = 1;
nodes = (
"284 532 LINE",
"590 764 LINE",
"590 777 LINE",
"562 814 LINE",
"550 814 LINE",
"304 627 LINE"
);
},
{
closed = 1;
nodes = (
"304 639 LINE",
"88 475 LINE",
"88 462 LINE",
"115 426 LINE",
"128 426 LINE",
"284 544 LINE"
);
}
);
width = 915;
}
);
leftMetricsKey = L;
rightMetricsKey = L;
unicode = 0141;
},
{
glyphname = M;
lastChange = "2020-04-29 08:36:37 +0000";
layers = (
{
background = {
hints = (
{
origin = "{0, 0}";
type = Corner;
name = _corner.CapRightSerif;
},
{
origin = "{0, 1}";
type = Corner;
name = _corner.CapLeftSerif;
},
{
origin = "{0, 2}";
type = Corner;
name = _corner.CapRightSerif;
},
{
origin = "{0, 3}";
type = Corner;
name = _corner.CapLeftSerif;
}
);
paths = (
{
closed = 1;
nodes = (
"1148 0 LINE",
"1394 1155 LINE",
"1168 1155 LINE",
"922 0 LINE"
);
}
);
};
hints = (
{
origin = "{0, 3}";
type = Corner;
name = _corner.CapLeftSerif;
},
{
origin = "{0, 4}";
type = Corner;
name = _corner.CapRightSerif;
},
{
origin = "{0, 5}";
type = Corner;
name = _corner.CapLeftSerif;
},
{
origin = "{0, 10}";
type = Corner;
name = _corner.CapRightSerif;
},
{
origin = "{0, 11}";
type = Corner;
name = _corner.CapLeftSerif;
},
{
origin = "{0, 12}";
type = Corner;
name = _corner.CapRightSerif;
}
);
layerId = "6B6AD122-EF8D-49FE-8C69-4BDE8C56BDD8";
paths = (
{
closed = 1;
nodes = (
"1098 849 LINE",
"1116 849 LINE",
"1080 746 LINE",
"922 0 LINE",
"1151 0 LINE",
"1397 1155 LINE",
"1159 1155 LINE",
"626 285 LINE",
"695 285 LINE",
"528 1155 LINE",
"288 1155 LINE",
"42 0 LINE",
"159 0 LINE",
"339 849 LINE",
"361 849 LINE",
"357 746 LINE",
"503 -18 LINE",
"365 80 LINE",
"758 80 LINE",
"565 -19 LINE"
);
}
);
width = 1370;
},
{
hints = (
{
origin = "{0, 3}";
scale = "{0.74227, 0.74227}";
type = Corner;
name = _corner.CapLeftSerif;
},
{
origin = "{0, 4}";
scale = "{0.74227, 0.74227}";
type = Corner;
name = _corner.CapRightSerif;
},
{
origin = "{0, 5}";
scale = "{0.74227, 0.74227}";
type = Corner;
name = _corner.CapLeftSerif;
},
{
origin = "{0, 10}";
scale = "{0.74227, 0.74227}";
type = Corner;
name = _corner.CapRightSerif;
},
{
origin = "{0, 11}";
scale = "{0.74227, 0.74227}";
type = Corner;
name = _corner.CapLeftSerif;
},
{
origin = "{0, 12}";
scale = "{0.74227, 0.74227}";
type = Corner;
name = _corner.CapRightSerif;
}
);
layerId = "34301EF7-A2BE-469F-9697-D6100B11FDFE";
paths = (
{
closed = 1;
nodes = (
"1333 1003 LINE",
"1336 1003 LINE",
"1313 927 LINE",
"1116 0 LINE",
"1215 0 LINE",
"1461 1155 LINE",
"1359 1155 LINE",
"698 155 LINE",
"727 156 LINE",
"487 1155 LINE",
"364 1155 LINE",
"118 0 LINE",
"184 0 LINE",
"397 1003 LINE",
"402 1003 LINE",
"409 969 LINE",
"642 -4 LINE",
"579 42 LINE",
"748 42 LINE",
"666 -5 LINE"
);
}
);
width = 1493;
},
{
background = {
hints = (
{
origin = "{0, 0}";
type = Corner;
name = _corner.CapRightSerif;
options = 1;
},
{
origin = "{0, 1}";
scale = "{0.85, 1}";
type = Corner;
name = _corner.CapLeftSerif;
},
{
origin = "{0, 2}";
type = Corner;
name = _corner.CapRightSerif;
options = 1;
},
{
origin = "{0, 3}";
scale = "{0.85, 1}";
type = Corner;
name = _corner.CapLeftSerif;
}
);
paths = (
{
closed = 1;
nodes = (
"1140 0 LINE",
"1386 1155 LINE",
"1236 1155 LINE",
"990 0 LINE"
);
}
);
};
hints = (
{
origin = "{0, 10}";
scale = "{0.85, 1}";
type = Corner;
name = _corner.CapLeftSerif;
},
{
origin = "{0, 11}";
type = Corner;
name = _corner.CapRightSerif;
options = 1;
},
{
origin = "{0, 12}";
scale = "{0.85, 1}";
type = Corner;
name = _corner.CapLeftSerif;
},
{
origin = "{0, 17}";
type = Corner;
name = _corner.CapRightSerif;
options = 1;
},
{
origin = "{0, 18}";
scale = "{0.85, 1}";
type = Corner;
name = _corner.CapLeftSerif;
},
{
origin = "{0, 0}";
type = Corner;
name = _corner.CapRightSerif;
options = 1;
}
);
layerId = "CFF67ECA-3B2D-433B-B605-F38590C8F106";
paths = (
{
closed = 1;
nodes = (
"200 0 LINE",
"396 920 LINE",
"405 920 LINE",
"413 793 LINE",
"555 43 LINE",
"735 43 LINE",
"595 -15 LINE",
"1180 938 LINE",
"1188 938 LINE",
"1138 778 LINE",
"973 0 LINE",
"1121 0 LINE",
"1367 1155 LINE",
"1198 1155 LINE",
"600 182 LINE",
"682 174 LINE",
"497 1155 LINE",
"344 1155 LINE",
"98 0 LINE"
);
}
);
width = 1394;
}
);
leftMetricsKey = H;
rightMetricsKey = "=|";
unicode = 004D;
},
{
glyphname = N;
lastChange = "2020-06-08 16:12:58 +0000";
layers = (
{
anchors = (
{
name = bottom;
position = "{466, 0}";
},
{
name = top;
position = "{728, 1155}";
}
);
background = {
hints = (
{
origin = "{0, 3}";
type = Corner;
name = _corner.CapLeftSerif;
},
{
origin = "{0, 4}";
type = Corner;
name = _corner.CapRightSerif;
},
{
origin = "{0, 5}";
type = Corner;
name = _corner.CapLeftSerif;
},
{
origin = "{0, 10}";
type = Corner;
name = _corner.CapRightSerif;
},
{
origin = "{0, 11}";
type = Corner;
name = _corner.CapLeftSerif;
},
{
origin = "{0, 12}";
type = Corner;
name = _corner.CapRightSerif;
}
);
paths = (
{
closed = 1;
nodes = (
"1841 849 LINE",
"1859 849 LINE",
"1823 746 LINE",
"1665 0 LINE",
"1894 0 LINE",
"2140 1155 LINE",
"1902 1155 LINE",
"1369 285 LINE",
"1438 285 LINE",
"1271 1155 LINE",
"1031 1155 LINE",
"785 0 LINE",
"902 0 LINE",
"1082 849 LINE",
"1104 849 LINE",
"1100 746 LINE",
"1246 -18 LINE",
"1108 80 LINE",
"1501 80 LINE",
"1308 -19 LINE"
);
}
);
};
hints = (
{
origin = "{0, 3}";
type = Corner;
name = _corner.CapRightSerif;
},
{
origin = "{0, 4}";
type = Corner;
name = _corner.CapLeftSerif;
},
{
origin = "{0, 5}";
type = Corner;
name = _corner.CapRightSerif;
},
{
origin = "{0, 11}";
type = Corner;
name = _corner.CapLeftSerif;
},
{
origin = "{0, 12}";
type = Corner;
name = _corner.CapRightSerif;
}
);
layerId = "6B6AD122-EF8D-49FE-8C69-4BDE8C56BDD8";
paths = (
{
closed = 1;
nodes = (
"856 402 LINE",
"841 467 LINE",
"508 1155 LINE",
"288 1155 LINE",
"42 0 LINE",
"166 0 LINE",
"355 887 LINE",
"371 887 LINE",
"383 814 LINE",
"776 0 LINE",
"905 0 LINE",
"1151 1155 LINE",
"1031 1155 LINE",
"870 402 LINE"
);
}
);
width = 1107;
},
{
anchors = (
{
name = bottom;
position = "{562, 0}";
},
{
name = top;
position = "{776, 1155}";
}
);
hints = (
{
origin = "{0, 0}";
scale = "{0.74227, 0.74227}";
type = Corner;
name = _corner.CapRightSerif;
},
{
origin = "{0, 13}";
scale = "{0.74227, 0.74227}";
type = Corner;
name = _corner.CapRightSerif;
},
{
origin = "{0, 14}";
scale = "{0.74227, 0.74227}";
type = Corner;
name = _corner.CapLeftSerif;
},
{
origin = "{0, 6}";
scale = "{0.74227, 0.74227}";
type = Corner;
name = _corner.CapRightSerif;
},
{
origin = "{0, 5}";
scale = "{0.74227, 0.74227}";
type = Corner;
name = _corner.CapLeftSerif;
}
);
layerId = "34301EF7-A2BE-469F-9697-D6100B11FDFE";
paths = (
{
closed = 1;
nodes = (
"189 0 LINE",
"406 1023 LINE",
"374 1024 LINE",
"988 -19 LINE",
"1011 -19 LINE",
"1261 1155 LINE",
"1190 1155 LINE",
"981 169 LINE",
"998 168 LINE",
"497 1022 LINE SMOOTH",
"473 1064 OFFCURVE",
"454 1111 OFFCURVE",
"438 1155 CURVE",
"364 1155 LINE",
"118 0 LINE"
);
}
);
width = 1284;
},
{
anchors = (
{
name = bottom;
position = "{504, 0}";
},
{
name = top;
position = "{716, 1155}";
}
);
hints = (
{
origin = "{0, 6}";
scale = "{0.85, 1}";
type = Corner;
name = _corner.CapLeftSerif;
},
{
origin = "{0, 13}";
scale = "{0.85, 1}";
type = Corner;
name = _corner.CapLeftSerif;
},
{
origin = "{0, 7}";
type = Corner;
name = _corner.CapRightSerif;
options = 1;
},
{
origin = "{0, 12}";
type = Corner;
name = _corner.CapRightSerif;
options = 1;
},
{
origin = "{0, 0}";
type = Corner;
name = _corner.CapRightSerif;
options = 1;
}
);
layerId = "CFF67ECA-3B2D-433B-B605-F38590C8F106";
paths = (
{
closed = 1;
nodes = (
"202 0 LINE",
"401 936 LINE",
"410 936 LINE",
"436 851 LINE",
"867 -22 LINE",
"914 -22 LINE",
"1165 1155 LINE",
"1063 1155 LINE",
"879 293 LINE",
"871 293 LINE",
"845 374 LINE",
"465 1155 LINE",
"344 1155 LINE",
"98 0 LINE"
);
}
);
width = 1181;
}
);
leftMetricsKey = H;
unicode = 004E;
},
{
glyphname = Eng;
lastChange = "2020-06-08 16:13:30 +0000";
layers = (
{
components = (
{
name = N;
}
);
layerId = "6B6AD122-EF8D-49FE-8C69-4BDE8C56BDD8";
paths = (
{
closed = 1;
nodes = (
"630 -269 OFFCURVE",
"579 -313 OFFCURVE",
"522 -313 CURVE SMOOTH",
"461 -313 OFFCURVE",
"420 -265 OFFCURVE",
"402 -170 CURVE",
"317 -166 LINE",
"280 -366 LINE",
"326 -399 OFFCURVE",
"394 -424 OFFCURVE",
"477 -424 CURVE SMOOTH",
"617 -424 OFFCURVE",
"828 -362 OFFCURVE",
"890 -69 CURVE SMOOTH",
"965 284 LINE",
"748 284 LINE",
"649 -180 LINE SMOOTH"
);
}
);
width = 1107;
},
{
components = (
{
name = N;
}
);
layerId = "CFF67ECA-3B2D-433B-B605-F38590C8F106";
paths = (
{
closed = 1;
nodes = (
"676 -424 OFFCURVE",
"841 -365 OFFCURVE",
"900 -87 CURVE SMOOTH",
"959 192 LINE",
"811 202 LINE",
"735 -158 LINE SMOOTH",
"708 -288 OFFCURVE",
"659 -331 OFFCURVE",
"604 -331 CURVE SMOOTH",
"521 -331 OFFCURVE",
"488 -242 OFFCURVE",
"476 -192 CURVE",
"426 -190 LINE",
"386 -394 LINE",
"427 -411 OFFCURVE",
"472 -424 OFFCURVE",
"537 -424 CURVE SMOOTH"
);
}
);
width = 1181;
},
{
components = (
{
name = N;
}
);
layerId = "34301EF7-A2BE-469F-9697-D6100B11FDFE";
paths = (
{
closed = 1;
nodes = (
"841 -311 OFFCURVE",
"771 -375 OFFCURVE",
"696 -375 CURVE SMOOTH",
"609 -375 OFFCURVE",
"571 -290 OFFCURVE",
"567 -183 CURVE",
"531 -183 LINE",
"498 -348 LINE",
"535 -387 OFFCURVE",
"597 -424 OFFCURVE",
"679 -424 CURVE SMOOTH",
"801 -424 OFFCURVE",
"941 -346 OFFCURVE",
"995 -95 CURVE SMOOTH",
"1053 176 LINE",
"945 176 LINE",
"865 -200 LINE SMOOTH"
);
}
);
width = 1284;
}
);
leftMetricsKey = N;
rightMetricsKey = N;
unicode = 014A;
},
{
glyphname = O;
lastChange = "2020-06-08 16:13:59 +0000";
layers = (
{
anchors = (
{
name = bottom;
position = "{510, 0}";
},
{
name = center;
position = "{641, 618}";
},
{
name = ogonek;
position = "{715, 10}";
},
{
name = top;
position = "{732, 1155}";
},
{
name = topleft;
position = "{395, 1155}";
},
{
name = topright;
position = "{1047, 1155}";
}
);
layerId = "6B6AD122-EF8D-49FE-8C69-4BDE8C56BDD8";
paths = (
{
closed = 1;
nodes = (
"921 -30 OFFCURVE",
"1186 335 OFFCURVE",
"1186 733 CURVE SMOOTH",
"1186 1009 OFFCURVE",
"1027 1183 OFFCURVE",
"770 1183 CURVE SMOOTH",
"388 1183 OFFCURVE",
"119 807 OFFCURVE",
"119 411 CURVE SMOOTH",
"119 134 OFFCURVE",
"280 -30 OFFCURVE",
"536 -30 CURVE SMOOTH"
);
},
{
closed = 1;
nodes = (
"430 91 OFFCURVE",
"366 260 OFFCURVE",
"366 446 CURVE SMOOTH",
"366 711 OFFCURVE",
"512 1063 OFFCURVE",
"729 1063 CURVE SMOOTH",
"875 1063 OFFCURVE",
"939 893 OFFCURVE",
"939 705 CURVE SMOOTH",
"939 437 OFFCURVE",
"795 91 OFFCURVE",
"577 91 CURVE SMOOTH"
);
}
);
width = 1238;
},
{
anchors = (
{
name = bottom;
position = "{552, 0}";
},
{
name = center;
position = "{684, 618}";
},
{
name = ogonek;
position = "{750, 10}";
},
{
name = top;
position = "{785, 1156}";
},
{
name = topleft;
position = "{356, 1156}";
},
{
name = topright;
position = "{1087, 1156}";
}
);
layerId = "34301EF7-A2BE-469F-9697-D6100B11FDFE";
paths = (
{
closed = 1;
nodes = (
"940 -30 OFFCURVE",
"1225 339 OFFCURVE",
"1225 735 CURVE SMOOTH",
"1225 1010 OFFCURVE",
"1058 1185 OFFCURVE",
"800 1185 CURVE SMOOTH",
"413 1185 OFFCURVE",
"124 812 OFFCURVE",
"124 415 CURVE SMOOTH",
"124 137 OFFCURVE",
"294 -30 OFFCURVE",
"552 -30 CURVE SMOOTH"
);
},
{
closed = 1;
nodes = (
"366 21 OFFCURVE",
"228 169 OFFCURVE",
"228 412 CURVE SMOOTH",
"228 754 OFFCURVE",
"473 1134 OFFCURVE",
"796 1134 CURVE SMOOTH",
"984 1134 OFFCURVE",
"1123 994 OFFCURVE",
"1123 749 CURVE SMOOTH",
"1123 407 OFFCURVE",
"874 21 OFFCURVE",
"555 21 CURVE SMOOTH"
);
}
);
width = 1264;
},
{
anchors = (
{
name = bottom;
position = "{496, 0}";
},
{
name = center;
position = "{627, 618}";
},
{
name = ogonek;
position = "{701, 10}";
},
{
name = top;
position = "{718, 1155}";
},
{
name = topleft;
position = "{381, 1155}";
},
{
name = topright;
position = "{1033, 1155}";
}
);
layerId = "CFF67ECA-3B2D-433B-B605-F38590C8F106";
paths = (
{
closed = 1;
nodes = (
"863 -33 OFFCURVE",
"1144 342 OFFCURVE",
"1144 726 CURVE SMOOTH",
"1144 1000 OFFCURVE",
"987 1183 OFFCURVE",
"738 1183 CURVE SMOOTH",
"375 1183 OFFCURVE",
"91 810 OFFCURVE",
"91 425 CURVE SMOOTH",
"91 150 OFFCURVE",
"250 -33 OFFCURVE",
"499 -33 CURVE SMOOTH"
);
},
{
closed = 1;
nodes = (
"344 68 OFFCURVE",
"256 232 OFFCURVE",
"256 434 CURVE SMOOTH",
"256 741 OFFCURVE",
"454 1082 OFFCURVE",
"720 1082 CURVE SMOOTH",
"892 1082 OFFCURVE",
"979 918 OFFCURVE",
"979 717 CURVE SMOOTH",
"979 410 OFFCURVE",
"781 68 OFFCURVE",
"517 68 CURVE SMOOTH"
);
}
);
width = 1165;
}
);
unicode = 004F;
},
{
glyphname = Oslash;
lastChange = "2020-06-08 16:16:39 +0000";
layers = (
{
components = (
{
name = O;
transform = "{1, 0, 0, 1, 13, 1}";
}
);
layerId = "6B6AD122-EF8D-49FE-8C69-4BDE8C56BDD8";
paths = (
{
closed = 1;
nodes = (
"1312 1108 LINE",
"1312 1130 LINE",
"1256 1185 LINE",
"1233 1185 LINE",
"20 37 LINE",
"20 15 LINE",
"68 -30 LINE",
"91 -30 LINE"
);
}
);
width = 1264;
},
{
components = (
{
name = O;
transform = "{1, 0, 0, 1, 0, 1}";
}
);
layerId = "CFF67ECA-3B2D-433B-B605-F38590C8F106";
paths = (
{
closed = 1;
nodes = (
"1251 1127 LINE",
"1253 1149 LINE",
"1212 1184 LINE",
"1189 1184 LINE",
"-6 26 LINE",
"-7 4 LINE",
"33 -32 LINE",
"56 -32 LINE"
);
}
);
width = 1169;
},
{
components = (
{
name = O;
}
);
layerId = "34301EF7-A2BE-469F-9697-D6100B11FDFE";
paths = (
{
closed = 1;
nodes = (
"1313 1143 LINE",
"1315 1160 LINE",
"1290 1185 LINE",
"1272 1185 LINE",
"37 12 LINE",
"35 -5 LINE",
"60 -30 LINE",
"78 -30 LINE"
);
}
);
width = 1264;
}
);
leftMetricsKey = O;
rightMetricsKey = O;
unicode = 00D8;
},
{
glyphname = OE;
lastChange = "2020-06-08 11:56:49 +0000";
layers = (
{
anchors = (
{
name = bottom;
position = "{769, 0}";
},
{
name = top;
position = "{1056, 1155}";
}
);
layerId = "6B6AD122-EF8D-49FE-8C69-4BDE8C56BDD8";
paths = (
{
closed = 1;
nodes = (
"921 -30 OFFCURVE",
"1166 505 OFFCURVE",
"1166 733 CURVE SMOOTH",
"1166 939 OFFCURVE",
"1027 1183 OFFCURVE",
"760 1183 CURVE SMOOTH",
"388 1183 OFFCURVE",
"119 807 OFFCURVE",
"119 411 CURVE SMOOTH",
"119 134 OFFCURVE",
"280 -30 OFFCURVE",
"526 -30 CURVE SMOOTH"
);
},
{
closed = 1;
nodes = (
"430 91 OFFCURVE",
"366 260 OFFCURVE",
"366 446 CURVE SMOOTH",
"366 711 OFFCURVE",
"512 1063 OFFCURVE",
"729 1063 CURVE SMOOTH",
"875 1063 OFFCURVE",
"939 893 OFFCURVE",
"939 705 CURVE SMOOTH",
"939 437 OFFCURVE",
"795 91 OFFCURVE",
"577 91 CURVE SMOOTH"
);
},
{
closed = 1;
nodes = (
"1537 0 LINE",
"1625 237 LINE",
"1563 274 LINE",
"1550 274 LINE",
"1432 177 OFFCURVE",
"1349 119 OFFCURVE",
"1160 119 CURVE SMOOTH",
"1056 119 LINE",
"1254 1039 LINE",
"1415 1039 LINE SMOOTH",
"1543 1039 OFFCURVE",
"1594 988 OFFCURVE",
"1640 886 CURVE",
"1655 886 LINE",
"1718 909 LINE",
"1767 1143 LINE",
"1759 1155 LINE",
"1056 1155 LINE",
"810 0 LINE"
);
},
{
closed = 1;
nodes = (
"1508 442 LINE",
"1560 689 LINE",
"1495 713 LINE",
"1432 672 OFFCURVE",
"1377 632 OFFCURVE",
"1284 633 CURVE SMOOTH",
"1153 634 LINE",
"1127 520 LINE",
"1235 519 LINE SMOOTH",
"1319 518 OFFCURVE",
"1378 514 OFFCURVE",
"1447 439 CURVE"
);
}
);
width = 1713;
},
{
anchors = (
{
name = bottom;
position = "{754, 0}";
},
{
name = top;
position = "{1090, 1155}";
}
);
layerId = "CFF67ECA-3B2D-433B-B605-F38590C8F106";
paths = (
{
closed = 1;
nodes = (
"863 -33 OFFCURVE",
"1132 342 OFFCURVE",
"1132 726 CURVE SMOOTH",
"1132 1000 OFFCURVE",
"987 1183 OFFCURVE",
"738 1183 CURVE SMOOTH",
"375 1183 OFFCURVE",
"91 810 OFFCURVE",
"91 425 CURVE SMOOTH",
"91 150 OFFCURVE",
"250 -33 OFFCURVE",
"499 -33 CURVE SMOOTH"
);
},
{
closed = 1;
nodes = (
"344 68 OFFCURVE",
"256 232 OFFCURVE",
"256 434 CURVE SMOOTH",
"256 741 OFFCURVE",
"454 1082 OFFCURVE",
"720 1082 CURVE SMOOTH",
"892 1082 OFFCURVE",
"979 918 OFFCURVE",
"979 717 CURVE SMOOTH",
"979 410 OFFCURVE",
"781 68 OFFCURVE",
"517 68 CURVE SMOOTH"
);
},
{
closed = 1;
nodes = (
"1499 0 LINE",
"1625 362 LINE",
"1576 373 LINE",
"1567 368 LINE",
"1449 119 OFFCURVE",
"1342 95 OFFCURVE",
"1236 95 CURVE SMOOTH",
"1018 94 LINE",
"1221 1062 LINE",
"1490 1062 LINE SMOOTH",
"1575 1062 OFFCURVE",
"1613 1008 OFFCURVE",
"1601 846 CURVE",
"1607 836 LINE",
"1658 843 LINE",
"1721 1145 LINE",
"1712 1155 LINE",
"1090 1155 LINE",
"844 0 LINE"
);
},
{
closed = 1;
nodes = (
"1386 387 CURVE",
"1440 387 LINE",
"1524 764 LINE",
"1470 764 LINE",
"1428 663 OFFCURVE",
"1390 624 OFFCURVE",
"1340 624 CURVE SMOOTH",
"1083 624 LINE",
"1062 530 LINE",
"1319 530 LINE SMOOTH",
"1367 530 OFFCURVE",
"1389 500 OFFCURVE"
);
}
);
width = 1682;
},
{
anchors = (
{
name = bottom;
position = "{989, 0}";
},
{
name = top;
position = "{1252, 1155}";
}
);
layerId = "34301EF7-A2BE-469F-9697-D6100B11FDFE";
paths = (
{
closed = 1;
nodes = (
"960 -30 OFFCURVE",
"1225 539 OFFCURVE",
"1225 735 CURVE SMOOTH",
"1225 1010 OFFCURVE",
"1058 1185 OFFCURVE",
"800 1185 CURVE SMOOTH",
"413 1185 OFFCURVE",
"124 812 OFFCURVE",
"124 415 CURVE SMOOTH",
"124 137 OFFCURVE",
"314 -30 OFFCURVE",
"542 -30 CURVE SMOOTH"
);
},
{
closed = 1;
nodes = (
"366 21 OFFCURVE",
"228 169 OFFCURVE",
"228 412 CURVE SMOOTH",
"228 754 OFFCURVE",
"473 1134 OFFCURVE",
"796 1134 CURVE SMOOTH",
"984 1134 OFFCURVE",
"1123 994 OFFCURVE",
"1123 749 CURVE SMOOTH",
"1123 407 OFFCURVE",
"874 21 OFFCURVE",
"555 21 CURVE SMOOTH"
);
},
{
closed = 1;
nodes = (
"1588 0 LINE",
"1684 236 LINE",
"1653 247 LINE",
"1644 242 LINE",
"1572 110 OFFCURVE",
"1510 55 OFFCURVE",
"1367 55 CURVE SMOOTH",
"1095 55 LINE",
"1317 1098 LINE",
"1565 1098 LINE SMOOTH",
"1707 1098 OFFCURVE",
"1731 1053 OFFCURVE",
"1728 932 CURVE",
"1736 924 LINE",
"1767 926 LINE",
"1816 1143 LINE",
"1807 1155 LINE",
"1228 1155 LINE",
"982 0 LINE"
);
},
{
closed = 1;
nodes = (
"1580 367 LINE",
"1664 761 LINE",
"1636 761 LINE",
"1597 653 OFFCURVE",
"1556 594 OFFCURVE",
"1474 594 CURVE SMOOTH",
"1192 594 LINE",
"1179 530 LINE",
"1473 530 LINE SMOOTH",
"1541 530 OFFCURVE",
"1561 475 OFFCURVE",
"1551 367 CURVE"
);
}
);
width = 1738;
}
);
leftMetricsKey = O;
rightMetricsKey = E;
unicode = 0152;
},
{
glyphname = P;
lastChange = "2020-04-29 08:41:04 +0000";
layers = (
{
background = {
hints = (
{
origin = "{0, 0}";
type = Corner;
name = _corner.CapRightSerif;
},
{
origin = "{0, 1}";
type = Corner;
name = _corner.CapLeftSerif;
},
{
origin = "{0, 2}";
type = Corner;
name = _corner.CapRightSerif;
},
{
origin = "{0, 3}";
type = Corner;
name = _corner.CapLeftSerif;
}
);
paths = (
{
closed = 1;
nodes = (
"266 0 LINE",
"512 1155 LINE",
"286 1155 LINE",
"40 0 LINE"
);
}
);
};
hints = (
{
origin = "{0, 0}";
scale = "{1.35, 1}";
type = Corner;
name = _corner.CapRightSerif;
options = 1;
},
{
origin = "{0, 11}";
scale = "{0.96, 1}";
type = Corner;
name = _corner.CapRightSerif;
},
{
origin = "{0, 12}";
scale = "{0.96, 1}";
type = Corner;
name = _corner.CapLeftSerif;
}
);
layerId = "6B6AD122-EF8D-49FE-8C69-4BDE8C56BDD8";
paths = (
{
closed = 1;
nodes = (
"262 0 LINE",
"369 476 LINE",
"407 469 OFFCURVE",
"456 463 OFFCURVE",
"497 463 CURVE SMOOTH",
"738 463 OFFCURVE",
"937 598 OFFCURVE",
"980 798 CURVE SMOOTH",
"1014 960 OFFCURVE",
"970 1155 OFFCURVE",
"680 1155 CURVE SMOOTH",
"286 1155 LINE",
"40 0 LINE"
);
},
{
closed = 1;
nodes = (
"721 685 OFFCURVE",
"623 572 OFFCURVE",
"479 572 CURVE SMOOTH",
"458 572 OFFCURVE",
"426 574 OFFCURVE",
"390 583 CURVE",
"493 1041 LINE",
"573 1041 LINE SMOOTH",
"734 1041 OFFCURVE",
"779 959 OFFCURVE",
"752 832 CURVE SMOOTH"
);
}
);
width = 986;
},
{
background = {
hints = (
{
origin = "{0, 7}";
scale = "{0.74227, 0.74227}";
type = Corner;
name = _corner.CapRightSerif;
},
{
origin = "{0, 8}";
scale = "{0.74227, 0.74227}";
type = Corner;
name = _corner.CapLeftSerif;
}
);
paths = (
{
closed = 1;
nodes = (
"455 0 LINE SMOOTH",
"817 0 OFFCURVE",
"1063 252 OFFCURVE",
"1131 575 CURVE SMOOTH",
"1205 920 OFFCURVE",
"1057 1155 OFFCURVE",
"675 1155 CURVE SMOOTH",
"364 1155 LINE",
"118 0 LINE"
);
},
{
closed = 1;
nodes = (
"298 55 OFFCURVE",
"233 64 OFFCURVE",
"250 146 CURVE SMOOTH",
"453 1099 LINE",
"669 1099 LINE SMOOTH",
"1000 1099 OFFCURVE",
"1074 845 OFFCURVE",
"1020 593 CURVE SMOOTH",
"957 299 OFFCURVE",
"762 55 OFFCURVE",
"461 55 CURVE SMOOTH",
"340 55 LINE SMOOTH"
);
}
);
};
hints = (
{
origin = "{0, 0}";
scale = "{0.81649, 0.74227}";
type = Corner;
name = _corner.CapRightSerif;
},
{
origin = "{0, 11}";
scale = "{0.74227, 0.74227}";
type = Corner;
name = _corner.CapRightSerif;
},
{
origin = "{0, 12}";
scale = "{0.74227, 0.74227}";
type = Corner;
name = _corner.CapLeftSerif;
}
);
layerId = "34301EF7-A2BE-469F-9697-D6100B11FDFE";
paths = (
{
closed = 1;
nodes = (
"218 0 LINE",
"331 519 LINE",
"380 506 OFFCURVE",
"438 495 OFFCURVE",
"502 495 CURVE SMOOTH",
"746 495 OFFCURVE",
"948 646 OFFCURVE",
"948 889 CURVE SMOOTH",
"948 1036 OFFCURVE",
"874 1155 OFFCURVE",
"643 1155 CURVE SMOOTH",
"364 1155 LINE",
"118 0 LINE"
);
},
{
closed = 1;
nodes = (
"838 694 OFFCURVE",
"695 554 OFFCURVE",
"487 554 CURVE SMOOTH",
"442 554 OFFCURVE",
"392 560 OFFCURVE",
"341 576 CURVE",
"451 1099 LINE",
"584 1099 LINE SMOOTH",
"780 1099 OFFCURVE",
"838 1001 OFFCURVE",
"838 884 CURVE SMOOTH"
);
}
);
width = 919;
},
{
background = {
hints = (
{
origin = "{0, 1}";
type = Corner;
name = _corner.CapRightSerif;
options = 1;
},
{
origin = "{0, 2}";
scale = "{0.85, 1}";
type = Corner;
name = _corner.CapLeftSerif;
}
);
paths = (
{
closed = 1;
nodes = (
"966 1155 LINE",
"344 1155 LINE",
"98 0 LINE",
"753 0 LINE",
"879 362 LINE",
"830 373 LINE",
"821 375 LINE",
"703 119 OFFCURVE",
"596 95 OFFCURVE",
"490 95 CURVE SMOOTH",
"272 94 LINE",
"377 592 LINE",
"296 530 LINE",
"563 530 LINE SMOOTH",
"613 530 OFFCURVE",
"634 509 OFFCURVE",
"630 399 CURVE",
"637 395 LINE",
"684 391 LINE",
"766 763 LINE",
"722 780 LINE",
"714 778 LINE",
"672 677 OFFCURVE",
"634 624 OFFCURVE",
"584 624 CURVE SMOOTH",
"317 624 LINE",
"370 562 LINE",
"487 1115 LINE",
"406 1062 LINE",
"744 1062 LINE SMOOTH",
"829 1062 OFFCURVE",
"867 1008 OFFCURVE",
"855 846 CURVE",
"861 836 LINE",
"912 843 LINE",
"975 1145 LINE"
);
}
);
};
hints = (
{
origin = "{0, 0}";
type = Corner;
name = _corner.CapRightSerif;
options = 1;
},
{
origin = "{0, 11}";
type = Corner;
name = _corner.CapRightSerif;
options = 1;
},
{
origin = "{0, 12}";
scale = "{0.85, 1}";
type = Corner;
name = _corner.CapLeftSerif;
}
);
layerId = "CFF67ECA-3B2D-433B-B605-F38590C8F106";
paths = (
{
closed = 1;
nodes = (
"250 0 LINE",
"354 487 LINE",
"368 486 OFFCURVE",
"398 482 OFFCURVE",
"434 482 CURVE SMOOTH",
"673 482 OFFCURVE",
"894 562 OFFCURVE",
"946 805 CURVE SMOOTH",
"982 977 OFFCURVE",
"927 1155 OFFCURVE",
"658 1155 CURVE SMOOTH",
"344 1155 LINE",
"98 0 LINE"
);
},
{
closed = 1;
nodes = (
"755 611 OFFCURVE",
"598 564 OFFCURVE",
"442 564 CURVE SMOOTH",
"415 564 OFFCURVE",
"391 567 OFFCURVE",
"371 570 CURVE",
"476 1063 LINE",
"575 1063 LINE SMOOTH",
"789 1063 OFFCURVE",
"828 953 OFFCURVE",
"800 824 CURVE SMOOTH"
);
}
);
width = 924;
}
);
leftMetricsKey = H;
unicode = 0050;
},
{
glyphname = Thorn;
lastChange = "2020-06-08 11:57:51 +0000";
layers = (
{
components = (
{
name = I;
}
);
layerId = "6B6AD122-EF8D-49FE-8C69-4BDE8C56BDD8";
paths = (
{
closed = 1;
nodes = (
"351 262 OFFCURVE",
"401 255 OFFCURVE",
"455 255 CURVE SMOOTH",
"696 255 OFFCURVE",
"895 390 OFFCURVE",
"941 604 CURVE SMOOTH",
"972 752 OFFCURVE",
"928 947 OFFCURVE",
"618 947 CURVE SMOOTH",
"403 947 LINE",
"403 833 LINE",
"531 833 LINE SMOOTH",
"692 833 OFFCURVE",
"737 751 OFFCURVE",
"710 621 CURVE SMOOTH",
"679 477 OFFCURVE",
"581 364 OFFCURVE",
"426 364 CURVE SMOOTH",
"390 364 OFFCURVE",
"343 369 OFFCURVE",
"296 379 CURVE",
"297 276 LINE"
);
}
);
width = 988;
},
{
components = (
{
name = I;
}
);
layerId = "CFF67ECA-3B2D-433B-B605-F38590C8F106";
paths = (
{
closed = 1;
nodes = (
"613 282 OFFCURVE",
"834 362 OFFCURVE",
"886 605 CURVE SMOOTH",
"922 777 OFFCURVE",
"867 955 OFFCURVE",
"598 955 CURVE SMOOTH",
"365 955 LINE",
"365 863 LINE",
"515 863 LINE SMOOTH",
"729 863 OFFCURVE",
"768 753 OFFCURVE",
"740 624 CURVE SMOOTH",
"695 411 OFFCURVE",
"538 364 OFFCURVE",
"391 364 CURVE SMOOTH",
"353 364 OFFCURVE",
"321 366 OFFCURVE",
"294 368 CURVE",
"294 287 LINE",
"308 286 OFFCURVE",
"338 282 OFFCURVE",
"374 282 CURVE SMOOTH"
);
}
);
width = 907;
},
{
components = (
{
name = I;
}
);
layerId = "34301EF7-A2BE-469F-9697-D6100B11FDFE";
paths = (
{
closed = 1;
nodes = (
"504 869 LINE SMOOTH",
"700 869 OFFCURVE",
"758 771 OFFCURVE",
"758 654 CURVE SMOOTH",
"758 464 OFFCURVE",
"615 324 OFFCURVE",
"407 324 CURVE SMOOTH",
"362 324 OFFCURVE",
"312 330 OFFCURVE",
"261 346 CURVE",
"251 289 LINE",
"300 276 OFFCURVE",
"358 265 OFFCURVE",
"422 265 CURVE SMOOTH",
"666 265 OFFCURVE",
"868 416 OFFCURVE",
"868 659 CURVE SMOOTH",
"868 806 OFFCURVE",
"794 925 OFFCURVE",
"563 925 CURVE SMOOTH",
"381 925 LINE",
"371 869 LINE"
);
}
);
width = 888;
}
);
leftMetricsKey = H;
rightMetricsKey = P;
unicode = 00DE;
},
{
glyphname = Q;
lastChange = "2020-04-29 09:36:26 +0000";
layers = (
{
components = (
{
name = O;
}
);
layerId = "6B6AD122-EF8D-49FE-8C69-4BDE8C56BDD8";
paths = (
{
closed = 1;
nodes = (
"1201 -169 LINE",
"1188 -153 LINE",
"943 -161 OFFCURVE",
"881 -76 OFFCURVE",
"808 43 CURVE",
"567 -19 LINE",
"688 -189 OFFCURVE",
"812 -293 OFFCURVE",
"1008 -293 CURVE SMOOTH",
"1061 -293 OFFCURVE",
"1117 -285 OFFCURVE",
"1176 -256 CURVE"
);
}
);
width = 1238;
},
{
components = (
{
name = O;
}
);
layerId = "34301EF7-A2BE-469F-9697-D6100B11FDFE";
paths = (
{
closed = 1;
nodes = (
"1118 -424 OFFCURVE",
"1173 -388 OFFCURVE",
"1239 -321 CURVE",
"1216 -295 LINE",
"1168 -333 OFFCURVE",
"1125 -343 OFFCURVE",
"1096 -343 CURVE SMOOTH",
"917 -343 OFFCURVE",
"871 15 OFFCURVE",
"752 28 CURVE",
"664 -22 LINE",
"806 -25 OFFCURVE",
"824 -424 OFFCURVE",
"1052 -424 CURVE SMOOTH"
);
}
);
width = 1302;
},
{
components = (
{
name = O;
}
);
layerId = "CFF67ECA-3B2D-433B-B605-F38590C8F106";
paths = (
{
closed = 1;
nodes = (
"1154 -181 LINE",
"1141 -165 LINE",
"856 -153 OFFCURVE",
"781 -89 OFFCURVE",
"728 30 CURVE",
"557 -19 LINE",
"658 -189 OFFCURVE",
"790 -258 OFFCURVE",
"987 -258 CURVE SMOOTH",
"1029 -258 OFFCURVE",
"1067 -255 OFFCURVE",
"1126 -245 CURVE"
);
}
);
width = 1186;
}
);
leftMetricsKey = O;
unicode = 0051;
},
{
glyphname = R;
lastChange = "2020-06-08 16:14:15 +0000";
layers = (
{
anchors = (
{
name = bottom;
position = "{413, 0}";
},
{
name = top;
position = "{620, 1155}";
}
);
background = {
hints = (
{
origin = "{0, 0}";
scale = "{1.35, 1}";
type = Corner;
name = _corner.CapRightSerif;
options = 1;
},
{
origin = "{0, 11}";
scale = "{0.96, 1}";
type = Corner;
name = _corner.CapRightSerif;
},
{
origin = "{0, 12}";
scale = "{0.96, 1}";
type = Corner;
name = _corner.CapLeftSerif;
}
);
paths = (
{
closed = 1;
nodes = (
"261 0 LINE",
"368 476 LINE",
"406 469 OFFCURVE",
"455 463 OFFCURVE",
"496 463 CURVE SMOOTH",
"737 463 OFFCURVE",
"936 598 OFFCURVE",
"979 798 CURVE SMOOTH",
"1013 960 OFFCURVE",
"969 1155 OFFCURVE",
"679 1155 CURVE SMOOTH",
"285 1155 LINE",
"39 0 LINE"
);
},
{
closed = 1;
nodes = (
"720 685 OFFCURVE",
"622 572 OFFCURVE",
"478 572 CURVE SMOOTH",
"457 572 OFFCURVE",
"425 574 OFFCURVE",
"389 583 CURVE",
"492 1041 LINE",
"572 1041 LINE SMOOTH",
"733 1041 OFFCURVE",
"778 959 OFFCURVE",
"751 832 CURVE SMOOTH"
);
}
);
};
hints = (
{
origin = "{0, 0}";
scale = "{1.152, 1}";
type = Corner;
name = _corner.CapRightSerif;
},
{
origin = "{0, 24}";
type = Corner;
name = _corner.CapRightSerif;
},
{
origin = "{0, 25}";
type = Corner;
name = _corner.CapLeftSerif;
}
);
layerId = "6B6AD122-EF8D-49FE-8C69-4BDE8C56BDD8";
paths = (
{
closed = 1;
nodes = (
"261 0 LINE",
"371 488 LINE",
"416 487 OFFCURVE",
"458 485 OFFCURVE",
"493 485 CURVE SMOOTH",
"575 485 OFFCURVE",
"590 409 OFFCURVE",
"596 352 CURVE SMOOTH",
"633 0 LINE",
"902 0 LINE",
"923 56 LINE",
"922 64 LINE",
"858 100 LINE",
"832 340 LINE SMOOTH",
"823 427 OFFCURVE",
"775 487 OFFCURVE",
"714 509 CURVE",
"716 518 LINE",
"899 578 OFFCURVE",
"990 708 OFFCURVE",
"990 897 CURVE SMOOTH",
"990 1032 OFFCURVE",
"917 1155 OFFCURVE",
"650 1155 CURVE SMOOTH",
"288 1155 LINE",
"42 0 LINE"
);
},
{
closed = 1;
nodes = (
"483 585 OFFCURVE",
"444 584 OFFCURVE",
"391 589 CURVE",
"494 1039 LINE",
"564 1039 LINE SMOOTH",
"709 1039 OFFCURVE",
"758 979 OFFCURVE",
"758 891 CURVE SMOOTH",
"758 739 OFFCURVE",
"658 585 OFFCURVE",
"512 585 CURVE SMOOTH"
);
}
);
width = 1001;
},
{
anchors = (
{
name = bottom;
position = "{507, 0}";
},
{
name = top;
position = "{596, 1155}";
}
);
background = {
hints = (
{
origin = "{0, 0}";
scale = "{0.81649, 0.74227}";
type = Corner;
name = _corner.CapRightSerif;
},
{
origin = "{0, 11}";
scale = "{0.74227, 0.74227}";
type = Corner;
name = _corner.CapRightSerif;
},
{
origin = "{0, 12}";
scale = "{0.74227, 0.74227}";
type = Corner;
name = _corner.CapLeftSerif;
}
);
paths = (
{
closed = 1;
nodes = (
"217 0 LINE",
"330 519 LINE",
"379 506 OFFCURVE",
"437 495 OFFCURVE",
"501 495 CURVE SMOOTH",
"745 495 OFFCURVE",
"947 646 OFFCURVE",
"947 889 CURVE SMOOTH",
"947 1036 OFFCURVE",
"873 1155 OFFCURVE",
"642 1155 CURVE SMOOTH",
"363 1155 LINE",
"117 0 LINE"
);
},
{
closed = 1;
nodes = (
"837 694 OFFCURVE",
"694 554 OFFCURVE",
"486 554 CURVE SMOOTH",
"441 554 OFFCURVE",
"391 560 OFFCURVE",
"340 576 CURVE",
"450 1099 LINE",
"583 1099 LINE SMOOTH",
"779 1099 OFFCURVE",
"837 1001 OFFCURVE",
"837 884 CURVE SMOOTH"
);
}
);
};
hints = (
{
origin = "{0, 0}";
scale = "{0.81649, 0.74227}";
type = Corner;
name = _corner.CapRightSerif;
},
{
origin = "{0, 24}";
scale = "{0.74227, 0.74227}";
type = Corner;
name = _corner.CapRightSerif;
},
{
origin = "{0, 25}";
scale = "{0.74227, 0.74227}";
type = Corner;
name = _corner.CapLeftSerif;
}
);
layerId = "34301EF7-A2BE-469F-9697-D6100B11FDFE";
paths = (
{
closed = 1;
nodes = (
"217 0 LINE",
"338 555 LINE",
"388 553 OFFCURVE",
"434 551 OFFCURVE",
"487 551 CURVE SMOOTH",
"595 551 OFFCURVE",
"656 508 OFFCURVE",
"677 403 CURVE SMOOTH",
"758 0 LINE",
"928 0 LINE",
"944 42 LINE",
"942 47 LINE",
"848 75 LINE",
"783 398 LINE SMOOTH",
"758 524 OFFCURVE",
"707 548 OFFCURVE",
"631 566 CURVE",
"631 572 LINE",
"808 616 OFFCURVE",
"928 760 OFFCURVE",
"928 918 CURVE SMOOTH",
"928 1059 OFFCURVE",
"837 1155 OFFCURVE",
"636 1155 CURVE SMOOTH",
"364 1155 LINE",
"118 0 LINE"
);
},
{
closed = 1;
nodes = (
"441 603 OFFCURVE",
"394 605 OFFCURVE",
"347 612 CURVE",
"450 1099 LINE",
"607 1099 LINE SMOOTH",
"769 1099 OFFCURVE",
"814 1012 OFFCURVE",
"814 918 CURVE SMOOTH",
"814 752 OFFCURVE",
"679 597 OFFCURVE",
"505 601 CURVE SMOOTH"
);
}
);
width = 974;
},
{
anchors = (
{
name = bottom;
position = "{456, 0}";
},
{
name = top;
position = "{619, 1155}";
}
);
background = {
paths = (
{
closed = 0;
nodes = (
"809 404 LINE SMOOTH",
"869 0 LINE"
);
}
);
};
hints = (
{
origin = "{0, 0}";
type = Corner;
name = _corner.CapRightSerif;
options = 1;
},
{
origin = "{0, 24}";
type = Corner;
name = _corner.CapRightSerif;
options = 1;
},
{
origin = "{0, 25}";
scale = "{0.85, 1}";
type = Corner;
name = _corner.CapLeftSerif;
}
);
layerId = "CFF67ECA-3B2D-433B-B605-F38590C8F106";
paths = (
{
closed = 1;
nodes = (
"248 0 LINE",
"357 514 LINE",
"415 510 OFFCURVE",
"468 508 OFFCURVE",
"540 508 CURVE SMOOTH",
"618 508 OFFCURVE",
"640 467 OFFCURVE",
"649 404 CURVE SMOOTH",
"709 0 LINE",
"942 0 LINE",
"957 42 LINE",
"954 52 LINE",
"851 87 LINE",
"806 395 LINE SMOOTH",
"791 496 OFFCURVE",
"745 531 OFFCURVE",
"677 540 CURVE",
"678 546 LINE",
"856 605 OFFCURVE",
"978 748 OFFCURVE",
"978 915 CURVE SMOOTH",
"978 1040 OFFCURVE",
"909 1155 OFFCURVE",
"699 1155 CURVE SMOOTH",
"344 1155 LINE",
"98 0 LINE"
);
},
{
closed = 1;
nodes = (
"469 598 OFFCURVE",
"414 601 OFFCURVE",
"377 604 CURVE",
"473 1061 LINE",
"575 1061 LINE SMOOTH",
"776 1061 OFFCURVE",
"830 974 OFFCURVE",
"830 872 CURVE SMOOTH",
"830 729 OFFCURVE",
"698 598 OFFCURVE",
"536 598 CURVE SMOOTH"
);
}
);
width = 1006;
}
);
leftMetricsKey = H;
unicode = 0052;
},
{
glyphname = S;
lastChange = "2020-06-08 15:59:42 +0000";
layers = (
{
anchors = (
{
name = bottom;
position = "{395, 0}";
},
{
name = top;
position = "{586, 1154}";
}
);
layerId = "6B6AD122-EF8D-49FE-8C69-4BDE8C56BDD8";
paths = (
{
closed = 1;
nodes = (
"623 -30 OFFCURVE",
"810 101 OFFCURVE",
"810 332 CURVE SMOOTH",
"810 678 OFFCURVE",
"336 688 OFFCURVE",
"336 903 CURVE SMOOTH",
"336 985 OFFCURVE",
"404 1058 OFFCURVE",
"514 1058 CURVE SMOOTH",
"675 1058 OFFCURVE",
"746 901 OFFCURVE",
"761 849 CURVE",
"846 857 LINE",
"898 1127 LINE",
"850 1152 OFFCURVE",
"762 1185 OFFCURVE",
"637 1185 CURVE SMOOTH",
"370 1185 OFFCURVE",
"159 1038 OFFCURVE",
"159 799 CURVE SMOOTH",
"159 471 OFFCURVE",
"605 486 OFFCURVE",
"605 250 CURVE SMOOTH",
"605 164 OFFCURVE",
"543 79 OFFCURVE",
"429 79 CURVE SMOOTH",
"273 79 OFFCURVE",
"200 236 OFFCURVE",
"159 357 CURVE",
"66 347 LINE",
"33 22 LINE",
"81 6 OFFCURVE",
"213 -30 OFFCURVE",
"353 -30 CURVE SMOOTH"
);
}
);
width = 905;
},
{
anchors = (
{
name = bottom;
position = "{313, 0}";
},
{
name = top;
position = "{557, 1155}";
}
);
background = {
paths = (
{
closed = 1;
nodes = (
"517 -41 OFFCURVE",
"663 91 OFFCURVE",
"663 277 CURVE SMOOTH",
"663 660 OFFCURVE",
"80 568 OFFCURVE",
"80 897 CURVE SMOOTH",
"80 1030 OFFCURVE",
"183 1113 OFFCURVE",
"315 1113 CURVE SMOOTH",
"434 1113 OFFCURVE",
"530 1045 OFFCURVE",
"560 841 CURVE",
"602 845 LINE",
"596 1089 LINE",
"505 1155 OFFCURVE",
"408 1175 OFFCURVE",
"336 1175 CURVE SMOOTH",
"149 1175 OFFCURVE",
"-24 1053 OFFCURVE",
"-24 848 CURVE SMOOTH",
"-24 467 OFFCURVE",
"557 555 OFFCURVE",
"557 222 CURVE SMOOTH",
"557 60 OFFCURVE",
"408 19 OFFCURVE",
"308 19 CURVE SMOOTH",
"176 19 OFFCURVE",
"77 89 OFFCURVE",
"4 282 CURVE",
"-37 278 LINE",
"12 29 LINE",
"104 -19 OFFCURVE",
"199 -41 OFFCURVE",
"291 -41 CURVE SMOOTH"
);
}
);
};
layerId = "34301EF7-A2BE-469F-9697-D6100B11FDFE";
paths = (
{
closed = 1;
nodes = (
"542 -41 OFFCURVE",
"715 115 OFFCURVE",
"715 314 CURVE SMOOTH",
"715 619 OFFCURVE",
"277 596 OFFCURVE",
"277 883 CURVE SMOOTH",
"277 1023 OFFCURVE",
"381 1113 OFFCURVE",
"521 1113 CURVE SMOOTH",
"637 1113 OFFCURVE",
"724 1050 OFFCURVE",
"735 866 CURVE",
"776 865 LINE",
"816 1093 LINE",
"738 1152 OFFCURVE",
"645 1175 OFFCURVE",
"561 1175 CURVE SMOOTH",
"352 1175 OFFCURVE",
"171 1039 OFFCURVE",
"171 827 CURVE SMOOTH",
"171 511 OFFCURVE",
"603 533 OFFCURVE",
"603 267 CURVE SMOOTH",
"603 131 OFFCURVE",
"495 20 OFFCURVE",
"341 20 CURVE SMOOTH",
"224 20 OFFCURVE",
"112 85 OFFCURVE",
"80 278 CURVE",
"39 271 LINE",
"40 31 LINE",
"121 -17 OFFCURVE",
"231 -41 OFFCURVE",
"316 -41 CURVE SMOOTH"
);
}
);
width = 785;
},
{
anchors = (
{
name = bottom;
position = "{334, 0}";
},
{
name = top;
position = "{570, 1155}";
}
);
background = {
paths = (
{
closed = 1;
nodes = (
"564 -37 OFFCURVE",
"773 125 OFFCURVE",
"773 353 CURVE SMOOTH",
"773 661 OFFCURVE",
"308 608 OFFCURVE",
"308 831 CURVE SMOOTH",
"308 964 OFFCURVE",
"433 1070 OFFCURVE",
"581 1070 CURVE SMOOTH",
"696 1070 OFFCURVE",
"770 1011 OFFCURVE",
"770 848 CURVE SMOOTH",
"770 834 OFFCURVE",
"769 819 OFFCURVE",
"768 803 CURVE",
"830 805 LINE",
"891 1111 LINE",
"821 1157 OFFCURVE",
"723 1179 OFFCURVE",
"635 1179 CURVE SMOOTH",
"385 1179 OFFCURVE",
"168 1013 OFFCURVE",
"168 779 CURVE SMOOTH",
"168 483 OFFCURVE",
"616 535 OFFCURVE",
"616 309 CURVE SMOOTH",
"616 170 OFFCURVE",
"493 72 OFFCURVE",
"346 72 CURVE SMOOTH",
"212 72 OFFCURVE",
"128 142 OFFCURVE",
"103 350 CURVE",
"44 348 LINE",
"21 17 LINE",
"108 -15 OFFCURVE",
"206 -37 OFFCURVE",
"309 -37 CURVE SMOOTH"
);
}
);
};
layerId = "CFF67ECA-3B2D-433B-B605-F38590C8F106";
paths = (
{
closed = 1;
nodes = (
"570 -37 OFFCURVE",
"771 98 OFFCURVE",
"771 326 CURVE SMOOTH",
"771 654 OFFCURVE",
"308 602 OFFCURVE",
"308 868 CURVE SMOOTH",
"308 978 OFFCURVE",
"388 1075 OFFCURVE",
"536 1075 CURVE SMOOTH",
"693 1075 OFFCURVE",
"759 972 OFFCURVE",
"748 803 CURVE",
"810 805 LINE",
"871 1111 LINE",
"801 1157 OFFCURVE",
"703 1179 OFFCURVE",
"615 1179 CURVE SMOOTH",
"365 1179 OFFCURVE",
"169 1041 OFFCURVE",
"169 811 CURVE SMOOTH",
"169 491 OFFCURVE",
"620 530 OFFCURVE",
"620 277 CURVE SMOOTH",
"620 145 OFFCURVE",
"503 64 OFFCURVE",
"366 64 CURVE SMOOTH",
"232 64 OFFCURVE",
"144 142 OFFCURVE",
"119 350 CURVE",
"60 348 LINE",
"37 17 LINE",
"124 -15 OFFCURVE",
"222 -37 OFFCURVE",
"325 -37 CURVE SMOOTH"
);
}
);
width = 842;
}
);
unicode = 0053;
},
{
glyphname = Germandbls;
lastChange = "2020-06-08 16:15:55 +0000";
layers = (
{
hints = (
{
origin = "{0, 15}";
type = Corner;
name = _corner.CapLeftSerif;
}
);
layerId = "6B6AD122-EF8D-49FE-8C69-4BDE8C56BDD8";
paths = (
{
closed = 1;
nodes = (
"928 -30 OFFCURVE",
"1150 102 OFFCURVE",
"1150 359 CURVE SMOOTH",
"1150 542 OFFCURVE",
"1030 649 OFFCURVE",
"739 649 CURVE",
"818 591 LINE",
"1276 1095 LINE",
"1264 1126 LINE",
"1140 1149 OFFCURVE",
"1014 1185 OFFCURVE",
"871 1185 CURVE SMOOTH",
"535 1185 OFFCURVE",
"259 1022 OFFCURVE",
"195 719 CURVE SMOOTH",
"42 0 LINE",
"269 0 LINE",
"417 693 LINE SMOOTH",
"462 904 OFFCURVE",
"594 1062 OFFCURVE",
"830 1062 CURVE SMOOTH",
"918 1062 OFFCURVE",
"982 1031 OFFCURVE",
"1059 1005 CURVE",
"1041 1095 LINE",
"612 620 LINE",
"619 570 LINE",
"667 570 LINE SMOOTH",
"872 570 OFFCURVE",
"920 432 OFFCURVE",
"920 328 CURVE SMOOTH",
"920 194 OFFCURVE",
"845 74 OFFCURVE",
"709 74 CURVE SMOOTH",
"606 74 OFFCURVE",
"532 144 OFFCURVE",
"514 294 CURVE",
"431 282 LINE",
"403 19 LINE",
"496 -21 OFFCURVE",
"593 -30 OFFCURVE",
"671 -30 CURVE SMOOTH"
);
}
);
width = 1221;
},
{
hints = (
{
origin = "{0, 15}";
type = Corner;
name = _corner.CapLeftSerif;
}
);
layerId = "CFF67ECA-3B2D-433B-B605-F38590C8F106";
paths = (
{
closed = 1;
nodes = (
"948 -30 OFFCURVE",
"1161 127 OFFCURVE",
"1161 377 CURVE SMOOTH",
"1161 555 OFFCURVE",
"1049 666 OFFCURVE",
"763 666 CURVE",
"787 591 LINE",
"1265 1095 LINE",
"1256 1127 LINE",
"1158 1146 OFFCURVE",
"1028 1185 OFFCURVE",
"886 1185 CURVE SMOOTH",
"549 1185 OFFCURVE",
"335 1018 OFFCURVE",
"279 755 CURVE SMOOTH",
"118 0 LINE",
"271 0 LINE",
"432 758 LINE SMOOTH",
"468 929 OFFCURVE",
"609 1083 OFFCURVE",
"844 1083 CURVE SMOOTH",
"933 1083 OFFCURVE",
"1004 1061 OFFCURVE",
"1074 1025 CURVE",
"1097 1095 LINE",
"645 620 LINE",
"648 570 LINE",
"704 570 LINE SMOOTH",
"923 570 OFFCURVE",
"988 457 OFFCURVE",
"988 349 CURVE SMOOTH",
"988 200 OFFCURVE",
"872 59 OFFCURVE",
"707 59 CURVE SMOOTH",
"549 59 OFFCURVE",
"512 182 OFFCURVE",
"503 261 CURVE",
"445 267 LINE",
"403 49 LINE",
"467 4 OFFCURVE",
"545 -30 OFFCURVE",
"672 -30 CURVE SMOOTH"
);
}
);
width = 1236;
},
{
background = {
paths = (
{
closed = 0;
nodes = (
"955 1095 LINE",
"563 621 LINE"
);
}
);
};
hints = (
{
origin = "{0, 15}";
scale = "{0.74, 0.74}";
type = Corner;
name = _corner.CapLeftSerif;
}
);
layerId = "34301EF7-A2BE-469F-9697-D6100B11FDFE";
paths = (
{
closed = 1;
nodes = (
"942 -30 OFFCURVE",
"1113 147 OFFCURVE",
"1113 353 CURVE SMOOTH",
"1113 508 OFFCURVE",
"1019 622 OFFCURVE",
"719 622 CURVE",
"711 582 LINE",
"1227 1101 LINE",
"1226 1125 LINE",
"1131 1158 OFFCURVE",
"1000 1185 OFFCURVE",
"861 1185 CURVE SMOOTH",
"521 1185 OFFCURVE",
"328 1029 OFFCURVE",
"268 746 CURVE SMOOTH",
"109 0 LINE",
"225 0 LINE",
"391 781 LINE SMOOTH",
"432 972 OFFCURVE",
"572 1126 OFFCURVE",
"827 1126 CURVE SMOOTH",
"916 1126 OFFCURVE",
"1002 1101 OFFCURVE",
"1095 1077 CURVE",
"1098 1107 LINE",
"613 616 LINE",
"615 571 LINE",
"689 571 LINE SMOOTH",
"917 571 OFFCURVE",
"979 487 OFFCURVE",
"979 366 CURVE SMOOTH",
"979 220 OFFCURVE",
"886 33 OFFCURVE",
"690 33 CURVE SMOOTH",
"600 33 OFFCURVE",
"476 73 OFFCURVE",
"455 303 CURVE",
"412 296 LINE",
"384 47 LINE",
"459 10 OFFCURVE",
"551 -30 OFFCURVE",
"676 -30 CURVE SMOOTH"
);
}
);
width = 1178;
}
);
leftMetricsKey = H;
rightMetricsKey = B;
unicode = 1E9E;
},
{
glyphname = T;
lastChange = "2020-06-08 16:15:00 +0000";
layers = (
{
anchors = (
{
name = bottom;
position = "{420, 0}";
},
{
name = center;
position = "{551, 618}";
},
{
name = top;
position = "{652, 1155}";
}
);
hints = (
{
origin = "{0, 0}";
scale = "{0.96, 0.96}";
type = Corner;
name = _corner.CapRightSerif;
},
{
origin = "{0, 3}";
scale = "{0.96, 0.96}";
type = Corner;
name = _corner.CapLeftSerif;
}
);
layerId = "6B6AD122-EF8D-49FE-8C69-4BDE8C56BDD8";
paths = (
{
closed = 1;
nodes = (
"540 0 LINE",
"786 1155 LINE",
"545 1155 LINE",
"299 0 LINE"
);
},
{
closed = 1;
nodes = (
"206 835 LINE",
"295 967 OFFCURVE",
"362 1043 OFFCURVE",
"477 1043 CURVE SMOOTH",
"818 1043 LINE SMOOTH",
"933 1043 OFFCURVE",
"964 985 OFFCURVE",
"998 853 CURVE",
"1001 840 LINE",
"1073 847 LINE",
"1129 1148 LINE",
"1104 1170 LINE",
"1058 1165 OFFCURVE",
"997 1155 OFFCURVE",
"950 1155 CURVE SMOOTH",
"367 1155 LINE SMOOTH",
"320 1155 OFFCURVE",
"264 1163 OFFCURVE",
"218 1168 CURVE",
"195 1153 LINE",
"126 847 LINE",
"198 840 LINE"
);
}
);
width = 1015;
},
{
anchors = (
{
name = bottom;
position = "{433, 0}";
},
{
name = center;
position = "{564, 618}";
},
{
name = top;
position = "{677, 1155}";
}
);
background = {
hints = (
{
origin = "{0, 0}";
type = Corner;
name = _corner.CapRightSerif;
options = 1;
},
{
origin = "{0, 1}";
scale = "{0.85, 1}";
type = Corner;
name = _corner.CapLeftSerif;
},
{
origin = "{0, 2}";
type = Corner;
name = _corner.CapRightSerif;
options = 1;
},
{
origin = "{0, 3}";
scale = "{0.85, 1}";
type = Corner;
name = _corner.CapLeftSerif;
}
);
paths = (
{
closed = 1;
nodes = (
"503 0 LINE",
"749 1155 LINE",
"599 1155 LINE",
"353 0 LINE"
);
}
);
};
hints = (
{
origin = "{0, 0}";
type = Corner;
name = _corner.CapRightSerif;
options = 1;
},
{
origin = "{0, 3}";
type = Corner;
name = _corner.CapLeftSerif;
}
);
layerId = "CFF67ECA-3B2D-433B-B605-F38590C8F106";
paths = (
{
closed = 1;
nodes = (
"504 0 LINE",
"750 1155 LINE",
"598 1155 LINE",
"352 0 LINE"
);
},
{
closed = 1;
nodes = (
"193 836 LINE",
"277 992 OFFCURVE",
"314 1058 OFFCURVE",
"389 1058 CURVE SMOOTH",
"930 1058 LINE SMOOTH",
"1005 1058 OFFCURVE",
"1013 1004 OFFCURVE",
"1032 848 CURVE",
"1037 838 LINE",
"1089 845 LINE",
"1145 1166 LINE",
"1129 1178 LINE",
"1096 1171 OFFCURVE",
"983 1155 OFFCURVE",
"964 1155 CURVE SMOOTH",
"381 1155 LINE SMOOTH",
"362 1155 OFFCURVE",
"255 1169 OFFCURVE",
"223 1176 CURVE",
"210 1166 LINE",
"134 845 LINE",
"184 838 LINE"
);
}
);
width = 1039;
},
{
anchors = (
{
name = bottom;
position = "{453, 40}";
},
{
name = center;
position = "{575, 618}";
},
{
name = top;
position = "{686, 1155}";
}
);
background = {
hints = (
{
origin = "{0, 0}";
scale = "{0.74227, 0.74227}";
type = Corner;
name = _corner.CapRightSerif;
},
{
origin = "{0, 1}";
scale = "{0.74227, 0.74227}";
type = Corner;
name = _corner.CapLeftSerif;
},
{
origin = "{0, 2}";
scale = "{0.74227, 0.74227}";
type = Corner;
name = _corner.CapRightSerif;
},
{
origin = "{0, 3}";
scale = "{0.74227, 0.74227}";
type = Corner;
name = _corner.CapLeftSerif;
}
);
paths = (
{
closed = 1;
nodes = (
"493 0 LINE",
"739 1155 LINE",
"639 1155 LINE",
"393 0 LINE"
);
}
);
};
hints = (
{
origin = "{0, 0}";
scale = "{0.74227, 0.74227}";
type = Corner;
name = _corner.CapRightSerif;
},
{
origin = "{0, 3}";
scale = "{0.74227, 0.74227}";
type = Corner;
name = _corner.CapLeftSerif;
}
);
layerId = "34301EF7-A2BE-469F-9697-D6100B11FDFE";
paths = (
{
closed = 1;
nodes = (
"493 0 LINE",
"739 1155 LINE",
"639 1155 LINE",
"393 0 LINE"
);
},
{
closed = 1;
nodes = (
"184 888 LINE",
"245 1000 OFFCURVE",
"303 1097 OFFCURVE",
"408 1097 CURVE SMOOTH",
"949 1097 LINE SMOOTH",
"1054 1097 OFFCURVE",
"1070 1008 OFFCURVE",
"1084 896 CURVE",
"1090 888 LINE",
"1126 895 LINE",
"1170 1178 LINE",
"1156 1190 LINE",
"1123 1183 OFFCURVE",
"1057 1155 OFFCURVE",
"988 1155 CURVE SMOOTH",
"385 1155 LINE SMOOTH",
"316 1155 OFFCURVE",
"261 1181 OFFCURVE",
"230 1188 CURVE",
"215 1178 LINE",
"141 895 LINE",
"176 888 LINE"
);
}
);
width = 1045;
}
);
unicode = 0054;
},
{
glyphname = Tbar;
lastChange = "2020-06-08 16:14:39 +0000";
layers = (
{
components = (
{
name = T;
}
);
layerId = "6B6AD122-EF8D-49FE-8C69-4BDE8C56BDD8";
paths = (
{
closed = 1;
nodes = (
"897 503 LINE",
"908 512 LINE",
"922 598 LINE",
"915 607 LINE",
"159 607 LINE",
"148 598 LINE",
"130 512 LINE",
"137 503 LINE"
);
}
);
width = 1015;
},
{
components = (
{
name = T;
}
);
layerId = "CFF67ECA-3B2D-433B-B605-F38590C8F106";
paths = (
{
closed = 1;
nodes = (
"923 522 LINE",
"934 531 LINE",
"944 597 LINE",
"937 606 LINE",
"167 606 LINE",
"157 597 LINE",
"146 531 LINE",
"153 522 LINE"
);
}
);
width = 1039;
},
{
components = (
{
name = T;
}
);
layerId = "34301EF7-A2BE-469F-9697-D6100B11FDFE";
paths = (
{
closed = 1;
nodes = (
"901 547 LINE",
"912 556 LINE",
"920 602 LINE",
"913 611 LINE",
"223 611 LINE",
"212 602 LINE",
"204 556 LINE",
"211 547 LINE"
);
}
);
width = 1045;
}
);
unicode = 0166;
},
{
glyphname = U;
lastChange = "2020-06-08 16:10:48 +0000";
layers = (
{
anchors = (
{
name = bottom;
position = "{459, 0}";
},
{
name = ogonek;
position = "{662, 10}";
},
{
name = top;
position = "{721, 1155}";
},
{
name = topright;
position = "{1136, 1157}";
}
);
hints = (
{
origin = "{0, 0}";
type = Corner;
name = _corner.CapLeftSerif;
},
{
origin = "{0, 1}";
type = Corner;
name = _corner.CapRightSerif;
},
{
origin = "{0, 9}";
type = Corner;
name = _corner.CapLeftSerif;
},
{
origin = "{0, 10}";
type = Corner;
name = _corner.CapRightSerif;
}
);
layerId = "6B6AD122-EF8D-49FE-8C69-4BDE8C56BDD8";
paths = (
{
closed = 1;
nodes = (
"490 1157 LINE",
"266 1157 LINE",
"101 381 LINE SMOOTH",
"48 130 OFFCURVE",
"194 -30 OFFCURVE",
"462 -30 CURVE SMOOTH",
"684 -30 OFFCURVE",
"906 79 OFFCURVE",
"974 397 CURVE SMOOTH",
"1136 1157 LINE",
"1011 1157 LINE",
"851 407 LINE SMOOTH",
"813 227 OFFCURVE",
"694 127 OFFCURVE",
"543 127 CURVE SMOOTH",
"402 127 OFFCURVE",
"287 206 OFFCURVE",
"329 401 CURVE SMOOTH"
);
}
);
width = 1093;
},
{
anchors = (
{
name = bottom;
position = "{506, 0}";
},
{
name = ogonek;
position = "{775, 10}";
},
{
name = top;
position = "{768, 1155}";
},
{
name = topright;
position = "{1340, 1155}";
}
);
background = {
hints = (
{
origin = "{0, 0}";
scale = "{0.74227, 0.74227}";
type = Corner;
name = _corner.CapRightSerif;
},
{
origin = "{0, 3}";
scale = "{0.74227, 0.74227}";
type = Corner;
name = _corner.CapLeftSerif;
}
);
paths = (
{
closed = 1;
nodes = (
"214 0 LINE",
"460 1155 LINE",
"360 1155 LINE",
"114 0 LINE"
);
}
);
};
hints = (
{
origin = "{0, 0}";
scale = "{0.74227, 0.74227}";
type = Corner;
name = _corner.CapLeftSerif;
},
{
origin = "{0, 1}";
scale = "{0.74227, 0.74227}";
type = Corner;
name = _corner.CapRightSerif;
},
{
origin = "{0, 9}";
scale = "{0.74227, 0.74227}";
type = Corner;
name = _corner.CapLeftSerif;
},
{
origin = "{0, 10}";
scale = "{0.74227, 0.74227}";
type = Corner;
name = _corner.CapRightSerif;
}
);
layerId = "34301EF7-A2BE-469F-9697-D6100B11FDFE";
paths = (
{
closed = 1;
nodes = (
"461 1155 LINE",
"359 1155 LINE",
"193 376 LINE SMOOTH",
"140 126 OFFCURVE",
"273 -30 OFFCURVE",
"553 -30 CURVE SMOOTH",
"802 -30 OFFCURVE",
"1011 89 OFFCURVE",
"1076 392 CURVE SMOOTH",
"1239 1155 LINE",
"1171 1155 LINE",
"1009 394 LINE SMOOTH",
"959 161 OFFCURVE",
"787 44 OFFCURVE",
"584 44 CURVE SMOOTH",
"412 44 OFFCURVE",
"241 121 OFFCURVE",
"299 395 CURVE SMOOTH"
);
}
);
width = 1257;
},
{
anchors = (
{
name = bottom;
position = "{516, 0}";
},
{
name = ogonek;
position = "{709, 10}";
},
{
name = top;
position = "{778, 1155}";
},
{
name = topright;
position = "{1350, 1155}";
}
);
background = {
hints = (
{
origin = "{0, 0}";
type = Corner;
name = _corner.CapRightSerif;
options = 1;
},
{
origin = "{0, 1}";
scale = "{0.85, 1}";
type = Corner;
name = _corner.CapLeftSerif;
},
{
origin = "{0, 2}";
type = Corner;
name = _corner.CapRightSerif;
options = 1;
},
{
origin = "{0, 3}";
scale = "{0.85, 1}";
type = Corner;
name = _corner.CapLeftSerif;
}
);
paths = (
{
closed = 1;
nodes = (
"234 0 LINE",
"480 1155 LINE",
"330 1155 LINE",
"84 0 LINE"
);
}
);
};
hints = (
{
origin = "{0, 1}";
type = Corner;
name = _corner.CapRightSerif;
options = 1;
},
{
origin = "{0, 10}";
type = Corner;
name = _corner.CapRightSerif;
options = 1;
},
{
origin = "{0, 0}";
scale = "{0.85, 1}";
type = Corner;
name = _corner.CapLeftSerif;
},
{
origin = "{0, 9}";
scale = "{0.85, 1}";
type = Corner;
name = _corner.CapLeftSerif;
}
);
layerId = "CFF67ECA-3B2D-433B-B605-F38590C8F106";
paths = (
{
closed = 1;
nodes = (
"489 1155 LINE",
"330 1155 LINE",
"158 357 LINE SMOOTH",
"108 127 OFFCURVE",
"231 -30 OFFCURVE",
"493 -30 CURVE SMOOTH",
"713 -30 OFFCURVE",
"945 82 OFFCURVE",
"1009 379 CURVE SMOOTH",
"1176 1155 LINE",
"1061 1155 LINE",
"895 385 LINE SMOOTH",
"851 179 OFFCURVE",
"685 82 OFFCURVE",
"526 82 CURVE SMOOTH",
"397 82 OFFCURVE",
"271 144 OFFCURVE",
"321 375 CURVE SMOOTH"
);
}
);
width = 1185;
}
);
unicode = 0055;
},
{
glyphname = V;
lastChange = "2020-06-08 15:49:38 +0000";
layers = (
{
layerId = "6B6AD122-EF8D-49FE-8C69-4BDE8C56BDD8";
paths = (
{
closed = 1;
nodes = (
"186 1073 OFFCURVE",
"202 1044 OFFCURVE",
"215 966 CURVE SMOOTH",
"373 0 LINE",
"553 0 LINE",
"1047 888 LINE SMOOTH",
"1098 979 OFFCURVE",
"1161 1061 OFFCURVE",
"1209 1092 CURVE",
"1203 1155 LINE",
"945 1155 LINE",
"923 1102 LINE",
"989 1053 OFFCURVE",
"960 984 OFFCURVE",
"892 860 CURVE SMOOTH",
"568 273 LINE",
"463 900 LINE SMOOTH",
"451 971 OFFCURVE",
"473 1040 OFFCURVE",
"566 1098 CURVE",
"558 1155 LINE",
"179 1155 LINE",
"158 1100 LINE"
);
}
);
width = 1079;
},
{
layerId = "CFF67ECA-3B2D-433B-B605-F38590C8F106";
paths = (
{
closed = 1;
nodes = (
"190 1089 OFFCURVE",
"228 1065 OFFCURVE",
"242 982 CURVE SMOOTH",
"409 0 LINE",
"544 0 LINE",
"1091 974 LINE SMOOTH",
"1134 1051 OFFCURVE",
"1185 1081 OFFCURVE",
"1230 1098 CURVE",
"1219 1155 LINE",
"888 1155 LINE",
"879 1102 LINE",
"1012 1076 OFFCURVE",
"974 982 OFFCURVE",
"936 913 CURVE SMOOTH",
"532 191 LINE",
"403 946 LINE SMOOTH",
"389 1028 OFFCURVE",
"427 1072 OFFCURVE",
"545 1102 CURVE",
"535 1155 LINE",
"166 1155 LINE",
"154 1103 LINE"
);
}
);
width = 1085;
},
{
background = {
hints = (
{
origin = "{0, 0}";
scale = "{0.74227, 0.74227}";
type = Corner;
name = _corner.CapRightSerif;
},
{
origin = "{0, 1}";
scale = "{0.74227, 0.74227}";
type = Corner;
name = _corner.CapLeftSerif;
},
{
origin = "{0, 2}";
scale = "{0.74227, 0.74227}";
type = Corner;
name = _corner.CapRightSerif;
},
{
origin = "{0, 3}";
scale = "{0.74227, 0.74227}";
type = Corner;
name = _corner.CapLeftSerif;
},
{
origin = "{1, 0}";
scale = "{0.74227, 0.74227}";
type = Corner;
name = _corner.CapRightSerif;
},
{
origin = "{1, 1}";
scale = "{0.74227, 0.74227}";
type = Corner;
name = _corner.CapLeftSerif;
},
{
origin = "{1, 2}";
scale = "{0.74227, 0.74227}";
type = Corner;
name = _corner.CapRightSerif;
},
{
origin = "{1, 3}";
scale = "{0.74227, 0.74227}";
type = Corner;
name = _corner.CapLeftSerif;
}
);
paths = (
{
closed = 1;
nodes = (
"967 0 LINE",
"967 1155 LINE",
"847 1155 LINE",
"847 0 LINE"
);
},
{
closed = 1;
nodes = (
"144 0 LINE",
"144 1155 LINE",
"24 1155 LINE",
"24 0 LINE"
);
},
{
closed = 1;
nodes = (
"862 573 LINE",
"862 637 LINE",
"125 637 LINE",
"125 573 LINE"
);
}
);
};
layerId = "34301EF7-A2BE-469F-9697-D6100B11FDFE";
paths = (
{
closed = 1;
nodes = (
"236 1100 OFFCURVE",
"265 1070 OFFCURVE",
"282 984 CURVE SMOOTH",
"483 -20 LINE",
"521 -20 LINE",
"1097 960 LINE SMOOTH",
"1159 1065 OFFCURVE",
"1234 1107 OFFCURVE",
"1282 1121 CURVE",
"1286 1155 LINE",
"920 1155 LINE",
"915 1116 LINE",
"1064 1106 OFFCURVE",
"1042 992 OFFCURVE",
"949 834 CURVE SMOOTH",
"552 158 LINE",
"384 982 LINE SMOOTH",
"366 1072 OFFCURVE",
"419 1106 OFFCURVE",
"553 1117 CURVE",
"555 1155 LINE",
"176 1155 LINE",
"172 1119 LINE"
);
}
);
width = 1133;
}
);
unicode = 0056;
},
{
glyphname = W;
lastChange = "2020-06-08 16:15:36 +0000";
layers = (
{
anchors = (
{
name = bottom;
position = "{748, 0}";
},
{
name = top;
position = "{1020, 1155}";
}
);
background = {
paths = (
{
closed = 1;
nodes = (
"491 0 LINE",
"511 97 LINE",
"284 909 LINE SMOOTH",
"264 980 OFFCURVE",
"254 1042 OFFCURVE",
"324 1100 CURVE",
"324 1111 LINE",
"312 1155 LINE",
"-94 1155 LINE",
"-106 1111 LINE",
"-106 1100 LINE",
"-62 1073 OFFCURVE",
"-38 1035 OFFCURVE",
"-12 957 CURVE SMOOTH",
"302 0 LINE"
);
},
{
closed = 1;
nodes = (
"502 0 LINE",
"786 905 LINE",
"814 1155 LINE",
"701 1155 LINE",
"351 0 LINE"
);
},
{
closed = 1;
nodes = (
"1131 0 LINE",
"1171 148 LINE",
"814 1155 LINE",
"701 1155 LINE",
"665 766 LINE",
"942 0 LINE"
);
},
{
closed = 1;
nodes = (
"1142 0 LINE",
"1387 897 LINE SMOOTH",
"1412 989 OFFCURVE",
"1462 1064 OFFCURVE",
"1514 1095 CURVE",
"1514 1106 LINE",
"1501 1155 LINE",
"1214 1155 LINE",
"1199 1111 LINE",
"1199 1100 LINE",
"1263 1047 OFFCURVE",
"1248 975 OFFCURVE",
"1234 921 CURVE SMOOTH",
"991 0 LINE"
);
}
);
};
layerId = "6B6AD122-EF8D-49FE-8C69-4BDE8C56BDD8";
paths = (
{
closed = 1;
nodes = (
"1165 0 LINE",
"1639 888 LINE SMOOTH",
"1688 980 OFFCURVE",
"1753 1061 OFFCURVE",
"1801 1092 CURVE",
"1795 1155 LINE",
"1540 1155 LINE",
"1518 1102 LINE",
"1584 1053 OFFCURVE",
"1538 961 OFFCURVE",
"1484 858 CURVE SMOOTH",
"1029 0 LINE"
);
},
{
closed = 1;
nodes = (
"501 0 LINE",
"587 157 LINE",
"463 900 LINE SMOOTH",
"451 971 OFFCURVE",
"473 1040 OFFCURVE",
"566 1098 CURVE",
"558 1155 LINE",
"179 1155 LINE",
"158 1100 LINE",
"186 1073 OFFCURVE",
"202 1044 OFFCURVE",
"215 966 CURVE SMOOTH",
"373 0 LINE"
);
},
{
closed = 1;
nodes = (
"521 0 LINE",
"998 925 LINE",
"1099 1175 LINE",
"995 1175 LINE",
"389 0 LINE"
);
},
{
closed = 1;
nodes = (
"1168 0 LINE",
"1243 162 LINE",
"1098 1175 LINE",
"998 1175 LINE",
"899 786 LINE",
"1009 0 LINE"
);
}
);
width = 1671;
},
{
anchors = (
{
name = bottom;
position = "{779, 0}";
},
{
name = top;
position = "{1019, 1155}";
}
);
background = {
paths = (
{
closed = 1;
nodes = (
"437 -20 LINE",
"495 116 LINE",
"369 982 LINE SMOOTH",
"356 1073 OFFCURVE",
"404 1106 OFFCURVE",
"538 1117 CURVE",
"539 1155 LINE",
"160 1155 LINE",
"154 1114 LINE",
"184 1108 OFFCURVE",
"242 1096 OFFCURVE",
"258 984 CURVE SMOOTH",
"404 -20 LINE"
);
},
{
closed = 1;
nodes = (
"407 -20 LINE",
"442 -20 LINE",
"977 1036 LINE",
"1022 1185 LINE",
"987 1185 LINE",
"398 31 LINE"
);
},
{
closed = 1;
nodes = (
"1109 -20 LINE",
"1164 116 LINE",
"1022 1185 LINE",
"1012 1185 LINE",
"945 986 LINE",
"1078 -20 LINE"
);
},
{
closed = 1;
nodes = (
"1078 -20 LINE",
"1121 -20 LINE",
"1665 988 LINE SMOOTH",
"1719 1087 OFFCURVE",
"1785 1107 OFFCURVE",
"1829 1113 CURVE",
"1825 1155 LINE",
"1482 1155 LINE",
"1480 1116 LINE",
"1604 1104 OFFCURVE",
"1642 1096 OFFCURVE",
"1586 991 CURVE SMOOTH",
"1076 31 LINE"
);
}
);
};
layerId = "34301EF7-A2BE-469F-9697-D6100B11FDFE";
paths = (
{
closed = 1;
nodes = (
"464 -20 LINE",
"527 116 LINE",
"381 982 LINE SMOOTH",
"366 1072 OFFCURVE",
"416 1106 OFFCURVE",
"550 1117 CURVE",
"554 1155 LINE",
"176 1155 LINE",
"172 1122 LINE",
"206 1112 OFFCURVE",
"260 1096 OFFCURVE",
"279 984 CURVE SMOOTH",
"450 -20 LINE"
);
},
{
closed = 1;
nodes = (
"488 -20 LINE",
"1017 1059 LINE",
"1041 1186 LINE",
"1007 1186 LINE",
"448 44 LINE",
"450 -20 LINE"
);
},
{
closed = 1;
nodes = (
"1130 -20 LINE",
"1192 116 LINE",
"1041 1186 LINE",
"966 1035 LINE",
"1116 -20 LINE"
);
},
{
closed = 1;
nodes = (
"1756 1096 OFFCURVE",
"1818 1107 OFFCURVE",
"1866 1121 CURVE",
"1870 1155 LINE",
"1504 1155 LINE",
"1499 1116 LINE",
"1648 1106 OFFCURVE",
"1628 995 OFFCURVE",
"1541 834 CURVE SMOOTH",
"1110 31 LINE",
"1116 -20 LINE",
"1154 -20 LINE",
"1673 942 LINE SMOOTH"
);
}
);
width = 1717;
},
{
anchors = (
{
name = bottom;
position = "{734, 0}";
},
{
name = top;
position = "{973, 1173}";
}
);
background = {
paths = (
{
closed = 1;
nodes = (
"503 0 LINE",
"546 131 LINE",
"474 946 LINE SMOOTH",
"467 1028 OFFCURVE",
"498 1072 OFFCURVE",
"645 1102 CURVE",
"647 1112 LINE",
"651 1155 LINE",
"222 1155 LINE",
"210 1111 LINE",
"218 1105 LINE",
"246 1090 OFFCURVE",
"286 1065 OFFCURVE",
"294 982 CURVE SMOOTH",
"384 0 LINE"
);
},
{
closed = 1;
nodes = (
"541 0 LINE",
"1079 1034 LINE",
"1088 1174 LINE",
"1026 1174 LINE",
"418 0 LINE"
);
},
{
closed = 1;
nodes = (
"1172 0 LINE",
"1212 142 LINE",
"1087 1174 LINE",
"1027 1174 LINE",
"940 923 LINE",
"1054 0 LINE"
);
},
{
closed = 1;
nodes = (
"1211 0 LINE",
"1673 974 LINE SMOOTH",
"1710 1052 OFFCURVE",
"1768 1081 OFFCURVE",
"1810 1099 CURVE",
"1811 1108 LINE",
"1816 1155 LINE",
"1451 1155 LINE",
"1437 1111 LINE",
"1446 1105 LINE",
"1585 1076 OFFCURVE",
"1578 1050 OFFCURVE",
"1536 959 CURVE SMOOTH",
"1088 0 LINE"
);
}
);
};
layerId = "CFF67ECA-3B2D-433B-B605-F38590C8F106";
paths = (
{
closed = 1;
nodes = (
"1153 0 LINE",
"1648 974 LINE SMOOTH",
"1688 1053 OFFCURVE",
"1742 1081 OFFCURVE",
"1784 1098 CURVE",
"1776 1155 LINE",
"1449 1155 LINE",
"1437 1102 LINE",
"1573 1076 OFFCURVE",
"1528 970 OFFCURVE",
"1474 863 CURVE SMOOTH",
"1036 0 LINE"
);
},
{
closed = 1;
nodes = (
"490 0 LINE",
"523 131 LINE",
"406 946 LINE SMOOTH",
"394 1028 OFFCURVE",
"430 1072 OFFCURVE",
"548 1102 CURVE",
"538 1155 LINE",
"165 1155 LINE",
"156 1103 LINE",
"188 1089 OFFCURVE",
"229 1065 OFFCURVE",
"241 982 CURVE SMOOTH",
"386 0 LINE"
);
},
{
closed = 1;
nodes = (
"523 0 LINE",
"1032 1051 LINE",
"1049 1173 LINE",
"973 1173 LINE",
"406 0 LINE"
);
},
{
closed = 1;
nodes = (
"1120 0 LINE",
"1158 131 LINE",
"1060 1173 LINE",
"973 1173 LINE",
"925 955 LINE",
"1016 0 LINE"
);
}
);
width = 1639;
}
);
leftKerningGroup = PointDown;
leftMetricsKey = V;
rightKerningGroup = PointDown;
rightMetricsKey = V;
unicode = 0057;
},
{
glyphname = X;
lastChange = "2020-06-08 15:49:11 +0000";
layers = (
{
background = {
paths = (
{
closed = 1;
nodes = (
"593 143 OFFCURVE",
"610 99 OFFCURVE",
"610 88 QCURVE SMOOTH",
"610 65 OFFCURVE",
"564 52 OFFCURVE",
"511 48 QCURVE SMOOTH",
"504 48 OFFCURVE",
"500 31 OFFCURVE",
"500 24 QCURVE SMOOTH",
"500 14 OFFCURVE",
"504 -3 OFFCURVE",
"509 -3 QCURVE SMOOTH",
"523 -3 OFFCURVE",
"583 -1 OFFCURVE",
"617 1 QCURVE SMOOTH",
"688 3 LINE",
"750 3 LINE SMOOTH",
"769 3 OFFCURVE",
"845 1 OFFCURVE",
"923 -1 OFFCURVE",
"989 -3 OFFCURVE",
"1002 -3 QCURVE SMOOTH",
"1008 -3 OFFCURVE",
"1012 18 OFFCURVE",
"1012 27 QCURVE SMOOTH",
"1012 35 OFFCURVE",
"1008 48 OFFCURVE",
"1004 48 QCURVE SMOOTH",
"961 52 OFFCURVE",
"909 61 OFFCURVE",
"866 98 OFFCURVE",
"818 173 OFFCURVE",
"779 242 QCURVE SMOOTH",
"729 327 OFFCURVE",
"617 520 OFFCURVE",
"545 651 QCURVE",
"579 703 OFFCURVE",
"655 818 OFFCURVE",
"693 871 QCURVE SMOOTH",
"729 923 LINE SMOOTH",
"773 985 OFFCURVE",
"828 1055 OFFCURVE",
"879 1091 OFFCURVE",
"936 1105 OFFCURVE",
"981 1108 QCURVE SMOOTH",
"989 1108 OFFCURVE",
"989 1133 QCURVE SMOOTH",
"989 1143 OFFCURVE",
"985 1160 OFFCURVE",
"980 1160 QCURVE SMOOTH",
"968 1160 OFFCURVE",
"915 1158 OFFCURVE",
"858 1156 OFFCURVE",
"803 1154 OFFCURVE",
"788 1154 QCURVE SMOOTH",
"767 1154 OFFCURVE",
"714 1156 OFFCURVE",
"663 1158 OFFCURVE",
"621 1160 OFFCURVE",
"610 1160 QCURVE SMOOTH",
"604 1160 OFFCURVE",
"600 1139 OFFCURVE",
"600 1129 QCURVE SMOOTH",
"600 1122 OFFCURVE",
"604 1108 OFFCURVE",
"610 1108 QCURVE SMOOTH",
"670 1103 OFFCURVE",
"710 1089 OFFCURVE",
"710 1069 QCURVE SMOOTH",
"710 1048 OFFCURVE",
"669 968 OFFCURVE",
"623 902 QCURVE SMOOTH",
"505 731 LINE",
"500 731 LINE",
"367 970 LINE SMOOTH",
"344 1012 OFFCURVE",
"325 1057 OFFCURVE",
"325 1069 QCURVE SMOOTH",
"325 1091 OFFCURVE",
"365 1103 OFFCURVE",
"420 1108 QCURVE",
"426 1110 OFFCURVE",
"430 1125 OFFCURVE",
"430 1133 QCURVE SMOOTH",
"430 1143 OFFCURVE",
"426 1160 OFFCURVE",
"420 1160 QCURVE SMOOTH",
"405 1160 OFFCURVE",
"344 1158 OFFCURVE",
"274 1156 OFFCURVE",
"202 1154 OFFCURVE",
"179 1154 QCURVE SMOOTH",
"158 1154 OFFCURVE",
"84 1156 OFFCURVE",
"5 1158 OFFCURVE",
"-62 1160 OFFCURVE",
"-75 1160 QCURVE SMOOTH",
"-81 1160 OFFCURVE",
"-84 1139 OFFCURVE",
"-84 1129 QCURVE SMOOTH",
"-84 1122 OFFCURVE",
"-81 1108 OFFCURVE",
"-77 1108 QCURVE SMOOTH",
"-33 1105 OFFCURVE",
"20 1095 OFFCURVE",
"65 1057 OFFCURVE",
"115 983 OFFCURVE",
"155 915 QCURVE SMOOTH",
"198 839 OFFCURVE",
"299 672 OFFCURVE",
"359 558 QCURVE",
"321 498 OFFCURVE",
"227 361 OFFCURVE",
"185 300 QCURVE SMOOTH",
"139 234 LINE SMOOTH",
"98 173 OFFCURVE",
"41 103 OFFCURVE",
"-14 65 OFFCURVE",
"-75 52 OFFCURVE",
"-120 48 QCURVE SMOOTH",
"-128 48 OFFCURVE",
"-128 24 QCURVE SMOOTH",
"-128 14 OFFCURVE",
"-124 -3 OFFCURVE",
"-119 -3 QCURVE SMOOTH",
"-107 -3 OFFCURVE",
"-52 -1 OFFCURVE",
"9 1 OFFCURVE",
"65 3 OFFCURVE",
"81 3 QCURVE SMOOTH",
"101 3 OFFCURVE",
"158 1 OFFCURVE",
"213 -1 OFFCURVE",
"259 -3 OFFCURVE",
"270 -3 QCURVE SMOOTH",
"276 -3 OFFCURVE",
"280 18 OFFCURVE",
"280 27 QCURVE SMOOTH",
"280 35 OFFCURVE",
"276 48 OFFCURVE",
"270 48 QCURVE SMOOTH",
"210 54 OFFCURVE",
"158 67 OFFCURVE",
"158 88 QCURVE SMOOTH",
"158 109 OFFCURVE",
"202 189 OFFCURVE",
"248 255 QCURVE SMOOTH",
"399 477 LINE",
"405 477 LINE",
"566 187 LINE SMOOTH"
);
}
);
};
layerId = "6B6AD122-EF8D-49FE-8C69-4BDE8C56BDD8";
paths = (
{
closed = 1;
nodes = (
"198 1155 LINE",
"177 1100 LINE",
"217 1073 OFFCURVE",
"248 1038 OFFCURVE",
"281 965 CURVE SMOOTH",
"609 233 LINE SMOOTH",
"630 186 OFFCURVE",
"613 117 OFFCURVE",
"535 56 CURVE",
"549 0 LINE",
"990 0 LINE",
"1008 57 LINE",
"968 87 OFFCURVE",
"921 138 OFFCURVE",
"898 190 CURVE SMOOTH",
"570 922 LINE SMOOTH",
"549 969 OFFCURVE",
"569 1038 OFFCURVE",
"647 1096 CURVE",
"633 1155 LINE"
);
},
{
closed = 1;
nodes = (
"967 889 LINE SMOOTH",
"1036 966 OFFCURVE",
"1132 1060 OFFCURVE",
"1200 1095 CURVE",
"1188 1155 LINE",
"879 1155 LINE",
"852 1101 LINE",
"901 1054 OFFCURVE",
"897 986 OFFCURVE",
"817 893 CURVE SMOOTH",
"494 521 LINE",
"576 456 LINE"
);
},
{
closed = 1;
nodes = (
"182 266 LINE SMOOTH",
"112 189 OFFCURVE",
"16 95 OFFCURVE",
"-53 64 CURVE",
"-47 0 LINE",
"276 0 LINE",
"296 52 LINE",
"246 101 OFFCURVE",
"249 163 OFFCURVE",
"339 267 CURVE SMOOTH",
"657 634 LINE",
"573 699 LINE"
);
}
);
width = 1107;
},
{
background = {
paths = (
{
closed = 1;
nodes = (
"964 0 LINE",
"969 44 LINE",
"964 54 LINE",
"897 79 OFFCURVE",
"838 115 OFFCURVE",
"798 183 CURVE SMOOTH",
"317 1000 LINE SMOOTH",
"287 1051 OFFCURVE",
"284 1079 OFFCURVE",
"384 1104 CURVE",
"390 1112 LINE",
"382 1155 LINE",
"-23 1155 LINE",
"-29 1114 LINE",
"-24 1104 LINE",
"47 1076 OFFCURVE",
"100 1041 OFFCURVE",
"140 973 CURVE SMOOTH",
"621 155 LINE SMOOTH",
"656 95 OFFCURVE",
"650 74 OFFCURVE",
"550 54 CURVE",
"546 44 LINE",
"554 0 LINE"
);
},
{
closed = 1;
nodes = (
"315 0 LINE",
"321 44 LINE",
"317 54 LINE",
"220 82 OFFCURVE",
"233 94 OFFCURVE",
"266 155 CURVE SMOOTH",
"454 499 LINE",
"395 583 LINE",
"128 165 LINE SMOOTH",
"95 113 OFFCURVE",
"47 79 OFFCURVE",
"-35 54 CURVE",
"-41 44 LINE",
"-35 0 LINE"
);
},
{
closed = 1;
nodes = (
"791 991 LINE SMOOTH",
"827 1047 OFFCURVE",
"880 1080 OFFCURVE",
"963 1104 CURVE",
"967 1114 LINE",
"963 1155 LINE",
"608 1155 LINE",
"601 1111 LINE",
"607 1104 LINE",
"705 1073 OFFCURVE",
"689 1049 OFFCURVE",
"661 1000 CURVE SMOOTH",
"450 626 LINE",
"545 606 LINE"
);
}
);
};
layerId = "CFF67ECA-3B2D-433B-B605-F38590C8F106";
paths = (
{
closed = 1;
nodes = (
"947 0 LINE",
"951 52 LINE",
"891 77 OFFCURVE",
"841 110 OFFCURVE",
"815 178 CURVE SMOOTH",
"506 994 LINE SMOOTH",
"487 1044 OFFCURVE",
"500 1077 OFFCURVE",
"609 1104 CURVE",
"602 1155 LINE",
"218 1155 LINE",
"209 1106 LINE",
"277 1082 OFFCURVE",
"320 1046 OFFCURVE",
"346 978 CURVE SMOOTH",
"655 161 LINE SMOOTH",
"677 102 OFFCURVE",
"657 75 OFFCURVE",
"543 52 CURVE",
"541 0 LINE"
);
},
{
closed = 1;
nodes = (
"291 0 LINE",
"297 48 LINE",
"205 71 OFFCURVE",
"233 146 OFFCURVE",
"295 219 CURVE SMOOTH",
"575 547 LINE",
"515 631 LINE",
"120 170 LINE SMOOTH",
"77 119 OFFCURVE",
"20 81 OFFCURVE",
"-48 56 CURVE",
"-47 0 LINE"
);
},
{
closed = 1;
nodes = (
"1005 986 LINE SMOOTH",
"1052 1041 OFFCURVE",
"1114 1078 OFFCURVE",
"1183 1101 CURVE",
"1175 1155 LINE",
"821 1155 LINE",
"810 1103 LINE",
"919 1086 OFFCURVE",
"893 1010 OFFCURVE",
"818 922 CURVE SMOOTH",
"565 624 LINE",
"625 545 LINE"
);
}
);
width = 1048;
},
{
layerId = "34301EF7-A2BE-469F-9697-D6100B11FDFE";
paths = (
{
closed = 1;
nodes = (
"1015 0 LINE",
"1015 38 LINE",
"954 47 OFFCURVE",
"903 93 OFFCURVE",
"862 171 CURVE SMOOTH",
"448 954 LINE SMOOTH",
"392 1059 OFFCURVE",
"397 1105 OFFCURVE",
"571 1116 CURVE",
"572 1155 LINE",
"176 1155 LINE",
"172 1119 LINE",
"226 1109 OFFCURVE",
"276 1069 OFFCURVE",
"321 984 CURVE SMOOTH",
"750 173 LINE SMOOTH",
"793 92 OFFCURVE",
"705 51 OFFCURVE",
"601 40 CURVE",
"600 0 LINE"
);
},
{
closed = 1;
nodes = (
"1030 989 LINE SMOOTH",
"1097 1058 OFFCURVE",
"1145 1097 OFFCURVE",
"1217 1120 CURVE",
"1213 1155 LINE",
"883 1155 LINE",
"882 1117 LINE",
"988 1104 OFFCURVE",
"985 1028 OFFCURVE",
"876 916 CURVE SMOOTH",
"576 605 LINE",
"605 547 LINE"
);
},
{
closed = 1;
nodes = (
"141 166 LINE SMOOTH",
"74 97 OFFCURVE",
"23 56 OFFCURVE",
"-54 37 CURVE",
"-55 0 LINE",
"289 0 LINE",
"288 38 LINE",
"182 51 OFFCURVE",
"185 126 OFFCURVE",
"300 245 CURVE SMOOTH",
"594 550 LINE",
"591 635 LINE"
);
}
);
width = 1105;
}
);
unicode = 0058;
},
{
glyphname = Y;
lastChange = "2020-06-08 16:15:16 +0000";
layers = (
{
anchors = (
{
name = bottom;
position = "{439, 0}";
},
{
name = top;
position = "{701, 1155}";
},
{
name = topleft;
position = "{196, 1155}";
}
);
background = {
hints = (
{
origin = "{0, 0}";
type = Corner;
name = _corner.CapRightSerif;
},
{
origin = "{0, 1}";
type = Corner;
name = _corner.CapLeftSerif;
},
{
origin = "{0, 2}";
type = Corner;
name = _corner.CapRightSerif;
},
{
origin = "{0, 3}";
type = Corner;
name = _corner.CapLeftSerif;
}
);
paths = (
{
closed = 1;
nodes = (
"555 0 LINE",
"801 1155 LINE",
"575 1155 LINE",
"329 0 LINE"
);
}
);
};
hints = (
{
origin = "{0, 0}";
scale = "{0.96, 0.96}";
type = Corner;
name = _corner.CapRightSerif;
},
{
origin = "{0, 25}";
scale = "{0.96, 0.96}";
type = Corner;
name = _corner.CapLeftSerif;
}
);
layerId = "6B6AD122-EF8D-49FE-8C69-4BDE8C56BDD8";
paths = (
{
closed = 1;
nodes = (
"556 0 LINE",
"665 503 LINE",
"952 861 LINE SMOOTH",
"1052 986 OFFCURVE",
"1144 1067 OFFCURVE",
"1184 1092 CURVE",
"1175 1155 LINE",
"913 1155 LINE",
"892 1096 LINE",
"922 1067 OFFCURVE",
"918 1013 OFFCURVE",
"840 913 CURVE SMOOTH",
"536 526 LINE",
"627 510 LINE",
"485 947 LINE SMOOTH",
"459 1028 OFFCURVE",
"501 1067 OFFCURVE",
"543 1096 CURVE",
"538 1155 LINE",
"180 1155 LINE",
"160 1105 LINE",
"182 1089 OFFCURVE",
"241 1016 OFFCURVE",
"274 914 CURVE SMOOTH",
"424 455 LINE",
"325 0 LINE"
);
}
);
width = 1054;
},
{
anchors = (
{
name = bottom;
position = "{392, 0}";
},
{
name = top;
position = "{634, 1155}";
},
{
name = topleft;
position = "{172, 1155}";
}
);
hints = (
{
origin = "{0, 27}";
scale = "{0.85, 1}";
type = Corner;
name = _corner.CapLeftSerif;
},
{
origin = "{0, 0}";
type = Corner;
name = _corner.CapRightSerif;
options = 1;
}
);
layerId = "CFF67ECA-3B2D-433B-B605-F38590C8F106";
paths = (
{
closed = 1;
nodes = (
"466 0 LINE",
"587 560 LINE",
"538 441 LINE",
"968 989 LINE SMOOTH",
"1026 1062 OFFCURVE",
"1060 1087 OFFCURVE",
"1103 1101 CURVE",
"1092 1155 LINE",
"772 1155 LINE",
"763 1100 LINE",
"885 1079 OFFCURVE",
"835 990 OFFCURVE",
"750 880 CURVE SMOOTH",
"493 548 LINE",
"553 537 LINE",
"407 959 LINE SMOOTH",
"379 1039 OFFCURVE",
"398 1075 OFFCURVE",
"526 1105 CURVE",
"522 1155 LINE",
"167 1155 LINE",
"155 1105 LINE",
"187 1091 OFFCURVE",
"213 1073 OFFCURVE",
"235 1006 CURVE SMOOTH",
"438 396 LINE",
"430 526 LINE",
"316 0 LINE"
);
}
);
width = 957;
},
{
anchors = (
{
name = bottom;
position = "{415, 0}";
},
{
name = top;
position = "{657, 1155}";
},
{
name = topleft;
position = "{195, 1155}";
}
);
background = {
hints = (
{
origin = "{0, 0}";
scale = "{0.74227, 0.74227}";
type = Corner;
name = _corner.CapRightSerif;
},
{
origin = "{0, 1}";
scale = "{0.74227, 0.74227}";
type = Corner;
name = _corner.CapLeftSerif;
},
{
origin = "{0, 2}";
scale = "{0.74227, 0.74227}";
type = Corner;
name = _corner.CapRightSerif;
},
{
origin = "{0, 3}";
scale = "{0.742, 0.74227}";
type = Corner;
name = _corner.CapLeftSerif;
}
);
paths = (
{
closed = 1;
nodes = (
"477 0 LINE",
"723 1155 LINE",
"623 1155 LINE",
"377 0 LINE"
);
}
);
};
hints = (
{
origin = "{0, 0}";
scale = "{0.74227, 0.74227}";
type = Corner;
name = _corner.CapRightSerif;
},
{
origin = "{0, 27}";
scale = "{0.74227, 0.74227}";
type = Corner;
name = _corner.CapLeftSerif;
}
);
layerId = "34301EF7-A2BE-469F-9697-D6100B11FDFE";
paths = (
{
closed = 1;
nodes = (
"475 0 LINE",
"599 585 LINE",
"580 505 LINE",
"1013 1029 LINE SMOOTH",
"1062 1088 OFFCURVE",
"1106 1104 OFFCURVE",
"1159 1117 CURVE",
"1164 1155 LINE",
"837 1155 LINE",
"833 1117 LINE",
"965 1103 OFFCURVE",
"965 1063 OFFCURVE",
"912 999 CURVE SMOOTH",
"550 555 LINE",
"562 555 LINE",
"395 991 LINE SMOOTH",
"371 1053 OFFCURVE",
"394 1103 OFFCURVE",
"523 1118 CURVE",
"524 1155 LINE",
"176 1155 LINE",
"171 1119 LINE",
"205 1109 OFFCURVE",
"250 1096 OFFCURVE",
"273 1037 CURVE SMOOTH",
"494 464 LINE",
"492 560 LINE",
"374 0 LINE"
);
}
);
width = 1011;
}
);
leftMetricsKey = V;
rightMetricsKey = V;
unicode = 0059;
},
{
glyphname = Z;
lastChange = "2020-06-08 16:15:27 +0000";
layers = (
{
anchors = (
{
name = bottom;
position = "{404, 0}";
},
{
name = center;
position = "{535, 618}";
},
{
name = top;
position = "{601, 1155}";
}
);
layerId = "6B6AD122-EF8D-49FE-8C69-4BDE8C56BDD8";
paths = (
{
closed = 1;
nodes = (
"39 0 LINE",
"821 0 LINE",
"933 281 LINE",
"870 326 LINE",
"852 326 LINE",
"717 187 OFFCURVE",
"601 104 OFFCURVE",
"437 104 CURVE SMOOTH",
"259 104 LINE",
"295 49 LINE",
"1023 1104 LINE",
"1008 1155 LINE",
"213 1155 LINE",
"150 859 LINE",
"237 845 LINE",
"330 960 OFFCURVE",
"430 1053 OFFCURVE",
"581 1053 CURVE SMOOTH",
"792 1053 LINE",
"758 1106 LINE",
"25 52 LINE"
);
}
);
width = 984;
},
{
anchors = (
{
name = bottom;
position = "{390, 0}";
},
{
name = center;
position = "{522, 618}";
},
{
name = top;
position = "{607, 1155}";
}
);
layerId = "34301EF7-A2BE-469F-9697-D6100B11FDFE";
paths = (
{
closed = 1;
nodes = (
"-3 0 LINE",
"764 0 LINE",
"884 315 LINE",
"849 327 LINE",
"840 324 LINE",
"728 119 OFFCURVE",
"636 54 OFFCURVE",
"484 54 CURVE SMOOTH",
"124 54 LINE",
"128 24 LINE",
"997 1145 LINE",
"991 1155 LINE",
"241 1155 LINE",
"178 933 LINE",
"219 926 LINE",
"298 1054 OFFCURVE",
"360 1101 OFFCURVE",
"518 1101 CURVE SMOOTH",
"867 1101 LINE",
"860 1133 LINE",
"-8 12 LINE"
);
}
);
width = 940;
},
{
anchors = (
{
name = bottom;
position = "{384, 0}";
},
{
name = center;
position = "{515, 618}";
},
{
name = top;
position = "{602, 1155}";
}
);
layerId = "CFF67ECA-3B2D-433B-B605-F38590C8F106";
paths = (
{
closed = 1;
nodes = (
"14 0 LINE",
"755 0 LINE",
"881 361 LINE",
"835 374 LINE",
"823 367 LINE",
"708 168 OFFCURVE",
"603 96 OFFCURVE",
"497 96 CURVE SMOOTH",
"174 96 LINE",
"199 53 LINE",
"987 1118 LINE",
"976 1155 LINE",
"226 1155 LINE",
"152 808 LINE",
"201 799 LINE",
"297 994 OFFCURVE",
"383 1063 OFFCURVE",
"532 1063 CURVE SMOOTH",
"824 1063 LINE",
"799 1106 LINE",
"7 38 LINE"
);
}
);
width = 942;
}
);
unicode = 005A;
},
{
glyphname = a;
lastChange = "2020-06-08 20:42:56 +0000";
layers = (
{
anchors = (
{
name = bottom;
position = "{400, 0}";
},
{
name = ogonek;
position = "{776, 10}";
},
{
name = top;
position = "{536, 831}";
}
);
background = {
paths = (
{
closed = 1;
nodes = (
"782 761 LINE",
"695 831 OFFCURVE",
"640 861 OFFCURVE",
"567 861 CURVE SMOOTH",
"337 861 OFFCURVE",
"45 532 OFFCURVE",
"45 235 CURVE SMOOTH",
"45 65 OFFCURVE",
"141 -30 OFFCURVE",
"255 -30 CURVE SMOOTH",
"416 -30 OFFCURVE",
"581 156 OFFCURVE",
"681 520 CURVE",
"615 494 LINE",
"556 211 OFFCURVE",
"423 125 OFFCURVE",
"364 125 CURVE SMOOTH",
"312 125 OFFCURVE",
"275 190 OFFCURVE",
"275 317 CURVE SMOOTH",
"275 499 OFFCURVE",
"353 728 OFFCURVE",
"501 728 CURVE SMOOTH",
"593 728 OFFCURVE",
"628 655 OFFCURVE",
"665 596 CURVE"
);
},
{
closed = 1;
nodes = (
"889 826 LINE",
"831 861 LINE",
"674 776 LINE",
"554 202 LINE SMOOTH",
"548 174 OFFCURVE",
"545 146 OFFCURVE",
"545 121 CURVE SMOOTH",
"545 35 OFFCURVE",
"579 -30 OFFCURVE",
"650 -30 CURVE SMOOTH",
"736 -30 OFFCURVE",
"885 68 OFFCURVE",
"950 129 CURVE",
"950 143 LINE",
"917 184 LINE",
"903 184 LINE",
"866 162 OFFCURVE",
"785 133 OFFCURVE",
"764 133 CURVE SMOOTH",
"754 133 OFFCURVE",
"751 140 OFFCURVE",
"751 150 CURVE SMOOTH",
"751 154 OFFCURVE",
"751 158 OFFCURVE",
"752 163 CURVE SMOOTH"
);
}
);
};
layerId = "6B6AD122-EF8D-49FE-8C69-4BDE8C56BDD8";
leftMetricsKey = "=o+8";
paths = (
{
closed = 1;
nodes = (
"889 826 LINE",
"831 861 LINE",
"674 776 LINE",
"554 202 LINE SMOOTH",
"530 86 OFFCURVE",
"554 -30 OFFCURVE",
"650 -30 CURVE SMOOTH",
"736 -30 OFFCURVE",
"885 68 OFFCURVE",
"950 129 CURVE",
"950 143 LINE",
"917 184 LINE",
"903 184 LINE",
"866 162 OFFCURVE",
"785 133 OFFCURVE",
"764 133 CURVE SMOOTH",
"750 133 OFFCURVE",
"749 149 OFFCURVE",
"752 163 CURVE SMOOTH"
);
},
{
closed = 1;
nodes = (
"786 761 LINE",
"696 831 OFFCURVE",
"635 861 OFFCURVE",
"557 861 CURVE SMOOTH",
"320 861 OFFCURVE",
"57 607 OFFCURVE",
"57 249 CURVE SMOOTH",
"57 47 OFFCURVE",
"146 -30 OFFCURVE",
"259 -30 CURVE SMOOTH",
"436 -30 OFFCURVE",
"582 156 OFFCURVE",
"682 520 CURVE",
"616 494 LINE",
"557 211 OFFCURVE",
"426 121 OFFCURVE",
"367 121 CURVE SMOOTH",
"313 121 OFFCURVE",
"288 197 OFFCURVE",
"288 297 CURVE SMOOTH",
"288 486 OFFCURVE",
"366 743 OFFCURVE",
"519 743 CURVE SMOOTH",
"606 743 OFFCURVE",
"650 663 OFFCURVE",
"674 604 CURVE"
);
}
);
width = 976;
},
{
anchors = (
{
name = bottom;
position = "{364, 0}";
},
{
name = ogonek;
position = "{707, 10}";
},
{
name = top;
position = "{484, 750}";
}
);
background = {
paths = (
{
closed = 1;
nodes = (
"782 766 LINE",
"767 780 LINE",
"682 726 LINE",
"564 178 LINE SMOOTH",
"536 48 OFFCURVE",
"553 -30 OFFCURVE",
"608 -30 CURVE SMOOTH",
"667 -30 OFFCURVE",
"774 52 OFFCURVE",
"833 105 CURVE",
"833 115 LINE",
"817 132 LINE",
"808 132 LINE",
"754 89 OFFCURVE",
"686 51 OFFCURVE",
"670 51 CURVE SMOOTH",
"653 51 OFFCURVE",
"638 89 OFFCURVE",
"652 156 CURVE SMOOTH"
);
},
{
closed = 1;
nodes = (
"699 724 LINE",
"642 755 OFFCURVE",
"604 780 OFFCURVE",
"532 780 CURVE SMOOTH",
"272 780 OFFCURVE",
"81 464 OFFCURVE",
"81 217 CURVE SMOOTH",
"81 2 OFFCURVE",
"202 -30 OFFCURVE",
"256 -30 CURVE SMOOTH",
"410 -30 OFFCURVE",
"597 245 OFFCURVE",
"641 483 CURVE",
"641 535 LINE",
"595 325 OFFCURVE",
"403 43 OFFCURVE",
"287 43 CURVE SMOOTH",
"246 43 OFFCURVE",
"182 79 OFFCURVE",
"182 252 CURVE SMOOTH",
"182 486 OFFCURVE",
"313 712 OFFCURVE",
"489 712 CURVE SMOOTH",
"556 712 OFFCURVE",
"619 679 OFFCURVE",
"673 622 CURVE"
);
}
);
};
layerId = "34301EF7-A2BE-469F-9697-D6100B11FDFE";
leftMetricsKey = "=o+10";
paths = (
{
closed = 1;
nodes = (
"782 766 LINE",
"767 780 LINE",
"682 726 LINE",
"564 178 LINE SMOOTH",
"536 48 OFFCURVE",
"553 -30 OFFCURVE",
"608 -30 CURVE SMOOTH",
"667 -30 OFFCURVE",
"774 52 OFFCURVE",
"833 105 CURVE",
"833 115 LINE",
"817 132 LINE",
"808 132 LINE",
"754 89 OFFCURVE",
"686 51 OFFCURVE",
"670 51 CURVE SMOOTH",
"653 51 OFFCURVE",
"638 89 OFFCURVE",
"652 156 CURVE SMOOTH"
);
},
{
closed = 1;
nodes = (
"699 724 LINE",
"642 755 OFFCURVE",
"599 780 OFFCURVE",
"523 780 CURVE SMOOTH",
"267 780 OFFCURVE",
"61 494 OFFCURVE",
"61 213 CURVE SMOOTH",
"61 2 OFFCURVE",
"173 -30 OFFCURVE",
"231 -30 CURVE SMOOTH",
"400 -30 OFFCURVE",
"597 245 OFFCURVE",
"641 483 CURVE",
"641 535 LINE",
"595 325 OFFCURVE",
"403 43 OFFCURVE",
"273 43 CURVE SMOOTH",
"226 43 OFFCURVE",
"162 79 OFFCURVE",
"162 251 CURVE SMOOTH",
"162 516 OFFCURVE",
"308 712 OFFCURVE",
"480 712 CURVE SMOOTH",
"551 712 OFFCURVE",
"619 679 OFFCURVE",
"673 622 CURVE"
);
}
);
width = 887;
},
{
anchors = (
{
name = bottom;
position = "{357, 0}";
},
{
name = ogonek;
position = "{748, 39}";
},
{
name = top;
position = "{501, 821}";
}
);
background = {
paths = (
{
closed = 1;
nodes = (
"364 -30 OFFCURVE",
"537 176 OFFCURVE",
"659 478 CURVE",
"637 639 LINE",
"554 250 OFFCURVE",
"327 99 OFFCURVE",
"263 99 CURVE SMOOTH",
"220 99 OFFCURVE",
"209 205 OFFCURVE",
"209 266 CURVE SMOOTH",
"209 434 OFFCURVE",
"301 732 OFFCURVE",
"472 732 CURVE SMOOTH",
"524 732 OFFCURVE",
"583 697 OFFCURVE",
"677 619 CURVE",
"711 761 LINE",
"635 821 OFFCURVE",
"579 851 OFFCURVE",
"509 851 CURVE SMOOTH",
"277 851 OFFCURVE",
"75 487 OFFCURVE",
"75 198 CURVE SMOOTH",
"75 80 OFFCURVE",
"110 -30 OFFCURVE",
"219 -30 CURVE SMOOTH"
);
},
{
closed = 1;
nodes = (
"802 821 LINE",
"766 851 LINE",
"668 787 LINE",
"525 113 LINE SMOOTH",
"505 19 OFFCURVE",
"560 -30 OFFCURVE",
"615 -30 CURVE SMOOTH",
"692 -30 OFFCURVE",
"793 64 OFFCURVE",
"862 143 CURVE",
"862 153 LINE",
"830 188 LINE",
"821 188 LINE",
"756 146 OFFCURVE",
"696 118 OFFCURVE",
"675 118 CURVE SMOOTH",
"661 118 OFFCURVE",
"657 130 OFFCURVE",
"660 146 CURVE SMOOTH"
);
}
);
};
layerId = "CFF67ECA-3B2D-433B-B605-F38590C8F106";
leftMetricsKey = "=o+5";
paths = (
{
closed = 1;
nodes = (
"364 -30 OFFCURVE",
"537 155 OFFCURVE",
"659 427 CURVE",
"637 639 LINE",
"554 250 OFFCURVE",
"343 96 OFFCURVE",
"276 96 CURVE SMOOTH",
"223 96 OFFCURVE",
"188 192 OFFCURVE",
"188 297 CURVE SMOOTH",
"188 494 OFFCURVE",
"301 732 OFFCURVE",
"463 732 CURVE SMOOTH",
"524 732 OFFCURVE",
"583 697 OFFCURVE",
"677 619 CURVE",
"711 761 LINE",
"635 821 OFFCURVE",
"579 851 OFFCURVE",
"509 851 CURVE SMOOTH",
"277 851 OFFCURVE",
"50 507 OFFCURVE",
"50 235 CURVE SMOOTH",
"50 100 OFFCURVE",
"110 -30 OFFCURVE",
"226 -30 CURVE SMOOTH"
);
},
{
closed = 1;
nodes = (
"513 62 OFFCURVE",
"549 -30 OFFCURVE",
"609 -30 CURVE SMOOTH",
"671 -30 OFFCURVE",
"793 64 OFFCURVE",
"862 143 CURVE",
"862 153 LINE",
"830 188 LINE",
"821 188 LINE",
"756 146 OFFCURVE",
"696 118 OFFCURVE",
"675 118 CURVE SMOOTH",
"661 118 OFFCURVE",
"657 130 OFFCURVE",
"660 146 CURVE SMOOTH",
"802 821 LINE",
"766 851 LINE",
"668 787 LINE",
"537 174 LINE SMOOTH"
);
}
);
width = 887;
}
);
leftMetricsKey = o;
rightMetricsKey = n;
unicode = 0061;
},
{
glyphname = ae;
lastChange = "2020-06-08 12:00:31 +0000";
layers = (
{
anchors = (
{
name = bottom;
position = "{507, 0}";
},
{
name = top;
position = "{683, 831}";
}
);
layerId = "6B6AD122-EF8D-49FE-8C69-4BDE8C56BDD8";
paths = (
{
closed = 1;
nodes = (
"726 639 LINE",
"734 794 OFFCURVE",
"644 861 OFFCURVE",
"486 861 CURVE SMOOTH",
"404 861 OFFCURVE",
"301 845 OFFCURVE",
"171 790 CURVE",
"144 625 LINE",
"167 607 LINE",
"275 647 OFFCURVE",
"363 666 OFFCURVE",
"434 666 CURVE SMOOTH",
"512 666 OFFCURVE",
"558 636 OFFCURVE",
"558 571 CURVE SMOOTH",
"558 562 OFFCURVE",
"558 553 OFFCURVE",
"556 543 CURVE",
"425 483 LINE SMOOTH",
"200 380 OFFCURVE",
"21 297 OFFCURVE",
"21 133 CURVE SMOOTH",
"21 41 OFFCURVE",
"73 -30 OFFCURVE",
"200 -30 CURVE SMOOTH",
"299 -30 OFFCURVE",
"399 12 OFFCURVE",
"552 150 CURVE"
);
},
{
closed = 1;
nodes = (
"368 374 OFFCURVE",
"522 442 CURVE",
"511 188 LINE",
"404 127 OFFCURVE",
"355 113 OFFCURVE",
"321 113 CURVE SMOOTH",
"276 113 OFFCURVE",
"249 137 OFFCURVE",
"249 186 CURVE SMOOTH",
"249 288 OFFCURVE"
);
},
{
closed = 1;
nodes = (
"742 861 OFFCURVE",
"496 590 OFFCURVE",
"496 287 CURVE SMOOTH",
"496 115 OFFCURVE",
"579 -30 OFFCURVE",
"774 -30 CURVE SMOOTH",
"886 -30 OFFCURVE",
"996 16 OFFCURVE",
"1116 124 CURVE",
"1117 142 LINE",
"1073 190 LINE",
"1054 191 LINE",
"986 140 OFFCURVE",
"933 114 OFFCURVE",
"884 114 CURVE SMOOTH",
"756 114 OFFCURVE",
"692 272 OFFCURVE",
"692 419 CURVE SMOOTH",
"692 580 OFFCURVE",
"770 717 OFFCURVE",
"884 717 CURVE SMOOTH",
"956 717 OFFCURVE",
"979 663 OFFCURVE",
"979 615 CURVE SMOOTH",
"979 549 OFFCURVE",
"936 458 OFFCURVE",
"665 399 CURVE",
"676 297 LINE",
"1101 410 OFFCURVE",
"1157 562 OFFCURVE",
"1157 669 CURVE SMOOTH",
"1157 781 OFFCURVE",
"1094 861 OFFCURVE",
"969 861 CURVE SMOOTH"
);
}
);
width = 1191;
},
{
anchors = (
{
name = bottom;
position = "{483, 0}";
},
{
name = top;
position = "{657, 821}";
}
);
layerId = "CFF67ECA-3B2D-433B-B605-F38590C8F106";
paths = (
{
closed = 1;
nodes = (
"183 281 OFFCURVE",
"340 367 OFFCURVE",
"542 453 CURVE",
"508 205 LINE",
"413 139 OFFCURVE",
"329 85 OFFCURVE",
"260 85 CURVE SMOOTH",
"225 85 OFFCURVE",
"183 99 OFFCURVE",
"183 155 CURVE SMOOTH"
);
},
{
closed = 1;
nodes = (
"671 624 LINE",
"688 779 OFFCURVE",
"620 851 OFFCURVE",
"460 851 CURVE SMOOTH",
"376 851 OFFCURVE",
"264 830 OFFCURVE",
"162 786 CURVE",
"142 673 LINE",
"160 660 LINE",
"230 691 OFFCURVE",
"333 722 OFFCURVE",
"421 722 CURVE SMOOTH",
"502 722 OFFCURVE",
"563 694 OFFCURVE",
"563 599 CURVE SMOOTH",
"563 581 OFFCURVE",
"561 565 OFFCURVE",
"557 547 CURVE",
"383 471 LINE SMOOTH",
"180 382 OFFCURVE",
"18 279 OFFCURVE",
"18 117 CURVE SMOOTH",
"18 29 OFFCURVE",
"79 -30 OFFCURVE",
"187 -30 CURVE SMOOTH",
"277 -30 OFFCURVE",
"384 15 OFFCURVE",
"526 127 CURVE"
);
},
{
closed = 1;
nodes = (
"592 290 LINE",
"915 331 OFFCURVE",
"1120 466 OFFCURVE",
"1120 658 CURVE SMOOTH",
"1120 777 OFFCURVE",
"1039 851 OFFCURVE",
"934 851 CURVE SMOOTH",
"714 851 OFFCURVE",
"500 559 OFFCURVE",
"500 267 CURVE SMOOTH",
"500 107 OFFCURVE",
"561 -30 OFFCURVE",
"744 -30 CURVE SMOOTH",
"879 -30 OFFCURVE",
"1010 51 OFFCURVE",
"1089 136 CURVE",
"1089 149 LINE",
"1062 191 LINE",
"1051 193 LINE",
"965 130 OFFCURVE",
"878 94 OFFCURVE",
"802 94 CURVE SMOOTH",
"689 94 OFFCURVE",
"636 168 OFFCURVE",
"636 317 CURVE SMOOTH",
"636 561 OFFCURVE",
"769 734 OFFCURVE",
"895 734 CURVE SMOOTH",
"939 734 OFFCURVE",
"990 712 OFFCURVE",
"990 629 CURVE SMOOTH",
"990 498 OFFCURVE",
"875 420 OFFCURVE",
"592 374 CURVE"
);
}
);
width = 1140;
},
{
anchors = (
{
name = bottom;
position = "{476, 0}";
},
{
name = top;
position = "{636, 750}";
}
);
layerId = "34301EF7-A2BE-469F-9697-D6100B11FDFE";
paths = (
{
closed = 1;
nodes = (
"146 586 LINE",
"226 634 OFFCURVE",
"335 686 OFFCURVE",
"433 686 CURVE SMOOTH",
"513 686 OFFCURVE",
"562 652 OFFCURVE",
"562 569 CURVE SMOOTH",
"562 550 OFFCURVE",
"559 529 OFFCURVE",
"554 505 CURVE",
"344 416 OFFCURVE",
"30 286 OFFCURVE",
"30 95 CURVE SMOOTH",
"30 16 OFFCURVE",
"86 -28 OFFCURVE",
"173 -28 CURVE SMOOTH",
"305 -28 OFFCURVE",
"429 70 OFFCURVE",
"522 213 CURVE",
"663 635 LINE",
"655 745 OFFCURVE",
"574 780 OFFCURVE",
"486 780 CURVE SMOOTH",
"356 780 OFFCURVE",
"220 702 OFFCURVE",
"140 646 CURVE",
"132 596 LINE"
);
},
{
closed = 1;
nodes = (
"345 378 OFFCURVE",
"547 455 CURVE",
"549 443 OFFCURVE",
"550 431 OFFCURVE",
"550 418 CURVE SMOOTH",
"550 377 OFFCURVE",
"541 334 OFFCURVE",
"521 307 CURVE",
"481 173 OFFCURVE",
"340 49 OFFCURVE",
"228 49 CURVE SMOOTH",
"188 49 OFFCURVE",
"144 66 OFFCURVE",
"144 127 CURVE SMOOTH",
"144 257 OFFCURVE"
);
},
{
closed = 1;
nodes = (
"1044 107 LINE",
"1025 127 LINE",
"1020 127 LINE",
"944 69 OFFCURVE",
"874 30 OFFCURVE",
"801 30 CURVE SMOOTH",
"690 30 OFFCURVE",
"612 120 OFFCURVE",
"612 319 CURVE SMOOTH",
"612 567 OFFCURVE",
"728 724 OFFCURVE",
"870 724 CURVE SMOOTH",
"958 724 OFFCURVE",
"980 665 OFFCURVE",
"980 620 CURVE SMOOTH",
"980 496 OFFCURVE",
"812 369 OFFCURVE",
"598 349 CURVE",
"590 305 LINE",
"834 322 OFFCURVE",
"1074 459 OFFCURVE",
"1074 621 CURVE SMOOTH",
"1074 710 OFFCURVE",
"1003 780 OFFCURVE",
"890 780 CURVE SMOOTH",
"674 780 OFFCURVE",
"511 525 OFFCURVE",
"511 276 CURVE SMOOTH",
"511 69 OFFCURVE",
"629 -30 OFFCURVE",
"765 -30 CURVE SMOOTH",
"876 -30 OFFCURVE",
"972 33 OFFCURVE",
"1044 98 CURVE"
);
}
);
width = 1105;
}
);
leftMetricsKey = a;
rightMetricsKey = e;
unicode = 00E6;
},
{
glyphname = b;
lastChange = "2020-06-08 12:00:31 +0000";
layers = (
{
background = {
paths = (
{
closed = 1;
nodes = (
"417 1274 LINE",
"66 1205 LINE",
"48 1119 LINE",
"57 1105 LINE",
"282 1098 LINE",
"258 1143 LINE",
"18 0 LINE",
"81 -30 LINE",
"262 183 LINE",
"476 1208 LINE"
);
},
{
closed = 1;
nodes = (
"127 70 LINE",
"214 0 OFFCURVE",
"269 -30 OFFCURVE",
"342 -30 CURVE SMOOTH",
"572 -30 OFFCURVE",
"864 279 OFFCURVE",
"864 591 CURVE SMOOTH",
"864 766 OFFCURVE",
"768 861 OFFCURVE",
"654 861 CURVE SMOOTH",
"493 861 OFFCURVE",
"328 675 OFFCURVE",
"228 311 CURVE",
"294 337 LINE",
"353 620 OFFCURVE",
"486 706 OFFCURVE",
"545 706 CURVE SMOOTH",
"597 706 OFFCURVE",
"634 641 OFFCURVE",
"634 526 CURVE SMOOTH",
"634 332 OFFCURVE",
"556 103 OFFCURVE",
"408 103 CURVE SMOOTH",
"316 103 OFFCURVE",
"281 176 OFFCURVE",
"244 235 CURVE"
);
}
);
};
layerId = "6B6AD122-EF8D-49FE-8C69-4BDE8C56BDD8";
paths = (
{
closed = 1;
nodes = (
"417 1274 LINE",
"66 1205 LINE",
"48 1119 LINE",
"57 1105 LINE",
"282 1098 LINE",
"258 1143 LINE",
"18 0 LINE",
"81 -30 LINE",
"257 156 LINE",
"476 1208 LINE"
);
},
{
closed = 1;
nodes = (
"124 70 LINE",
"214 0 OFFCURVE",
"275 -30 OFFCURVE",
"353 -30 CURVE SMOOTH",
"590 -30 OFFCURVE",
"853 224 OFFCURVE",
"853 582 CURVE SMOOTH",
"853 784 OFFCURVE",
"764 861 OFFCURVE",
"651 861 CURVE SMOOTH",
"474 861 OFFCURVE",
"328 675 OFFCURVE",
"228 311 CURVE",
"294 337 LINE",
"353 620 OFFCURVE",
"484 710 OFFCURVE",
"543 710 CURVE SMOOTH",
"597 710 OFFCURVE",
"622 634 OFFCURVE",
"622 534 CURVE SMOOTH",
"622 345 OFFCURVE",
"544 92 OFFCURVE",
"391 92 CURVE SMOOTH",
"304 92 OFFCURVE",
"260 168 OFFCURVE",
"236 227 CURVE"
);
}
);
width = 891;
},
{
background = {
paths = (
{
closed = 1;
nodes = (
"60 -17 LINE",
"88 -26 LINE",
"176 101 LINE",
"422 1254 LINE",
"409 1266 LINE",
"110 1218 LINE",
"103 1177 LINE",
"112 1173 LINE",
"362 1163 LINE",
"314 1187 LINE"
);
},
{
closed = 1;
nodes = (
"106 53 LINE",
"199 -5 OFFCURVE",
"237 -30 OFFCURVE",
"309 -30 CURVE SMOOTH",
"569 -30 OFFCURVE",
"760 276 OFFCURVE",
"760 525 CURVE SMOOTH",
"760 748 OFFCURVE",
"639 780 OFFCURVE",
"582 780 CURVE SMOOTH",
"431 780 OFFCURVE",
"243 508 OFFCURVE",
"181 302 CURVE",
"200 215 LINE",
"246 425 OFFCURVE",
"438 707 OFFCURVE",
"548 707 CURVE SMOOTH",
"595 707 OFFCURVE",
"659 671 OFFCURVE",
"659 490 CURVE SMOOTH",
"659 254 OFFCURVE",
"528 38 OFFCURVE",
"352 38 CURVE SMOOTH",
"285 38 OFFCURVE",
"222 71 OFFCURVE",
"168 128 CURVE"
);
}
);
};
layerId = "34301EF7-A2BE-469F-9697-D6100B11FDFE";
rightMetricsKey = "=o+10";
paths = (
{
closed = 1;
nodes = (
"60 -17 LINE",
"88 -26 LINE",
"176 101 LINE",
"422 1254 LINE",
"409 1266 LINE",
"110 1218 LINE",
"103 1177 LINE",
"112 1173 LINE",
"362 1163 LINE",
"314 1187 LINE"
);
},
{
closed = 1;
nodes = (
"113 45 LINE",
"199 -5 OFFCURVE",
"242 -30 OFFCURVE",
"318 -30 CURVE SMOOTH",
"574 -30 OFFCURVE",
"780 256 OFFCURVE",
"780 537 CURVE SMOOTH",
"780 748 OFFCURVE",
"668 780 OFFCURVE",
"610 780 CURVE SMOOTH",
"441 780 OFFCURVE",
"244 505 OFFCURVE",
"200 300 CURVE",
"200 215 LINE",
"246 425 OFFCURVE",
"438 707 OFFCURVE",
"568 707 CURVE SMOOTH",
"615 707 OFFCURVE",
"679 671 OFFCURVE",
"679 499 CURVE SMOOTH",
"679 234 OFFCURVE",
"533 38 OFFCURVE",
"361 38 CURVE SMOOTH",
"290 38 OFFCURVE",
"222 71 OFFCURVE",
"168 128 CURVE"
);
}
);
width = 828;
},
{
background = {
paths = (
{
closed = 1;
nodes = (
"503 851 OFFCURVE",
"330 666 OFFCURVE",
"208 394 CURVE",
"230 182 LINE",
"313 571 OFFCURVE",
"524 725 OFFCURVE",
"591 725 CURVE SMOOTH",
"644 725 OFFCURVE",
"679 629 OFFCURVE",
"679 524 CURVE SMOOTH",
"679 327 OFFCURVE",
"566 89 OFFCURVE",
"404 89 CURVE SMOOTH",
"343 89 OFFCURVE",
"284 124 OFFCURVE",
"190 202 CURVE",
"156 60 LINE",
"232 0 OFFCURVE",
"288 -30 OFFCURVE",
"358 -30 CURVE SMOOTH",
"590 -30 OFFCURVE",
"817 314 OFFCURVE",
"817 586 CURVE SMOOTH",
"817 721 OFFCURVE",
"757 851 OFFCURVE",
"641 851 CURVE SMOOTH"
);
}
);
};
layerId = "CFF67ECA-3B2D-433B-B605-F38590C8F106";
rightMetricsKey = "=o+8";
paths = (
{
closed = 1;
nodes = (
"818 726 OFFCURVE",
"755 851 OFFCURVE",
"639 851 CURVE SMOOTH",
"501 851 OFFCURVE",
"328 666 OFFCURVE",
"206 394 CURVE",
"228 182 LINE",
"311 571 OFFCURVE",
"512 725 OFFCURVE",
"585 725 CURVE SMOOTH",
"650 725 OFFCURVE",
"682 608 OFFCURVE",
"682 477 CURVE SMOOTH",
"682 260 OFFCURVE",
"578 92 OFFCURVE",
"418 92 CURVE SMOOTH",
"297 92 OFFCURVE",
"207 174 OFFCURVE",
"160 276 CURVE",
"206 84 LINE",
"460 1236 LINE",
"424 1266 LINE",
"130 1208 LINE",
"124 1148 LINE",
"140 1134 LINE",
"357 1126 LINE",
"314 1143 LINE",
"70 -3 LINE",
"101 -32 LINE",
"225 60 LINE",
"118 100 LINE",
"180 25 OFFCURVE",
"268 -26 OFFCURVE",
"371 -26 CURVE SMOOTH",
"633 -26 OFFCURVE",
"818 269 OFFCURVE",
"818 561 CURVE SMOOTH"
);
}
);
width = 869;
}
);
rightMetricsKey = "=o";
unicode = 0062;
},
{
glyphname = c;
lastChange = "2020-06-08 15:15:20 +0000";
layers = (
{
anchors = (
{
name = bottom;
position = "{328, 0}";
},
{
name = top;
position = "{528, 831}";
}
);
background = {
paths = (
{
closed = 1;
nodes = (
"318 861 OFFCURVE",
"69 590 OFFCURVE",
"69 287 CURVE SMOOTH",
"69 115 OFFCURVE",
"152 -30 OFFCURVE",
"342 -30 CURVE SMOOTH",
"449 -30 OFFCURVE",
"559 16 OFFCURVE",
"679 124 CURVE",
"680 142 LINE",
"636 190 LINE",
"617 191 LINE",
"549 140 OFFCURVE",
"498 112 OFFCURVE",
"450 112 CURVE SMOOTH",
"331 112 OFFCURVE",
"265 292 OFFCURVE",
"265 434 CURVE SMOOTH",
"265 580 OFFCURVE",
"341 715 OFFCURVE",
"449 715 CURVE SMOOTH",
"517 715 OFFCURVE",
"540 662 OFFCURVE",
"540 613 CURVE SMOOTH",
"540 548 OFFCURVE",
"499 458 OFFCURVE",
"238 399 CURVE",
"249 297 LINE",
"664 410 OFFCURVE",
"720 562 OFFCURVE",
"720 669 CURVE SMOOTH",
"720 781 OFFCURVE",
"660 861 OFFCURVE",
"538 861 CURVE SMOOTH"
);
}
);
};
layerId = "6B6AD122-EF8D-49FE-8C69-4BDE8C56BDD8";
leftMetricsKey = "=o+8";
paths = (
{
closed = 1;
nodes = (
"60 106 OFFCURVE",
"148 -30 OFFCURVE",
"337 -30 CURVE SMOOTH",
"438 -30 OFFCURVE",
"546 8 OFFCURVE",
"661 104 CURVE",
"662 122 LINE",
"622 175 LINE",
"603 175 LINE",
"537 131 OFFCURVE",
"491 112 OFFCURVE",
"449 112 CURVE SMOOTH",
"330 112 OFFCURVE",
"263 267 OFFCURVE",
"263 413 CURVE SMOOTH",
"263 563 OFFCURVE",
"335 707 OFFCURVE",
"465 707 CURVE SMOOTH",
"521 707 OFFCURVE",
"573 680 OFFCURVE",
"654 637 CURVE",
"683 651 LINE",
"743 777 LINE",
"743 811 LINE",
"664 853 OFFCURVE",
"595 861 OFFCURVE",
"555 861 CURVE SMOOTH",
"318 861 OFFCURVE",
"60 583 OFFCURVE",
"60 282 CURVE SMOOTH"
);
}
);
width = 752;
},
{
anchors = (
{
name = bottom;
position = "{292, 0}";
},
{
name = top;
position = "{438, 750}";
}
);
background = {
paths = (
{
closed = 1;
nodes = (
"621 749 LINE",
"577 767 OFFCURVE",
"533 780 OFFCURVE",
"480 780 CURVE SMOOTH",
"265 780 OFFCURVE",
"71 542 OFFCURVE",
"71 275 CURVE SMOOTH",
"71 69 OFFCURVE",
"184 -30 OFFCURVE",
"310 -30 CURVE SMOOTH",
"432 -30 OFFCURVE",
"531 56 OFFCURVE",
"600 148 CURVE",
"568 169 LINE",
"501 90 OFFCURVE",
"431 20 OFFCURVE",
"343 20 CURVE SMOOTH",
"245 20 OFFCURVE",
"175 108 OFFCURVE",
"175 296 CURVE SMOOTH",
"175 520 OFFCURVE",
"272 709 OFFCURVE",
"449 709 CURVE SMOOTH",
"497 709 OFFCURVE",
"546 695 OFFCURVE",
"591 672 CURVE",
"601 676 LINE",
"626 737 LINE"
);
}
);
};
layerId = "34301EF7-A2BE-469F-9697-D6100B11FDFE";
paths = (
{
closed = 1;
nodes = (
"583 105 LINE",
"561 126 LINE",
"555 126 LINE",
"480 69 OFFCURVE",
"406 30 OFFCURVE",
"338 30 CURVE SMOOTH",
"241 30 OFFCURVE",
"167 108 OFFCURVE",
"167 303 CURVE SMOOTH",
"167 520 OFFCURVE",
"260 705 OFFCURVE",
"437 705 CURVE SMOOTH",
"488 705 OFFCURVE",
"545 689 OFFCURVE",
"590 666 CURVE",
"600 670 LINE",
"626 737 LINE",
"621 749 LINE",
"577 767 OFFCURVE",
"533 780 OFFCURVE",
"480 780 CURVE SMOOTH",
"265 780 OFFCURVE",
"63 542 OFFCURVE",
"63 275 CURVE SMOOTH",
"63 69 OFFCURVE",
"180 -30 OFFCURVE",
"306 -30 CURVE SMOOTH",
"409 -30 OFFCURVE",
"510 35 OFFCURVE",
"583 100 CURVE"
);
}
);
width = 664;
},
{
anchors = (
{
name = bottom;
position = "{325, 0}";
},
{
name = top;
position = "{479, 821}";
}
);
background = {
paths = (
{
closed = 1;
nodes = (
"372 -30 OFFCURVE",
"545 155 OFFCURVE",
"667 427 CURVE",
"645 639 LINE",
"562 250 OFFCURVE",
"351 96 OFFCURVE",
"284 96 CURVE SMOOTH",
"231 96 OFFCURVE",
"196 192 OFFCURVE",
"196 297 CURVE SMOOTH",
"196 494 OFFCURVE",
"309 732 OFFCURVE",
"471 732 CURVE SMOOTH",
"532 732 OFFCURVE",
"591 697 OFFCURVE",
"685 619 CURVE",
"719 761 LINE",
"643 821 OFFCURVE",
"587 851 OFFCURVE",
"517 851 CURVE SMOOTH",
"285 851 OFFCURVE",
"58 507 OFFCURVE",
"58 235 CURVE SMOOTH",
"58 100 OFFCURVE",
"118 -30 OFFCURVE",
"234 -30 CURVE SMOOTH"
);
},
{
closed = 1;
nodes = (
"521 62 OFFCURVE",
"557 -30 OFFCURVE",
"617 -30 CURVE SMOOTH",
"679 -30 OFFCURVE",
"801 64 OFFCURVE",
"870 143 CURVE",
"870 153 LINE",
"838 188 LINE",
"829 188 LINE",
"764 146 OFFCURVE",
"704 118 OFFCURVE",
"683 118 CURVE SMOOTH",
"669 118 OFFCURVE",
"665 130 OFFCURVE",
"668 146 CURVE SMOOTH",
"810 821 LINE",
"774 851 LINE",
"676 787 LINE",
"545 174 LINE SMOOTH"
);
}
);
};
layerId = "CFF67ECA-3B2D-433B-B605-F38590C8F106";
leftMetricsKey = "=o+5";
paths = (
{
closed = 1;
nodes = (
"200 454 OFFCURVE",
"256 723 OFFCURVE",
"436 723 CURVE SMOOTH",
"465 723 OFFCURVE",
"528 716 OFFCURVE",
"616 658 CURVE",
"632 658 LINE",
"698 775 LINE",
"698 791 LINE",
"610 842 OFFCURVE",
"525 851 OFFCURVE",
"478 851 CURVE SMOOTH",
"203 851 OFFCURVE",
"61 509 OFFCURVE",
"61 270 CURVE SMOOTH",
"61 110 OFFCURVE",
"123 -30 OFFCURVE",
"304 -30 CURVE SMOOTH",
"441 -30 OFFCURVE",
"572 51 OFFCURVE",
"651 136 CURVE",
"651 149 LINE",
"624 191 LINE",
"613 193 LINE",
"527 130 OFFCURVE",
"440 94 OFFCURVE",
"362 94 CURVE SMOOTH",
"251 94 OFFCURVE",
"200 168 OFFCURVE",
"200 309 CURVE SMOOTH"
);
}
);
width = 684;
}
);
leftMetricsKey = o;
unicode = 0063;
},
{
glyphname = d;
lastChange = "2020-06-10 12:40:56 +0000";
layers = (
{
background = {
paths = (
{
closed = 1;
nodes = (
"971 1208 LINE",
"912 1274 LINE",
"556 1205 LINE",
"538 1120 LINE",
"547 1106 LINE",
"777 1097 LINE",
"749 1143 LINE",
"551 202 LINE SMOOTH",
"525 79 OFFCURVE",
"555 -30 OFFCURVE",
"647 -30 CURVE SMOOTH",
"733 -30 OFFCURVE",
"881 68 OFFCURVE",
"946 129 CURVE",
"946 143 LINE",
"913 184 LINE",
"899 184 LINE",
"862 162 OFFCURVE",
"781 133 OFFCURVE",
"760 133 CURVE SMOOTH",
"746 133 OFFCURVE",
"745 147 OFFCURVE",
"748 163 CURVE SMOOTH"
);
}
);
};
layerId = "6B6AD122-EF8D-49FE-8C69-4BDE8C56BDD8";
paths = (
{
closed = 1;
nodes = (
"971 1208 LINE",
"912 1274 LINE",
"558 1205 LINE",
"540 1118 LINE",
"549 1104 LINE",
"777 1097 LINE",
"753 1143 LINE",
"553 202 LINE SMOOTH",
"527 79 OFFCURVE",
"557 -30 OFFCURVE",
"649 -30 CURVE SMOOTH",
"735 -30 OFFCURVE",
"884 68 OFFCURVE",
"949 129 CURVE",
"949 143 LINE",
"916 184 LINE",
"902 184 LINE",
"865 162 OFFCURVE",
"783 133 OFFCURVE",
"762 133 CURVE SMOOTH",
"748 133 OFFCURVE",
"747 147 OFFCURVE",
"750 163 CURVE SMOOTH"
);
},
{
closed = 1;
nodes = (
"786 761 LINE",
"696 831 OFFCURVE",
"635 861 OFFCURVE",
"557 861 CURVE SMOOTH",
"320 861 OFFCURVE",
"57 607 OFFCURVE",
"57 249 CURVE SMOOTH",
"57 47 OFFCURVE",
"146 -30 OFFCURVE",
"259 -30 CURVE SMOOTH",
"436 -30 OFFCURVE",
"582 156 OFFCURVE",
"682 520 CURVE",
"616 494 LINE",
"557 211 OFFCURVE",
"426 121 OFFCURVE",
"367 121 CURVE SMOOTH",
"313 121 OFFCURVE",
"288 197 OFFCURVE",
"288 297 CURVE SMOOTH",
"288 486 OFFCURVE",
"366 743 OFFCURVE",
"519 743 CURVE SMOOTH",
"606 743 OFFCURVE",
"650 663 OFFCURVE",
"674 604 CURVE"
);
}
);
width = 957;
},
{
background = {
paths = (
{
closed = 1;
nodes = (
"540 68 OFFCURVE",
"536 -30 OFFCURVE",
"600 -30 CURVE SMOOTH",
"655 -30 OFFCURVE",
"737 50 OFFCURVE",
"796 103 CURVE",
"796 113 LINE",
"780 130 LINE",
"771 130 LINE",
"717 87 OFFCURVE",
"667 48 OFFCURVE",
"649 48 CURVE SMOOTH",
"634 48 OFFCURVE",
"631 75 OFFCURVE",
"637 102 CURVE SMOOTH",
"887 1254 LINE",
"874 1266 LINE",
"574 1184 LINE",
"567 1141 LINE",
"576 1137 LINE",
"775 1166 LINE",
"684 729 LINE",
"631 759 OFFCURVE",
"572 780 OFFCURVE",
"510 780 CURVE SMOOTH",
"245 780 OFFCURVE",
"79 462 OFFCURVE",
"79 215 CURVE SMOOTH",
"79 0 OFFCURVE",
"197 -30 OFFCURVE",
"259 -30 CURVE SMOOTH",
"369 -30 OFFCURVE",
"489 65 OFFCURVE",
"563 141 CURVE",
"579 212 LINE",
"507 131 OFFCURVE",
"388 34 OFFCURVE",
"301 34 CURVE SMOOTH",
"241 34 OFFCURVE",
"180 79 OFFCURVE",
"180 252 CURVE SMOOTH",
"180 486 OFFCURVE",
"306 723 OFFCURVE",
"485 723 CURVE SMOOTH",
"544 723 OFFCURVE",
"613 696 OFFCURVE",
"664 644 CURVE",
"558 151 LINE SMOOTH"
);
}
);
};
layerId = "34301EF7-A2BE-469F-9697-D6100B11FDFE";
paths = (
{
closed = 1;
nodes = (
"886 1254 LINE",
"873 1266 LINE",
"574 1218 LINE",
"567 1177 LINE",
"576 1173 LINE",
"826 1163 LINE",
"785 1216 LINE",
"564 178 LINE",
"536 48 OFFCURVE",
"553 -30 OFFCURVE",
"608 -30 CURVE SMOOTH",
"667 -30 OFFCURVE",
"774 52 OFFCURVE",
"833 105 CURVE",
"833 115 LINE",
"817 132 LINE",
"808 132 LINE",
"754 89 OFFCURVE",
"686 51 OFFCURVE",
"670 51 CURVE SMOOTH",
"653 51 OFFCURVE",
"637 89 OFFCURVE",
"651 156 CURVE SMOOTH"
);
},
{
closed = 1;
nodes = (
"699 724 LINE",
"642 755 OFFCURVE",
"599 780 OFFCURVE",
"523 780 CURVE SMOOTH",
"267 780 OFFCURVE",
"61 494 OFFCURVE",
"61 213 CURVE SMOOTH",
"61 2 OFFCURVE",
"173 -30 OFFCURVE",
"231 -30 CURVE SMOOTH",
"400 -30 OFFCURVE",
"597 245 OFFCURVE",
"641 483 CURVE",
"641 535 LINE",
"595 325 OFFCURVE",
"403 43 OFFCURVE",
"273 43 CURVE SMOOTH",
"226 43 OFFCURVE",
"162 79 OFFCURVE",
"162 251 CURVE SMOOTH",
"162 516 OFFCURVE",
"308 712 OFFCURVE",
"480 712 CURVE SMOOTH",
"551 712 OFFCURVE",
"619 679 OFFCURVE",
"673 622 CURVE"
);
}
);
width = 889;
},
{
background = {
paths = (
{
closed = 1;
nodes = (
"455 -30 OFFCURVE",
"548 62 OFFCURVE",
"599 115 CURVE",
"596 231 LINE",
"575 187 OFFCURVE",
"478 80 OFFCURVE",
"370 80 CURVE SMOOTH",
"241 80 OFFCURVE",
"146 214 OFFCURVE",
"146 428 CURVE SMOOTH",
"146 650 OFFCURVE",
"256 735 OFFCURVE",
"388 735 CURVE SMOOTH",
"491 735 OFFCURVE",
"564 684 OFFCURVE",
"597 616 CURVE",
"602 785 LINE",
"556 817 OFFCURVE",
"489 851 OFFCURVE",
"395 851 CURVE SMOOTH",
"185 851 OFFCURVE",
"-17 678 OFFCURVE",
"-17 384 CURVE SMOOTH",
"-17 128 OFFCURVE",
"126 -30 OFFCURVE",
"318 -30 CURVE SMOOTH"
);
},
{
closed = 1;
nodes = (
"474 1171 LINE",
"474 1122 LINE",
"591 1077 LINE",
"591 149 LINE",
"633 -26 LINE",
"653 -36 LINE",
"868 35 LINE",
"868 83 LINE",
"790 110 OFFCURVE",
"742 129 OFFCURVE",
"742 178 CURVE SMOOTH",
"742 1254 LINE",
"718 1266 LINE"
);
}
);
};
layerId = "CFF67ECA-3B2D-433B-B605-F38590C8F106";
paths = (
{
closed = 1;
nodes = (
"364 -30 OFFCURVE",
"537 155 OFFCURVE",
"659 427 CURVE",
"637 639 LINE",
"554 250 OFFCURVE",
"343 96 OFFCURVE",
"276 96 CURVE SMOOTH",
"223 96 OFFCURVE",
"188 192 OFFCURVE",
"188 297 CURVE SMOOTH",
"188 494 OFFCURVE",
"301 732 OFFCURVE",
"463 732 CURVE SMOOTH",
"524 732 OFFCURVE",
"583 697 OFFCURVE",
"677 619 CURVE",
"711 761 LINE",
"635 821 OFFCURVE",
"579 851 OFFCURVE",
"509 851 CURVE SMOOTH",
"277 851 OFFCURVE",
"50 507 OFFCURVE",
"50 235 CURVE SMOOTH",
"50 100 OFFCURVE",
"110 -30 OFFCURVE",
"226 -30 CURVE SMOOTH"
);
},
{
closed = 1;
nodes = (
"854 1266 LINE",
"560 1208 LINE",
"554 1148 LINE",
"570 1134 LINE",
"787 1126 LINE",
"744 1143 LINE",
"537 174 LINE SMOOTH",
"510 49 OFFCURVE",
"548 -30 OFFCURVE",
"607 -30 CURVE SMOOTH",
"671 -30 OFFCURVE",
"793 64 OFFCURVE",
"862 143 CURVE",
"862 153 LINE",
"830 188 LINE",
"821 188 LINE",
"756 146 OFFCURVE",
"696 118 OFFCURVE",
"675 118 CURVE SMOOTH",
"661 118 OFFCURVE",
"657 130 OFFCURVE",
"660 146 CURVE SMOOTH",
"890 1236 LINE"
);
}
);
width = 897;
}
);
leftMetricsKey = a;
note = "Fix foot to have cut in it!!";
rightMetricsKey = l;
unicode = 0064;
},
{
glyphname = eth;
lastChange = "2020-06-08 15:03:38 +0000";
layers = (
{
background = {
paths = (
{
closed = 1;
nodes = (
"694 776 LINE",
"637 807 OFFCURVE",
"571 824 OFFCURVE",
"500 824 CURVE SMOOTH",
"273 824 OFFCURVE",
"98 644 OFFCURVE",
"98 389 CURVE SMOOTH",
"98 129 OFFCURVE",
"257 -30 OFFCURVE",
"484 -30 CURVE SMOOTH",
"606 -30 OFFCURVE",
"729 21 OFFCURVE",
"809 139 CURVE SMOOTH",
"860 213 OFFCURVE",
"894 314 OFFCURVE",
"894 468 CURVE SMOOTH",
"894 727 OFFCURVE",
"798 1013 OFFCURVE",
"403 1285 CURVE",
"377 1285 LINE",
"339 1245 LINE",
"339 1222 LINE",
"679 962 OFFCURVE",
"738 651 OFFCURVE",
"738 442 CURVE SMOOTH",
"738 201 OFFCURVE",
"657 62 OFFCURVE",
"516 62 CURVE SMOOTH",
"348 62 OFFCURVE",
"257 261 OFFCURVE",
"257 435 CURVE SMOOTH",
"257 593 OFFCURVE",
"337 729 OFFCURVE",
"507 729 CURVE SMOOTH",
"609 729 OFFCURVE",
"690 680 OFFCURVE",
"750 636 CURVE"
);
},
{
closed = 1;
nodes = (
"807 1232 LINE",
"807 1244 LINE",
"762 1303 LINE",
"748 1303 LINE",
"314 972 LINE",
"314 960 LINE",
"360 902 LINE",
"373 902 LINE"
);
}
);
};
layerId = "6B6AD122-EF8D-49FE-8C69-4BDE8C56BDD8";
paths = (
{
closed = 1;
nodes = (
"824 767 OFFCURVE",
"725 1069 OFFCURVE",
"458 1273 CURVE",
"435 1273 LINE",
"398 1236 LINE",
"398 1217 LINE",
"579 1074 OFFCURVE",
"604 907 OFFCURVE",
"604 473 CURVE SMOOTH",
"604 302 OFFCURVE",
"533 93 OFFCURVE",
"403 93 CURVE SMOOTH",
"317 93 OFFCURVE",
"271 186 OFFCURVE",
"271 358 CURVE SMOOTH",
"271 519 OFFCURVE",
"342 738 OFFCURVE",
"476 738 CURVE SMOOTH",
"548 738 OFFCURVE",
"594 676 OFFCURVE",
"604 542 CURVE",
"773 595 LINE",
"764 763 OFFCURVE",
"700 861 OFFCURVE",
"545 861 CURVE SMOOTH",
"266 861 OFFCURVE",
"51 558 OFFCURVE",
"51 270 CURVE SMOOTH",
"51 88 OFFCURVE",
"168 -30 OFFCURVE",
"336 -30 CURVE SMOOTH",
"609 -30 OFFCURVE",
"824 254 OFFCURVE",
"824 561 CURVE SMOOTH"
);
},
{
closed = 1;
nodes = (
"372 892 LINE",
"856 1202 LINE",
"856 1214 LINE",
"823 1273 LINE",
"810 1273 LINE",
"327 962 LINE",
"327 950 LINE",
"360 892 LINE"
);
}
);
width = 865;
},
{
layerId = "CFF67ECA-3B2D-433B-B605-F38590C8F106";
paths = (
{
closed = 1;
nodes = (
"591 -30 OFFCURVE",
"789 252 OFFCURVE",
"789 613 CURVE SMOOTH",
"789 762 OFFCURVE",
"756 1079 OFFCURVE",
"479 1283 CURVE",
"456 1283 LINE",
"426 1253 LINE",
"426 1234 LINE",
"650 1044 OFFCURVE",
"653 821 OFFCURVE",
"653 558 CURVE SMOOTH",
"653 287 OFFCURVE",
"555 77 OFFCURVE",
"396 77 CURVE SMOOTH",
"274 77 OFFCURVE",
"204 196 OFFCURVE",
"204 354 CURVE SMOOTH",
"204 535 OFFCURVE",
"294 745 OFFCURVE",
"455 745 CURVE SMOOTH",
"521 745 OFFCURVE",
"628 709 OFFCURVE",
"653 558 CURVE",
"745 710 LINE",
"702 789 OFFCURVE",
"626 851 OFFCURVE",
"510 851 CURVE SMOOTH",
"258 851 OFFCURVE",
"60 569 OFFCURVE",
"60 306 CURVE SMOOTH",
"60 140 OFFCURVE",
"141 -30 OFFCURVE",
"339 -30 CURVE SMOOTH"
);
},
{
closed = 1;
nodes = (
"373 902 LINE",
"857 1212 LINE",
"857 1224 LINE",
"824 1283 LINE",
"811 1283 LINE",
"328 972 LINE",
"328 960 LINE",
"361 902 LINE"
);
}
);
width = 826;
},
{
background = {
paths = (
{
closed = 1;
nodes = (
"678 776 LINE",
"621 807 OFFCURVE",
"555 824 OFFCURVE",
"484 824 CURVE SMOOTH",
"257 824 OFFCURVE",
"82 644 OFFCURVE",
"82 389 CURVE SMOOTH",
"82 129 OFFCURVE",
"241 -30 OFFCURVE",
"468 -30 CURVE SMOOTH",
"590 -30 OFFCURVE",
"713 21 OFFCURVE",
"793 139 CURVE SMOOTH",
"844 213 OFFCURVE",
"878 314 OFFCURVE",
"878 468 CURVE SMOOTH",
"878 727 OFFCURVE",
"782 1013 OFFCURVE",
"387 1285 CURVE",
"361 1285 LINE",
"323 1245 LINE",
"323 1222 LINE",
"663 962 OFFCURVE",
"722 651 OFFCURVE",
"722 442 CURVE SMOOTH",
"722 201 OFFCURVE",
"641 62 OFFCURVE",
"500 62 CURVE SMOOTH",
"332 62 OFFCURVE",
"241 261 OFFCURVE",
"241 435 CURVE SMOOTH",
"241 593 OFFCURVE",
"321 729 OFFCURVE",
"491 729 CURVE SMOOTH",
"593 729 OFFCURVE",
"674 680 OFFCURVE",
"734 636 CURVE"
);
},
{
closed = 1;
nodes = (
"791 1232 LINE",
"791 1244 LINE",
"746 1303 LINE",
"732 1303 LINE",
"298 972 LINE",
"298 960 LINE",
"344 902 LINE",
"357 902 LINE"
);
}
);
};
layerId = "34301EF7-A2BE-469F-9697-D6100B11FDFE";
paths = (
{
closed = 1;
nodes = (
"624 233 OFFCURVE",
"509 24 OFFCURVE",
"350 24 CURVE SMOOTH",
"250 24 OFFCURVE",
"165 114 OFFCURVE",
"165 290 CURVE SMOOTH",
"165 496 OFFCURVE",
"279 726 OFFCURVE",
"443 726 CURVE SMOOTH",
"522 726 OFFCURVE",
"595 673 OFFCURVE",
"624 551 CURVE",
"717 576 LINE",
"689 715 OFFCURVE",
"595 780 OFFCURVE",
"474 780 CURVE SMOOTH",
"246 780 OFFCURVE",
"63 532 OFFCURVE",
"63 275 CURVE SMOOTH",
"63 79 OFFCURVE",
"171 -30 OFFCURVE",
"320 -30 CURVE SMOOTH",
"546 -30 OFFCURVE",
"726 218 OFFCURVE",
"726 528 CURVE SMOOTH",
"726 702 OFFCURVE",
"672 993 OFFCURVE",
"377 1278 CURVE",
"361 1278 LINE",
"338 1259 LINE",
"338 1247 LINE",
"591 956 OFFCURVE",
"624 651 OFFCURVE",
"624 504 CURVE SMOOTH"
);
},
{
closed = 1;
nodes = (
"748 1214 LINE",
"748 1226 LINE",
"726 1253 LINE",
"712 1253 LINE",
"278 922 LINE",
"278 910 LINE",
"301 884 LINE",
"314 884 LINE"
);
}
);
width = 770;
}
);
leftMetricsKey = o;
rightMetricsKey = o;
unicode = 00F0;
},
{
glyphname = dcroat;
lastChange = "2020-06-08 15:17:03 +0000";
layers = (
{
components = (
{
name = d;
}
);
layerId = "6B6AD122-EF8D-49FE-8C69-4BDE8C56BDD8";
paths = (
{
closed = 1;
nodes = (
"1014 923 LINE",
"1025 932 LINE",
"1039 1018 LINE",
"1032 1027 LINE",
"472 1027 LINE",
"461 1018 LINE",
"447 932 LINE",
"454 923 LINE"
);
}
);
width = 959;
},
{
background = {
paths = (
{
closed = 1;
nodes = (
"898 922 LINE",
"909 931 LINE",
"919 997 LINE",
"912 1006 LINE",
"372 1006 LINE",
"362 997 LINE",
"351 931 LINE",
"358 922 LINE"
);
}
);
};
components = (
{
name = d;
}
);
layerId = "CFF67ECA-3B2D-433B-B605-F38590C8F106";
paths = (
{
closed = 1;
nodes = (
"938 941 LINE",
"949 950 LINE",
"959 1016 LINE",
"952 1025 LINE",
"412 1025 LINE",
"402 1016 LINE",
"391 950 LINE",
"398 941 LINE"
);
}
);
width = 897;
},
{
components = (
{
name = d;
}
);
layerId = "34301EF7-A2BE-469F-9697-D6100B11FDFE";
paths = (
{
closed = 1;
nodes = (
"945 907 LINE",
"956 916 LINE",
"964 962 LINE",
"957 971 LINE",
"417 971 LINE",
"406 962 LINE",
"398 916 LINE",
"405 907 LINE"
);
}
);
width = 889;
}
);
leftMetricsKey = d;
unicode = 0111;
},
{
glyphname = e;
lastChange = "2020-06-09 09:59:20 +0000";
layers = (
{
anchors = (
{
name = bottom;
position = "{290, 0}";
},
{
name = ogonek;
position = "{515, 10}";
},
{
name = top;
position = "{495, 831}";
}
);
background = {
paths = (
{
closed = 1;
nodes = (
"307 861 OFFCURVE",
"61 590 OFFCURVE",
"61 287 CURVE SMOOTH",
"61 115 OFFCURVE",
"144 -30 OFFCURVE",
"339 -30 CURVE SMOOTH",
"451 -30 OFFCURVE",
"561 16 OFFCURVE",
"681 124 CURVE",
"682 142 LINE",
"638 190 LINE",
"619 191 LINE",
"551 140 OFFCURVE",
"498 114 OFFCURVE",
"449 114 CURVE SMOOTH",
"321 114 OFFCURVE",
"257 272 OFFCURVE",
"257 419 CURVE SMOOTH",
"257 580 OFFCURVE",
"335 717 OFFCURVE",
"449 717 CURVE SMOOTH",
"521 717 OFFCURVE",
"544 663 OFFCURVE",
"544 615 CURVE SMOOTH",
"544 549 OFFCURVE",
"501 458 OFFCURVE",
"230 399 CURVE",
"241 297 LINE",
"666 410 OFFCURVE",
"722 562 OFFCURVE",
"722 669 CURVE SMOOTH",
"722 781 OFFCURVE",
"659 861 OFFCURVE",
"534 861 CURVE SMOOTH"
);
}
);
};
layerId = "6B6AD122-EF8D-49FE-8C69-4BDE8C56BDD8";
paths = (
{
closed = 1;
nodes = (
"307 861 OFFCURVE",
"61 590 OFFCURVE",
"61 287 CURVE SMOOTH",
"61 115 OFFCURVE",
"144 -30 OFFCURVE",
"339 -30 CURVE SMOOTH",
"451 -30 OFFCURVE",
"561 16 OFFCURVE",
"681 124 CURVE",
"682 142 LINE",
"638 190 LINE",
"619 191 LINE",
"551 140 OFFCURVE",
"498 114 OFFCURVE",
"449 114 CURVE SMOOTH",
"321 114 OFFCURVE",
"257 272 OFFCURVE",
"257 419 CURVE SMOOTH",
"257 580 OFFCURVE",
"335 717 OFFCURVE",
"449 717 CURVE SMOOTH",
"521 717 OFFCURVE",
"544 663 OFFCURVE",
"544 615 CURVE SMOOTH",
"544 549 OFFCURVE",
"501 458 OFFCURVE",
"230 399 CURVE",
"241 297 LINE",
"666 410 OFFCURVE",
"722 562 OFFCURVE",
"722 669 CURVE SMOOTH",
"722 781 OFFCURVE",
"659 861 OFFCURVE",
"534 861 CURVE SMOOTH"
);
}
);
width = 756;
},
{
anchors = (
{
name = bottom;
position = "{299, 10}";
},
{
name = ogonek;
position = "{464, 10}";
},
{
name = top;
position = "{409, 750}";
}
);
background = {
paths = (
{
closed = 1;
nodes = (
"627 212 LINE",
"567 103 OFFCURVE",
"484 20 OFFCURVE",
"373 20 CURVE SMOOTH",
"254 20 OFFCURVE",
"174 117 OFFCURVE",
"174 287 CURVE SMOOTH",
"174 568 OFFCURVE",
"305 724 OFFCURVE",
"455 724 CURVE SMOOTH",
"551 724 OFFCURVE",
"570 661 OFFCURVE",
"570 620 CURVE SMOOTH",
"570 496 OFFCURVE",
"413 359 OFFCURVE",
"165 339 CURVE",
"157 295 LINE",
"435 312 OFFCURVE",
"663 463 OFFCURVE",
"663 618 CURVE SMOOTH",
"663 710 OFFCURVE",
"590 780 OFFCURVE",
"476 780 CURVE SMOOTH",
"259 780 OFFCURVE",
"75 530 OFFCURVE",
"75 280 CURVE SMOOTH",
"75 74 OFFCURVE",
"193 -30 OFFCURVE",
"348 -30 CURVE SMOOTH",
"503 -30 OFFCURVE",
"596 60 OFFCURVE",
"671 189 CURVE"
);
}
);
};
layerId = "34301EF7-A2BE-469F-9697-D6100B11FDFE";
paths = (
{
closed = 1;
nodes = (
"597 107 LINE",
"578 127 LINE",
"573 127 LINE",
"497 69 OFFCURVE",
"427 30 OFFCURVE",
"354 30 CURVE SMOOTH",
"243 30 OFFCURVE",
"165 120 OFFCURVE",
"165 319 CURVE SMOOTH",
"165 567 OFFCURVE",
"281 724 OFFCURVE",
"423 724 CURVE SMOOTH",
"511 724 OFFCURVE",
"533 665 OFFCURVE",
"533 620 CURVE SMOOTH",
"533 496 OFFCURVE",
"365 369 OFFCURVE",
"151 349 CURVE",
"143 305 LINE",
"387 322 OFFCURVE",
"627 459 OFFCURVE",
"627 621 CURVE SMOOTH",
"627 710 OFFCURVE",
"556 780 OFFCURVE",
"443 780 CURVE SMOOTH",
"227 780 OFFCURVE",
"64 525 OFFCURVE",
"64 276 CURVE SMOOTH",
"64 69 OFFCURVE",
"182 -30 OFFCURVE",
"318 -30 CURVE SMOOTH",
"429 -30 OFFCURVE",
"525 33 OFFCURVE",
"597 98 CURVE"
);
}
);
width = 658;
},
{
anchors = (
{
name = bottom;
position = "{272, 0}";
},
{
name = ogonek;
position = "{528, 40}";
},
{
name = top;
position = "{456, 821}";
}
);
background = {
paths = (
{
closed = 1;
nodes = (
"374 -30 OFFCURVE",
"547 155 OFFCURVE",
"669 427 CURVE",
"647 639 LINE",
"564 250 OFFCURVE",
"353 96 OFFCURVE",
"286 96 CURVE SMOOTH",
"233 96 OFFCURVE",
"198 192 OFFCURVE",
"198 297 CURVE SMOOTH",
"198 494 OFFCURVE",
"311 732 OFFCURVE",
"473 732 CURVE SMOOTH",
"534 732 OFFCURVE",
"593 697 OFFCURVE",
"687 619 CURVE",
"721 761 LINE",
"645 821 OFFCURVE",
"589 851 OFFCURVE",
"519 851 CURVE SMOOTH",
"287 851 OFFCURVE",
"60 507 OFFCURVE",
"60 235 CURVE SMOOTH",
"60 100 OFFCURVE",
"120 -30 OFFCURVE",
"236 -30 CURVE SMOOTH"
);
},
{
closed = 1;
nodes = (
"812 821 LINE",
"776 851 LINE",
"678 787 LINE",
"535 113 LINE SMOOTH",
"515 19 OFFCURVE",
"570 -30 OFFCURVE",
"625 -30 CURVE SMOOTH",
"702 -30 OFFCURVE",
"803 64 OFFCURVE",
"872 143 CURVE",
"872 153 LINE",
"840 188 LINE",
"831 188 LINE",
"766 146 OFFCURVE",
"706 118 OFFCURVE",
"685 118 CURVE SMOOTH",
"671 118 OFFCURVE",
"667 130 OFFCURVE",
"670 146 CURVE SMOOTH"
);
}
);
};
layerId = "CFF67ECA-3B2D-433B-B605-F38590C8F106";
paths = (
{
closed = 1;
nodes = (
"150 290 LINE",
"473 331 OFFCURVE",
"678 466 OFFCURVE",
"678 658 CURVE SMOOTH",
"678 777 OFFCURVE",
"597 851 OFFCURVE",
"496 851 CURVE SMOOTH",
"272 851 OFFCURVE",
"58 559 OFFCURVE",
"58 267 CURVE SMOOTH",
"58 107 OFFCURVE",
"119 -30 OFFCURVE",
"302 -30 CURVE SMOOTH",
"437 -30 OFFCURVE",
"568 51 OFFCURVE",
"647 136 CURVE",
"647 149 LINE",
"620 191 LINE",
"609 193 LINE",
"523 130 OFFCURVE",
"436 94 OFFCURVE",
"360 94 CURVE SMOOTH",
"247 94 OFFCURVE",
"194 168 OFFCURVE",
"194 317 CURVE SMOOTH",
"194 561 OFFCURVE",
"327 734 OFFCURVE",
"453 734 CURVE SMOOTH",
"497 734 OFFCURVE",
"548 712 OFFCURVE",
"548 629 CURVE SMOOTH",
"548 498 OFFCURVE",
"433 420 OFFCURVE",
"150 374 CURVE"
);
}
);
width = 698;
}
);
leftMetricsKey = c;
unicode = 0065;
},
{
glyphname = f;
lastChange = "2020-04-29 07:44:30 +0000";
layers = (
{
background = {
paths = (
{
closed = 1;
nodes = (
"68 731 LINE",
"187 731 LINE",
"25 -377 LINE",
"62 -413 LINE",
"225 -334 LINE",
"385 727 LINE",
"578 727 LINE",
"609 847 LINE",
"591 861 LINE",
"387 834 LINE",
"370 1056 OFFCURVE",
"443 1095 OFFCURVE",
"525 1095 CURVE SMOOTH",
"590 1095 OFFCURVE",
"651 1073 OFFCURVE",
"707 1037 CURVE",
"737 1050 LINE",
"790 1190 LINE",
"790 1224 LINE",
"719 1255 OFFCURVE",
"654 1266 OFFCURVE",
"604 1266 CURVE SMOOTH",
"451 1266 OFFCURVE",
"255 1156 OFFCURVE",
"210 877 CURVE SMOOTH",
"205 846 LINE",
"69 814 LINE",
"54 748 LINE"
);
}
);
};
layerId = "6B6AD122-EF8D-49FE-8C69-4BDE8C56BDD8";
paths = (
{
closed = 1;
nodes = (
"68 731 LINE",
"187 731 LINE",
"-5 -377 LINE",
"32 -413 LINE",
"195 -334 LINE",
"385 727 LINE",
"578 727 LINE",
"609 847 LINE",
"591 861 LINE",
"387 834 LINE",
"370 1056 OFFCURVE",
"443 1095 OFFCURVE",
"515 1095 CURVE SMOOTH",
"570 1095 OFFCURVE",
"616 1073 OFFCURVE",
"672 1037 CURVE",
"702 1050 LINE",
"755 1190 LINE",
"755 1224 LINE",
"684 1255 OFFCURVE",
"634 1266 OFFCURVE",
"590 1266 CURVE SMOOTH",
"451 1266 OFFCURVE",
"255 1156 OFFCURVE",
"210 877 CURVE SMOOTH",
"205 846 LINE",
"69 814 LINE",
"54 748 LINE"
);
}
);
width = 537;
},
{
background = {
paths = (
{
closed = 1;
nodes = (
"328 697 LINE",
"526 697 LINE",
"534 711 OFFCURVE",
"538 725 OFFCURVE",
"538 739 CURVE SMOOTH",
"538 753 OFFCURVE",
"534 766 OFFCURVE",
"528 779 CURVE",
"339 753 LINE",
"397 1027 LINE SMOOTH",
"426 1163 OFFCURVE",
"468 1202 OFFCURVE",
"528 1206 CURVE SMOOTH",
"548 1204 OFFCURVE",
"569 1199 OFFCURVE",
"592 1192 CURVE",
"538 1212 LINE",
"549 1157 OFFCURVE",
"594 1109 OFFCURVE",
"663 1109 CURVE SMOOTH",
"705 1109 OFFCURVE",
"730 1129 OFFCURVE",
"730 1161 CURVE SMOOTH",
"730 1214 OFFCURVE",
"658 1265 OFFCURVE",
"584 1265 CURVE SMOOTH",
"486 1265 OFFCURVE",
"357 1191 OFFCURVE",
"296 953 CURVE SMOOTH",
"244 750 LINE",
"75 729 LINE",
"69 697 LINE",
"233 697 LINE",
"8 -410 LINE",
"20 -424 LINE",
"50 -425 OFFCURVE",
"78 -417 OFFCURVE",
"108 -398 CURVE"
);
}
);
};
layerId = "34301EF7-A2BE-469F-9697-D6100B11FDFE";
paths = (
{
closed = 1;
nodes = (
"24 -394 LINE",
"107 -394 LINE",
"326 697 LINE",
"524 697 LINE",
"539 777 LINE",
"535 783 LINE",
"337 753 LINE",
"397 1027 LINE SMOOTH",
"425 1153 OFFCURVE",
"478 1179 OFFCURVE",
"526 1179 CURVE SMOOTH",
"564 1179 OFFCURVE",
"600 1162 OFFCURVE",
"631 1139 CURVE",
"647 1139 LINE",
"693 1223 LINE",
"661 1249 OFFCURVE",
"626 1265 OFFCURVE",
"581 1265 CURVE SMOOTH",
"486 1265 OFFCURVE",
"357 1191 OFFCURVE",
"296 953 CURVE SMOOTH",
"244 750 LINE",
"75 729 LINE",
"69 697 LINE",
"233 697 LINE",
"14 -382 LINE"
);
}
);
width = 491;
},
{
background = {
paths = (
{
closed = 1;
nodes = (
"-265 -357 LINE",
"-214 -258 LINE",
"-184 -258 LINE",
"-153 -281 OFFCURVE",
"-121 -303 OFFCURVE",
"-65 -303 CURVE SMOOTH",
"6 -303 OFFCURVE",
"44 -243 OFFCURVE",
"54 -183 CURVE SMOOTH",
"212 744 LINE",
"60 744 LINE",
"74 809 LINE",
"229 836 LINE",
"239 899 LINE SMOOTH",
"278 1146 OFFCURVE",
"417 1266 OFFCURVE",
"543 1266 CURVE SMOOTH",
"607 1266 OFFCURVE",
"684 1239 OFFCURVE",
"721 1156 CURVE",
"679 1055 LINE",
"649 1055 LINE",
"618 1108 OFFCURVE",
"563 1145 OFFCURVE",
"507 1145 CURVE SMOOTH",
"421 1145 OFFCURVE",
"368 1070 OFFCURVE",
"341 824 CURVE",
"579 849 LINE",
"588 837 LINE",
"562 740 LINE",
"336 740 LINE",
"200 -77 LINE SMOOTH",
"159 -324 OFFCURVE",
"25 -424 OFFCURVE",
"-116 -424 CURVE SMOOTH",
"-160 -424 OFFCURVE",
"-225 -414 OFFCURVE",
"-265 -379 CURVE"
);
},
{
closed = 0;
nodes = (
"318 571 LINE SMOOTH",
"388 937 LINE SMOOTH",
"418 1088 OFFCURVE",
"541 1121 OFFCURVE",
"626 1121 CURVE SMOOTH",
"705 1121 OFFCURVE",
"795 1096 OFFCURVE",
"853 1065 CURVE",
"867 1072 LINE",
"888 1195 LINE",
"805 1239 OFFCURVE",
"702 1266 OFFCURVE",
"601 1266 CURVE SMOOTH",
"398 1266 OFFCURVE",
"298 1156 OFFCURVE",
"269 1013 CURVE SMOOTH",
"195 652 LINE SMOOTH"
);
}
);
};
layerId = "CFF67ECA-3B2D-433B-B605-F38590C8F106";
paths = (
{
closed = 1;
nodes = (
"336 740 LINE",
"557 740 LINE",
"575 838 LINE",
"566 850 LINE",
"341 824 LINE",
"383 1109 OFFCURVE",
"465 1131 OFFCURVE",
"536 1131 CURVE SMOOTH",
"581 1131 OFFCURVE",
"615 1122 OFFCURVE",
"670 1106 CURVE",
"694 1116 LINE",
"738 1213 LINE",
"732 1237 LINE",
"661 1258 OFFCURVE",
"623 1266 OFFCURVE",
"577 1266 CURVE SMOOTH",
"427 1266 OFFCURVE",
"299 1180 OFFCURVE",
"250 939 CURVE SMOOTH",
"229 836 LINE",
"74 809 LINE",
"60 744 LINE",
"212 744 LINE",
"28 -394 LINE",
"56 -424 LINE",
"156 -375 LINE"
);
}
);
width = 529;
}
);
unicode = 0066;
},
{
glyphname = g;
lastChange = "2020-06-08 14:53:26 +0000";
layers = (
{
anchors = (
{
name = bottom;
position = "{251, -576}";
},
{
name = top;
position = "{550, 831}";
}
);
background = {
paths = (
{
closed = 1;
nodes = (
"480 -424 OFFCURVE",
"665 -268 OFFCURVE",
"732 65 CURVE SMOOTH",
"884 826 LINE",
"826 861 LINE",
"672 776 LINE",
"485 -154 LINE SMOOTH",
"469 -232 OFFCURVE",
"418 -266 OFFCURVE",
"365 -266 CURVE SMOOTH",
"301 -266 OFFCURVE",
"192 -215 OFFCURVE",
"70 -149 CURVE",
"45 -149 LINE",
"-27 -304 LINE",
"-27 -330 LINE",
"91 -392 OFFCURVE",
"195 -424 OFFCURVE",
"275 -424 CURVE SMOOTH"
);
},
{
closed = 1;
nodes = (
"782 761 LINE",
"695 831 OFFCURVE",
"640 861 OFFCURVE",
"567 861 CURVE SMOOTH",
"331 861 OFFCURVE",
"61 543 OFFCURVE",
"61 236 CURVE SMOOTH",
"61 71 OFFCURVE",
"144 -30 OFFCURVE",
"261 -30 CURVE SMOOTH",
"422 -30 OFFCURVE",
"581 156 OFFCURVE",
"681 520 CURVE",
"615 494 LINE",
"556 211 OFFCURVE",
"423 125 OFFCURVE",
"364 125 CURVE SMOOTH",
"308 125 OFFCURVE",
"276 200 OFFCURVE",
"276 332 CURVE SMOOTH",
"276 539 OFFCURVE",
"356 728 OFFCURVE",
"504 728 CURVE SMOOTH",
"593 728 OFFCURVE",
"625 661 OFFCURVE",
"665 602 CURVE"
);
}
);
};
layerId = "6B6AD122-EF8D-49FE-8C69-4BDE8C56BDD8";
paths = (
{
closed = 1;
nodes = (
"480 -424 OFFCURVE",
"665 -268 OFFCURVE",
"732 65 CURVE SMOOTH",
"884 826 LINE",
"826 861 LINE",
"672 776 LINE",
"485 -154 LINE SMOOTH",
"469 -232 OFFCURVE",
"418 -266 OFFCURVE",
"365 -266 CURVE SMOOTH",
"301 -266 OFFCURVE",
"192 -215 OFFCURVE",
"70 -149 CURVE",
"45 -149 LINE",
"-27 -304 LINE",
"-27 -330 LINE",
"91 -392 OFFCURVE",
"195 -424 OFFCURVE",
"275 -424 CURVE SMOOTH"
);
},
{
closed = 1;
nodes = (
"786 761 LINE",
"696 831 OFFCURVE",
"635 861 OFFCURVE",
"557 861 CURVE SMOOTH",
"320 861 OFFCURVE",
"57 607 OFFCURVE",
"57 249 CURVE SMOOTH",
"57 47 OFFCURVE",
"146 -30 OFFCURVE",
"259 -30 CURVE SMOOTH",
"436 -30 OFFCURVE",
"582 156 OFFCURVE",
"682 520 CURVE",
"616 494 LINE",
"557 211 OFFCURVE",
"426 121 OFFCURVE",
"367 121 CURVE SMOOTH",
"313 121 OFFCURVE",
"288 197 OFFCURVE",
"288 297 CURVE SMOOTH",
"288 486 OFFCURVE",
"366 743 OFFCURVE",
"519 743 CURVE SMOOTH",
"606 743 OFFCURVE",
"650 663 OFFCURVE",
"674 604 CURVE"
);
}
);
width = 923;
},
{
anchors = (
{
name = bottom;
position = "{204, -576}";
},
{
name = top;
position = "{486, 750}";
}
);
background = {
paths = (
{
closed = 1;
nodes = (
"247 531 OFFCURVE",
"367 725 OFFCURVE",
"506 725 CURVE SMOOTH",
"594 725 OFFCURVE",
"651 645 OFFCURVE",
"673 567 CURVE",
"591 181 LINE",
"533 103 OFFCURVE",
"450 31 OFFCURVE",
"377 31 CURVE SMOOTH",
"288 31 OFFCURVE",
"247 139 OFFCURVE",
"247 287 CURVE SMOOTH"
);
},
{
closed = 1;
nodes = (
"559 35 OFFCURVE",
"597 -30 OFFCURVE",
"686 -30 CURVE SMOOTH",
"768 -30 OFFCURVE",
"825 23 OFFCURVE",
"863 181 CURVE",
"860 189 LINE",
"829 196 LINE",
"821 191 LINE",
"785 50 OFFCURVE",
"748 16 OFFCURVE",
"705 16 CURVE SMOOTH",
"667 16 OFFCURVE",
"650 43 OFFCURVE",
"660 91 CURVE SMOOTH",
"712 322 OFFCURVE",
"796 727 OFFCURVE",
"814 766 CURVE",
"802 780 LINE",
"771 782 OFFCURVE",
"744 774 OFFCURVE",
"714 755 CURVE",
"687 636 LINE",
"713 595 LINE",
"688 706 OFFCURVE",
"613 780 OFFCURVE",
"508 780 CURVE SMOOTH",
"321 780 OFFCURVE",
"151 540 OFFCURVE",
"151 271 CURVE SMOOTH",
"151 81 OFFCURVE",
"235 -30 OFFCURVE",
"355 -30 CURVE SMOOTH",
"467 -30 OFFCURVE",
"552 67 OFFCURVE",
"615 134 CURVE",
"589 169 LINE",
"579 125 LINE SMOOTH"
);
}
);
};
layerId = "34301EF7-A2BE-469F-9697-D6100B11FDFE";
paths = (
{
closed = 1;
nodes = (
"-17 -288 LINE",
"-45 -347 LINE",
"-45 -358 LINE",
"61 -405 OFFCURVE",
"139 -424 OFFCURVE",
"202 -424 CURVE SMOOTH",
"410 -424 OFFCURVE",
"541 -307 OFFCURVE",
"602 -35 CURVE SMOOTH",
"783 766 LINE",
"768 780 LINE",
"683 726 LINE",
"502 -82 LINE SMOOTH",
"461 -265 OFFCURVE",
"404 -360 OFFCURVE",
"251 -360 CURVE SMOOTH",
"176 -360 OFFCURVE",
"95 -337 OFFCURVE",
"-4 -288 CURVE"
);
},
{
closed = 1;
nodes = (
"699 724 LINE",
"642 755 OFFCURVE",
"599 780 OFFCURVE",
"523 780 CURVE SMOOTH",
"267 780 OFFCURVE",
"61 494 OFFCURVE",
"61 213 CURVE SMOOTH",
"61 2 OFFCURVE",
"173 -30 OFFCURVE",
"231 -30 CURVE SMOOTH",
"400 -30 OFFCURVE",
"597 245 OFFCURVE",
"641 483 CURVE",
"641 535 LINE",
"595 325 OFFCURVE",
"403 43 OFFCURVE",
"273 43 CURVE SMOOTH",
"226 43 OFFCURVE",
"162 79 OFFCURVE",
"162 251 CURVE SMOOTH",
"162 516 OFFCURVE",
"308 712 OFFCURVE",
"480 712 CURVE SMOOTH",
"551 712 OFFCURVE",
"619 679 OFFCURVE",
"673 622 CURVE"
);
}
);
width = 812;
},
{
anchors = (
{
name = bottom;
position = "{214, -576}";
},
{
name = top;
position = "{511, 821}";
}
);
background = {
paths = (
{
closed = 1;
nodes = (
"364 -30 OFFCURVE",
"537 176 OFFCURVE",
"659 478 CURVE",
"637 639 LINE",
"554 250 OFFCURVE",
"327 99 OFFCURVE",
"263 99 CURVE SMOOTH",
"220 99 OFFCURVE",
"209 205 OFFCURVE",
"209 266 CURVE SMOOTH",
"209 434 OFFCURVE",
"301 732 OFFCURVE",
"472 732 CURVE SMOOTH",
"524 732 OFFCURVE",
"583 697 OFFCURVE",
"677 619 CURVE",
"711 761 LINE",
"635 821 OFFCURVE",
"579 851 OFFCURVE",
"509 851 CURVE SMOOTH",
"277 851 OFFCURVE",
"75 487 OFFCURVE",
"75 198 CURVE SMOOTH",
"75 80 OFFCURVE",
"110 -30 OFFCURVE",
"219 -30 CURVE SMOOTH"
);
},
{
closed = 1;
nodes = (
"-14 -358 LINE",
"105 -409 OFFCURVE",
"217 -424 OFFCURVE",
"268 -424 CURVE SMOOTH",
"422 -424 OFFCURVE",
"551 -358 OFFCURVE",
"599 -131 CURVE SMOOTH",
"802 821 LINE",
"766 851 LINE",
"668 787 LINE",
"463 -181 LINE SMOOTH",
"439 -296 OFFCURVE",
"386 -323 OFFCURVE",
"315 -323 CURVE SMOOTH",
"260 -323 OFFCURVE",
"190 -304 OFFCURVE",
"59 -230 CURVE",
"38 -230 LINE",
"-14 -338 LINE"
);
},
{
closed = 1;
nodes = (
"831 625 LINE",
"837 660 LINE",
"753 732 LINE",
"725 589 LINE"
);
}
);
};
layerId = "CFF67ECA-3B2D-433B-B605-F38590C8F106";
paths = (
{
closed = 1;
nodes = (
"-43 -353 LINE",
"58 -396 OFFCURVE",
"145 -423 OFFCURVE",
"227 -423 CURVE SMOOTH",
"400 -423 OFFCURVE",
"554 -299 OFFCURVE",
"629 40 CURVE SMOOTH",
"802 821 LINE",
"766 851 LINE",
"668 787 LINE",
"482 -44 LINE SMOOTH",
"437 -245 OFFCURVE",
"372 -313 OFFCURVE",
"272 -313 CURVE SMOOTH",
"200 -313 OFFCURVE",
"123 -277 OFFCURVE",
"23 -224 CURVE",
"2 -224 LINE",
"-43 -333 LINE"
);
},
{
closed = 1;
nodes = (
"364 -30 OFFCURVE",
"537 155 OFFCURVE",
"659 427 CURVE",
"637 639 LINE",
"554 250 OFFCURVE",
"343 96 OFFCURVE",
"276 96 CURVE SMOOTH",
"223 96 OFFCURVE",
"188 192 OFFCURVE",
"188 297 CURVE SMOOTH",
"188 494 OFFCURVE",
"301 732 OFFCURVE",
"463 732 CURVE SMOOTH",
"524 732 OFFCURVE",
"583 697 OFFCURVE",
"677 619 CURVE",
"711 761 LINE",
"635 821 OFFCURVE",
"579 851 OFFCURVE",
"509 851 CURVE SMOOTH",
"277 851 OFFCURVE",
"50 507 OFFCURVE",
"50 235 CURVE SMOOTH",
"50 100 OFFCURVE",
"110 -30 OFFCURVE",
"226 -30 CURVE SMOOTH"
);
}
);
width = 847;
}
);
leftMetricsKey = a;
note = ss03;
unicode = 0067;
},
{
glyphname = h;
lastChange = "2020-05-20 13:47:39 +0000";
layers = (
{
background = {
paths = (
{
closed = 1;
nodes = (
"502 1208 LINE",
"443 1274 LINE",
"97 1205 LINE",
"69 1114 LINE",
"78 1100 LINE",
"308 1093 LINE",
"280 1143 LINE",
"82 202 LINE SMOOTH",
"56 79 OFFCURVE",
"86 -30 OFFCURVE",
"178 -30 CURVE SMOOTH",
"264 -30 OFFCURVE",
"412 68 OFFCURVE",
"477 129 CURVE",
"477 143 LINE",
"444 184 LINE",
"430 184 LINE",
"393 162 OFFCURVE",
"312 133 OFFCURVE",
"291 133 CURVE SMOOTH",
"277 133 OFFCURVE",
"276 147 OFFCURVE",
"279 163 CURVE SMOOTH"
);
}
);
};
layerId = "6B6AD122-EF8D-49FE-8C69-4BDE8C56BDD8";
paths = (
{
closed = 1;
nodes = (
"867 626 LINE SMOOTH",
"903 768 OFFCURVE",
"834 861 OFFCURVE",
"741 861 CURVE SMOOTH",
"620 861 OFFCURVE",
"423 691 OFFCURVE",
"180 417 CURVE",
"334 436 LINE",
"501 1208 LINE",
"442 1274 LINE",
"87 1205 LINE",
"69 1114 LINE",
"78 1100 LINE",
"307 1093 LINE",
"283 1143 LINE",
"42 -4 LINE",
"58 -24 LINE",
"248 12 LINE",
"278 148 LINE SMOOTH",
"362 530 OFFCURVE",
"499 659 OFFCURVE",
"585 659 CURVE SMOOTH",
"626 659 OFFCURVE",
"657 629 OFFCURVE",
"641 565 CURVE SMOOTH",
"559 230 LINE SMOOTH",
"522 80 OFFCURVE",
"540 -30 OFFCURVE",
"642 -30 CURVE SMOOTH",
"738 -30 OFFCURVE",
"881 68 OFFCURVE",
"946 129 CURVE",
"946 143 LINE",
"913 184 LINE",
"899 184 LINE",
"862 162 OFFCURVE",
"781 133 OFFCURVE",
"760 133 CURVE SMOOTH",
"746 133 OFFCURVE",
"744 147 OFFCURVE",
"748 163 CURVE SMOOTH"
);
}
);
width = 972;
},
{
layerId = "34301EF7-A2BE-469F-9697-D6100B11FDFE";
paths = (
{
closed = 1;
nodes = (
"742 516 LINE SMOOTH",
"782 688 OFFCURVE",
"718 780 OFFCURVE",
"607 780 CURVE SMOOTH",
"509 780 OFFCURVE",
"403 711 OFFCURVE",
"242 498 CURVE",
"228 352 LINE",
"366 660 OFFCURVE",
"504 691 OFFCURVE",
"560 691 CURVE SMOOTH",
"642 691 OFFCURVE",
"681 627 OFFCURVE",
"645 480 CURVE SMOOTH",
"571 178 LINE SMOOTH",
"539 49 OFFCURVE",
"560 -30 OFFCURVE",
"615 -30 CURVE SMOOTH",
"674 -30 OFFCURVE",
"781 52 OFFCURVE",
"840 105 CURVE",
"840 115 LINE",
"824 132 LINE",
"815 132 LINE",
"761 89 OFFCURVE",
"693 51 OFFCURVE",
"677 51 CURVE SMOOTH",
"660 51 OFFCURVE",
"642 89 OFFCURVE",
"658 156 CURVE SMOOTH"
);
},
{
closed = 1;
nodes = (
"86 0 LINE",
"165 0 LINE",
"432 1254 LINE",
"419 1266 LINE",
"126 1218 LINE",
"119 1177 LINE",
"128 1173 LINE",
"378 1163 LINE",
"325 1186 LINE",
"75 11 LINE"
);
}
);
width = 894;
},
{
background = {
paths = (
{
closed = 1;
nodes = (
"423 1266 LINE",
"129 1208 LINE",
"123 1148 LINE",
"139 1134 LINE",
"356 1126 LINE",
"313 1143 LINE",
"107 174 LINE SMOOTH",
"75 22 OFFCURVE",
"102 -30 OFFCURVE",
"154 -30 CURVE SMOOTH",
"225 -30 OFFCURVE",
"363 64 OFFCURVE",
"432 143 CURVE",
"432 153 LINE",
"400 188 LINE",
"391 188 LINE",
"326 146 OFFCURVE",
"266 118 OFFCURVE",
"245 118 CURVE SMOOTH",
"231 118 OFFCURVE",
"227 130 OFFCURVE",
"230 146 CURVE SMOOTH",
"459 1236 LINE"
);
}
);
};
layerId = "CFF67ECA-3B2D-433B-B605-F38590C8F106";
paths = (
{
closed = 1;
nodes = (
"66 0 LINE",
"95 -30 LINE",
"194 15 LINE",
"271 373 LINE",
"459 1236 LINE",
"423 1266 LINE",
"129 1208 LINE",
"123 1148 LINE",
"139 1134 LINE",
"366 1126 LINE",
"322 1167 LINE"
);
},
{
closed = 1;
nodes = (
"528 24 OFFCURVE",
"562 -30 OFFCURVE",
"614 -30 CURVE SMOOTH",
"685 -30 OFFCURVE",
"823 64 OFFCURVE",
"892 143 CURVE",
"892 153 LINE",
"860 188 LINE",
"851 188 LINE",
"786 146 OFFCURVE",
"726 118 OFFCURVE",
"705 118 CURVE SMOOTH",
"691 118 OFFCURVE",
"686 130 OFFCURVE",
"690 146 CURVE SMOOTH",
"800 583 LINE SMOOTH",
"843 753 OFFCURVE",
"766 851 OFFCURVE",
"657 851 CURVE SMOOTH",
"531 851 OFFCURVE",
"384 717 OFFCURVE",
"191 468 CURVE",
"191 125 LINE",
"331 619 OFFCURVE",
"502 708 OFFCURVE",
"590 708 CURVE SMOOTH",
"636 708 OFFCURVE",
"700 684 OFFCURVE",
"665 551 CURVE SMOOTH",
"567 174 LINE SMOOTH"
);
}
);
width = 917;
}
);
leftMetricsKey = l;
rightMetricsKey = n;
unicode = 0068;
},
{
glyphname = hbar;
lastChange = "2020-06-08 15:54:36 +0000";
layers = (
{
components = (
{
name = h;
}
);
layerId = "6B6AD122-EF8D-49FE-8C69-4BDE8C56BDD8";
paths = (
{
closed = 1;
nodes = (
"624 901 LINE",
"635 910 LINE",
"649 996 LINE",
"642 1005 LINE",
"82 1005 LINE",
"71 996 LINE",
"57 910 LINE",
"64 901 LINE"
);
}
);
width = 972;
},
{
components = (
{
name = h;
}
);
layerId = "CFF67ECA-3B2D-433B-B605-F38590C8F106";
paths = (
{
closed = 1;
nodes = (
"658 922 LINE",
"669 931 LINE",
"679 997 LINE",
"672 1006 LINE",
"132 1006 LINE",
"122 997 LINE",
"111 931 LINE",
"118 922 LINE"
);
}
);
width = 917;
},
{
components = (
{
name = h;
}
);
layerId = "34301EF7-A2BE-469F-9697-D6100B11FDFE";
paths = (
{
closed = 1;
nodes = (
"635 917 LINE",
"646 926 LINE",
"654 972 LINE",
"647 981 LINE",
"107 981 LINE",
"96 972 LINE",
"88 926 LINE",
"95 917 LINE"
);
}
);
width = 894;
}
);
unicode = 0127;
},
{
glyphname = i;
lastChange = "2020-06-09 09:57:40 +0000";
layers = (
{
background = {
paths = (
{
closed = 1;
nodes = (
"419 803 LINE",
"358 861 LINE",
"36 784 LINE",
"20 707 LINE",
"30 694 LINE",
"315 683 LINE",
"214 718 LINE",
"42 -4 LINE",
"58 -24 LINE",
"246 12 LINE",
"276 148 LINE SMOOTH",
"356 512 OFFCURVE",
"496 655 OFFCURVE",
"582 655 CURVE SMOOTH",
"622 655 OFFCURVE",
"654 625 OFFCURVE",
"634 543 CURVE SMOOTH",
"549 202 LINE SMOOTH",
"512 52 OFFCURVE",
"559 -30 OFFCURVE",
"648 -30 CURVE SMOOTH",
"757 -30 OFFCURVE",
"878 97 OFFCURVE",
"939 175 CURVE",
"939 189 LINE",
"895 240 LINE",
"881 240 LINE",
"823 201 OFFCURVE",
"789 184 OFFCURVE",
"770 184 CURVE SMOOTH",
"754 184 OFFCURVE",
"754 198 OFFCURVE",
"758 214 CURVE SMOOTH",
"865 626 LINE SMOOTH",
"902 768 OFFCURVE",
"832 861 OFFCURVE",
"739 861 CURVE SMOOTH",
"618 861 OFFCURVE",
"421 691 OFFCURVE",
"178 417 CURVE",
"332 436 LINE"
);
}
);
};
layerId = "6B6AD122-EF8D-49FE-8C69-4BDE8C56BDD8";
leftMetricsKey = "=n-5";
paths = (
{
closed = 1;
nodes = (
"278 -30 OFFCURVE",
"426 68 OFFCURVE",
"491 129 CURVE",
"491 143 LINE",
"458 184 LINE",
"444 184 LINE",
"407 162 OFFCURVE",
"326 133 OFFCURVE",
"305 133 CURVE SMOOTH",
"291 133 OFFCURVE",
"289 147 OFFCURVE",
"293 163 CURVE SMOOTH",
"441 803 LINE",
"380 861 LINE",
"48 784 LINE",
"32 707 LINE",
"42 694 LINE",
"337 683 LINE",
"217 738 LINE",
"96 202 LINE SMOOTH",
"68 79 OFFCURVE",
"100 -30 OFFCURVE",
"192 -30 CURVE SMOOTH"
);
},
{
closed = 1;
nodes = (
"447 975 OFFCURVE",
"510 1031 OFFCURVE",
"522 1096 CURVE SMOOTH",
"537 1179 OFFCURVE",
"489 1256 OFFCURVE",
"409 1256 CURVE SMOOTH",
"340 1256 OFFCURVE",
"276 1199 OFFCURVE",
"264 1136 CURVE SMOOTH",
"248 1051 OFFCURVE",
"298 975 OFFCURVE",
"378 975 CURVE SMOOTH"
);
}
);
width = 517;
},
{
background = {
paths = (
{
closed = 1;
nodes = (
"391 1007 OFFCURVE",
"435 1044 OFFCURVE",
"444 1087 CURVE SMOOTH",
"455 1139 OFFCURVE",
"423 1185 OFFCURVE",
"379 1185 CURVE SMOOTH",
"337 1185 OFFCURVE",
"295 1149 OFFCURVE",
"286 1105 CURVE SMOOTH",
"276 1054 OFFCURVE",
"305 1007 OFFCURVE",
"352 1007 CURVE SMOOTH"
);
},
{
closed = 1;
nodes = (
"354 768 LINE",
"341 780 LINE",
"48 645 LINE",
"41 602 LINE",
"50 598 LINE",
"292 687 LINE",
"250 701 LINE",
"128 134 LINE SMOOTH",
"106 30 OFFCURVE",
"156 -30 OFFCURVE",
"225 -30 CURVE SMOOTH",
"226 -30 LINE SMOOTH",
"290 -30 OFFCURVE",
"348 25 OFFCURVE",
"396 108 CURVE",
"396 116 LINE",
"379 138 OFFCURVE",
"356 149 OFFCURVE",
"329 149 CURVE",
"322 144 LINE",
"303 82 OFFCURVE",
"278 11 OFFCURVE",
"232 11 CURVE SMOOTH",
"205 11 OFFCURVE",
"193 30 OFFCURVE",
"199 56 CURVE SMOOTH"
);
}
);
};
layerId = "34301EF7-A2BE-469F-9697-D6100B11FDFE";
paths = (
{
closed = 1;
nodes = (
"238 -30 OFFCURVE",
"345 52 OFFCURVE",
"404 105 CURVE",
"404 115 LINE",
"388 132 LINE",
"379 132 LINE",
"325 89 OFFCURVE",
"257 51 OFFCURVE",
"241 51 CURVE SMOOTH",
"224 51 OFFCURVE",
"208 89 OFFCURVE",
"222 156 CURVE SMOOTH",
"352 768 LINE",
"339 780 LINE",
"77 728 LINE",
"70 688 LINE",
"76 683 LINE",
"295 674 LINE",
"245 691 LINE",
"135 178 LINE SMOOTH",
"107 48 OFFCURVE",
"124 -30 OFFCURVE",
"179 -30 CURVE SMOOTH"
);
},
{
closed = 1;
nodes = (
"411 1037 OFFCURVE",
"455 1074 OFFCURVE",
"464 1117 CURVE SMOOTH",
"475 1169 OFFCURVE",
"443 1215 OFFCURVE",
"399 1215 CURVE SMOOTH",
"357 1215 OFFCURVE",
"315 1179 OFFCURVE",
"306 1135 CURVE SMOOTH",
"296 1084 OFFCURVE",
"325 1037 OFFCURVE",
"372 1037 CURVE SMOOTH"
);
}
);
width = 458;
},
{
background = {
paths = (
{
closed = 1;
nodes = (
"645 682 LINE",
"667 695 LINE",
"705 814 LINE",
"698 832 LINE",
"655 846 OFFCURVE",
"624 851 OFFCURVE",
"595 851 CURVE SMOOTH",
"494 851 OFFCURVE",
"331 660 OFFCURVE",
"236 407 CURVE",
"220 202 LINE",
"361 565 OFFCURVE",
"396 682 OFFCURVE",
"527 682 CURVE SMOOTH"
);
},
{
closed = 1;
nodes = (
"375 821 LINE",
"339 851 LINE",
"64 775 LINE",
"58 718 LINE",
"74 704 LINE",
"235 699 LINE",
"241 752 LINE",
"79 0 LINE",
"108 -30 LINE",
"213 15 LINE",
"331 560 LINE"
);
}
);
};
layerId = "CFF67ECA-3B2D-433B-B605-F38590C8F106";
paths = (
{
closed = 1;
nodes = (
"237 -30 OFFCURVE",
"375 64 OFFCURVE",
"444 143 CURVE",
"444 153 LINE",
"412 188 LINE",
"403 188 LINE",
"338 146 OFFCURVE",
"278 118 OFFCURVE",
"257 118 CURVE SMOOTH",
"243 118 OFFCURVE",
"239 130 OFFCURVE",
"242 146 CURVE SMOOTH",
"384 821 LINE",
"348 851 LINE",
"63 775 LINE",
"57 718 LINE",
"73 704 LINE",
"244 699 LINE",
"242 762 LINE",
"116 174 LINE SMOOTH",
"83 22 OFFCURVE",
"114 -30 OFFCURVE",
"166 -30 CURVE SMOOTH"
);
},
{
closed = 1;
nodes = (
"399 1023 OFFCURVE",
"453 1067 OFFCURVE",
"464 1117 CURVE SMOOTH",
"478 1180 OFFCURVE",
"435 1235 OFFCURVE",
"378 1235 CURVE SMOOTH",
"329 1235 OFFCURVE",
"277 1192 OFFCURVE",
"266 1143 CURVE SMOOTH",
"252 1079 OFFCURVE",
"293 1023 OFFCURVE",
"352 1023 CURVE SMOOTH"
);
}
);
width = 469;
}
);
leftMetricsKey = n;
rightMetricsKey = n;
unicode = 0069;
},
